Iansui-build.glyphspackage
{
glyphname = exclam;
layers = (
{
hints = (
{
horizontal = 1;
place = (-9,110);
type = Stem;
},
{
place = (142,62);
type = Stem;
},
{
place = (123,105);
type = Stem;
}
);
layerId = "481A290F-76EE-4968-957F-52614F4635C1";
shapes = (
{
closed = 1;
nodes = (
(204,208,l),
(216,594,ls),
(217,623,o),
(220,644,o),
(222,665,cs),
(222,666,ls),
(222,683,o),
(187,697,o),
(163,697,cs),
(148,697,o),
(137,692,o),
(137,680,cs),
(137,678,ls),
(138,670,o),
(142,627,o),
(142,599,cs),
(148,212,ls),
(148,199,o),
(147,183,o),
(146,173,cs),
(146,172,ls),
(146,159,o),
(171,150,o),
(188,150,cs),
(197,150,o),
(204,153,o),
(204,158,cs)
);
},
{
closed = 1;
nodes = (
(228,53,o),
(201,86,o),
(176,86,cs),
(140,86,o),
(123,64,o),
(123,36,cs),
(123,7,o),
(148,-24,o),
(176,-24,cs),
(212,-24,o),
(228,-5,o),
(228,22,cs)
);
}
);
width = 350;
}
);
note = cid00002;
unicode = 33;
}
{
glyphname = quotedbl;
layers = (
{
hints = (
{
horizontal = 1;
place = (476,249);
type = Stem;
},
{
place = (74,74);
type = Stem;
},
{
place = (202,74);
type = Stem;
}
);
layerId = "481A290F-76EE-4968-957F-52614F4635C1";
shapes = (
{
closed = 1;
nodes = (
(208,477,ls),
(208,466,o),
(224,461,o),
(239,461,cs),
(255,461,o),
(270,466,o),
(270,477,cs),
(276,688,ls),
(276,703,o),
(258,710,o),
(239,710,cs),
(221,710,o),
(202,703,o),
(202,688,cs)
);
},
{
closed = 1;
nodes = (
(80,477,ls),
(80,466,o),
(96,461,o),
(111,461,cs),
(127,461,o),
(142,466,o),
(142,477,cs),
(148,688,ls),
(148,703,o),
(130,710,o),
(111,710,cs),
(93,710,o),
(74,703,o),
(74,688,cs)
);
}
);
width = 350;
}
);
note = cid00003;
unicode = 34;
}
{
glyphname = percent;
layers = (
{
hints = (
{
horizontal = 1;
place = (-18,55);
type = Stem;
},
{
horizontal = 1;
place = (281,55);
type = Stem;
},
{
horizontal = 1;
place = (371,55);
type = Stem;
},
{
horizontal = 1;
place = (670,55);
type = Stem;
},
{
place = (54,62);
type = Stem;
},
{
place = (295,61);
type = Stem;
},
{
place = (444,62);
type = Stem;
},
{
place = (685,61);
type = Stem;
}
);
layerId = "481A290F-76EE-4968-957F-52614F4635C1";
shapes = (
{
closed = 1;
nodes = (
(71,642,o),
(54,586,o),
(54,532,cs),
(54,428,o),
(103,356,o),
(208,356,cs),
(309,356,o),
(356,437,o),
(356,532,cs),
(356,630,o),
(306,710,o),
(211,710,cs),
(179,710,o),
(149,697,o),
(131,679,c),
(129,681,o),
(125,683,o),
(121,683,cs),
(116,683,o),
(110,681,o),
(105,675,c)
);
},
{
closed = 1;
nodes = (
(180,56,ls),
(170,41,o),
(155,21,o),
(142,6,cs),
(139,3,o),
(138,-1,o),
(138,-6,cs),
(138,-26,o),
(165,-55,o),
(181,-55,cs),
(186,-55,o),
(189,-53,o),
(192,-48,cs),
(204,-26,o),
(217,-4,o),
(229,15,cs),
(603,597,ls),
(615,616,o),
(632,638,o),
(649,660,c),
(650,662,o),
(651,664,o),
(651,666,cs),
(651,683,o),
(624,718,o),
(605,718,cs),
(600,718,o),
(595,716,o),
(592,709,cs),
(580,684,o),
(563,657,o),
(550,636,cs)
);
},
{
closed = 1;
nodes = (
(461,253,o),
(444,197,o),
(444,143,cs),
(444,39,o),
(493,-33,o),
(598,-33,cs),
(699,-33,o),
(746,48,o),
(746,143,cs),
(746,241,o),
(696,321,o),
(601,321,cs),
(569,321,o),
(539,308,o),
(521,290,c),
(519,292,o),
(515,294,o),
(511,294,cs),
(506,294,o),
(500,292,o),
(495,286,c)
);
},
{
closed = 1;
nodes = (
(134,411,o),
(116,471,o),
(116,532,cs),
(116,615,o),
(162,655,o),
(208,655,cs),
(268,655,o),
(295,599,o),
(295,536,cs),
(295,459,o),
(266,411,o),
(206,411,cs)
);
},
{
closed = 1;
nodes = (
(529,22,o),
(506,82,o),
(506,143,cs),
(506,228,o),
(552,266,o),
(598,266,cs),
(658,266,o),
(685,210,o),
(685,147,cs),
(685,70,o),
(657,22,o),
(596,22,cs)
);
}
);
width = 800;
}
);
note = cid00006;
unicode = 37;
}
{
glyphname = quotesingle;
layers = (
{
hints = (
{
horizontal = 1;
place = (476,249);
type = Stem;
},
{
place = (138,74);
type = Stem;
}
);
layerId = "481A290F-76EE-4968-957F-52614F4635C1";
shapes = (
{
closed = 1;
nodes = (
(144,477,ls),
(145,466,o),
(160,461,o),
(175,461,cs),
(191,461,o),
(206,466,o),
(206,477,cs),
(212,688,l),
(212,689,ls),
(212,703,o),
(194,710,o),
(175,710,cs),
(157,710,o),
(138,703,o),
(138,688,cs)
);
}
);
width = 350;
}
);
note = cid00008;
unicode = 39;
}
{
glyphname = parenleft;
layers = (
{
hints = (
{
horizontal = 1;
place = (-159,950);
type = Stem;
},
{
place = (100,75);
type = Stem;
}
);
layerId = "481A290F-76EE-4968-957F-52614F4635C1";
shapes = (
{
closed = 1;
nodes = (
(309,-174,o),
(315,-165,o),
(315,-155,cs),
(315,-149,o),
(313,-142,o),
(307,-136,cs),
(224,-53,o),
(175,138,o),
(175,271,cs),
(175,409,o),
(225,637,o),
(318,746,cs),
(322,750,o),
(323,755,o),
(323,759,cs),
(323,769,o),
(315,776,o),
(304,776,cs),
(269,776,o),
(100,548,o),
(100,271,cs),
(100,7,o),
(271,-174,o),
(300,-174,cs)
);
}
);
width = 350;
}
);
note = cid00009;
unicode = 40;
}
{
glyphname = hyphen;
layers = (
{
hints = (
{
horizontal = 1;
place = (222,58);
type = Stem;
},
{
place = (22,308);
type = Stem;
}
);
layerId = "481A290F-76EE-4968-957F-52614F4635C1";
shapes = (
{
closed = 1;
nodes = (
(309,267,ls),
(281,265,o),
(260,265,o),
(238,265,cs),
(118,265,ls),
(86,265,o),
(58,266,o),
(38,267,cs),
(26,267,o),
(22,256,o),
(22,243,cs),
(22,225,o),
(30,204,o),
(42,204,cs),
(43,204,ls),
(59,206,o),
(93,207,o),
(117,207,cs),
(237,207,ls),
(263,207,o),
(284,205,o),
(315,205,cs),
(326,205,o),
(330,216,o),
(330,229,cs),
(330,247,o),
(321,267,o),
(310,267,cs)
);
}
);
width = 350;
}
);
note = cid00014;
unicode = (45,8209);
}
{
glyphname = zero;
layers = (
{
hints = (
{
horizontal = 1;
place = (-18,63);
type = Stem;
},
{
horizontal = 1;
place = (650,63);
type = Stem;
},
{
place = (73,72);
type = Stem;
},
{
place = (456,72);
type = Stem;
}
);
layerId = "481A290F-76EE-4968-957F-52614F4635C1";
shapes = (
{
closed = 1;
nodes = (
(189,638,o),
(182,644,o),
(174,644,cs),
(141,644,o),
(73,502,o),
(73,322,cs),
(73,129,o),
(133,-33,o),
(300,-33,cs),
(453,-33,o),
(528,143,o),
(528,339,cs),
(528,545,o),
(457,698,o),
(313,698,cs),
(267,698,o),
(228,672,o),
(194,632,c)
);
},
{
closed = 1;
nodes = (
(169,30,o),
(145,169,o),
(145,324,cs),
(145,527,o),
(244,635,o),
(309,635,cs),
(422,635,o),
(456,493,o),
(456,345,cs),
(456,170,o),
(410,30,o),
(297,30,cs)
);
}
);
width = 600;
}
);
note = cid00017;
unicode = 48;
}
{
glyphname = one;
layers = (
{
hints = (
{
horizontal = 1;
place = (-11,721);
type = Stem;
},
{
place = (279,73);
type = Stem;
}
);
layerId = "481A290F-76EE-4968-957F-52614F4635C1";
shapes = (
{
closed = 1;
nodes = (
(279,90,ls),
(279,69,o),
(277,18,o),
(277,2,cs),
(277,-15,o),
(310,-26,o),
(333,-26,cs),
(345,-26,o),
(354,-23,o),
(354,-16,cs),
(353,11,o),
(352,69,o),
(352,96,cs),
(352,585,ls),
(352,614,o),
(358,640,o),
(358,656,cs),
(358,676,o),
(325,695,o),
(309,695,cs),
(294,695,o),
(273,666,o),
(265,660,cs),
(235,637,o),
(191,610,o),
(144,592,cs),
(136,589,o),
(133,585,o),
(133,580,cs),
(133,569,o),
(157,556,o),
(176,556,cs),
(179,556,o),
(182,556,o),
(184,557,c),
(215,564,o),
(250,574,o),
(279,591,c)
);
}
);
width = 600;
}
);
note = cid00018;
unicode = 49;
}
{
glyphname = two;
layers = (
{
hints = (
{
horizontal = 1;
place = (7,62);
type = Stem;
},
{
horizontal = 1;
place = (649,64);
type = Stem;
},
{
place = (450,74);
type = Stem;
}
);
layerId = "481A290F-76EE-4968-957F-52614F4635C1";
shapes = (
{
closed = 1;
nodes = (
(103,-19,l),
(169,-8,o),
(208,-8,o),
(286,-8,cs),
(341,-8,o),
(399,-8,o),
(440,-10,cs),
(476,-12,o),
(511,-16,o),
(524,-16,cs),
(535,-16,o),
(539,-8,o),
(539,2,cs),
(539,23,o),
(522,54,o),
(505,54,cs),
(491,54,o),
(458,53,o),
(440,53,cs),
(398,53,o),
(344,54,o),
(294,54,cs),
(256,54,o),
(185,53,o),
(145,49,c),
(192,126,o),
(261,200,o),
(362,282,cs),
(462,365,o),
(524,447,o),
(524,532,cs),
(524,630,o),
(450,698,o),
(330,698,cs),
(171,698,o),
(98,583,o),
(98,555,cs),
(98,541,o),
(117,510,o),
(137,510,cs),
(152,510,o),
(166,523,o),
(171,536,cs),
(194,594,o),
(247,634,o),
(328,634,cs),
(411,634,o),
(450,592,o),
(450,532,cs),
(450,466,o),
(405,401,o),
(317,329,cs),
(209,239,o),
(122,139,o),
(83,73,cs),
(77,63,o),
(69,56,o),
(60,43,cs),
(58,39,o),
(57,34,o),
(57,29,cs),
(57,8,o),
(75,-19,o),
(98,-19,cs)
);
}
);
width = 600;
}
);
note = cid00019;
unicode = 50;
}
{
glyphname = three;
layers = (
{
hints = (
{
horizontal = 1;
place = (-18,63);
type = Stem;
},
{
horizontal = 1;
place = (352,40);
type = Stem;
},
{
horizontal = 1;
place = (651,62);
type = Stem;
},
{
place = (466,71);
type = Stem;
},
{
place = (435,70);
type = Stem;
}
);
layerId = "481A290F-76EE-4968-957F-52614F4635C1";
shapes = (
{
closed = 1;
nodes = (
(455,402,o),
(505,462,o),
(505,543,cs),
(505,640,o),
(429,698,o),
(316,698,cs),
(228,698,o),
(160,665,o),
(106,608,c),
(100,603,o),
(95,595,o),
(95,585,cs),
(95,560,o),
(124,542,o),
(129,542,cs),
(139,542,o),
(147,551,o),
(150,555,cs),
(202,611,o),
(255,636,o),
(318,636,cs),
(395,636,o),
(435,602,o),
(435,536,cs),
(435,458,o),
(335,402,o),
(211,390,cs),
(203,389,o),
(199,382,o),
(199,373,cs),
(199,355,o),
(214,328,o),
(233,328,cs),
(234,328,o),
(236,329,o),
(238,329,c),
(256,334,o),
(305,337,o),
(315,337,cs),
(403,337,o),
(466,283,o),
(466,202,cs),
(466,111,o),
(410,30,o),
(272,30,cs),
(194,30,o),
(146,63,o),
(103,116,cs),
(99,120,o),
(96,122,o),
(92,122,cs),
(76,122,o),
(59,93,o),
(59,69,cs),
(59,61,o),
(62,53,o),
(67,48,cs),
(122,-5,o),
(184,-33,o),
(272,-33,cs),
(455,-33,o),
(537,76,o),
(537,203,cs),
(537,309,o),
(465,376,o),
(373,377,c)
);
}
);
width = 600;
}
);
note = cid00020;
unicode = 51;
}
{
glyphname = nine;
layers = (
{
hints = (
{
horizontal = 1;
place = (260,65);
type = Stem;
},
{
horizontal = 1;
place = (650,62);
type = Stem;
},
{
place = (59,69);
type = Stem;
},
{
place = (351,76);
type = Stem;
},
{
place = (474,77);
type = Stem;
}
);
layerId = "481A290F-76EE-4968-957F-52614F4635C1";
shapes = (
{
closed = 1;
nodes = (
(381,-28,ls),
(408,-27,o),
(426,-20,o),
(427,-6,cs),
(434,61,o),
(508,515,o),
(551,628,c),
(551,631,ls),
(551,647,o),
(515,666,o),
(498,668,cs),
(496,668,ls),
(477,668,o),
(480,643,o),
(474,614,c),
(457,644,o),
(406,697,o),
(313,697,cs),
(174,697,o),
(59,562,o),
(59,427,cs),
(59,312,o),
(135,245,o),
(228,245,cs),
(299,245,o),
(373,284,o),
(420,342,c),
(413,301,o),
(400,237,o),
(354,14,cs),
(353,8,o),
(351,1,o),
(351,-6,cs),
(351,-18,o),
(356,-28,o),
(377,-28,cs)
);
},
{
closed = 1;
nodes = (
(459,544,o),
(457,530,o),
(453,516,cs),
(446,494,o),
(387,310,o),
(227,310,cs),
(162,310,o),
(128,356,o),
(128,430,cs),
(128,521,o),
(210,635,o),
(318,635,cs),
(388,635,o),
(421,592,o),
(434,564,cs),
(438,555,o),
(443,552,o),
(449,552,cs),
(453,552,o),
(458,555,o),
(463,558,c)
);
}
);
width = 600;
}
);
note = cid00026;
unicode = 57;
}
{
glyphname = colon;
layers = (
{
hints = (
{
horizontal = 1;
place = (-7,108);
type = Stem;
},
{
horizontal = 1;
place = (364,108);
type = Stem;
},
{
place = (125,105);
type = Stem;
}
);
layerId = "481A290F-76EE-4968-957F-52614F4635C1";
shapes = (
{
closed = 1;
nodes = (
(230,423,o),
(203,457,o),
(178,457,cs),
(147,457,o),
(125,441,o),
(125,409,cs),
(125,383,o),
(150,349,o),
(178,349,cs),
(214,349,o),
(230,368,o),
(230,395,cs)
);
},
{
closed = 1;
nodes = (
(230,52,o),
(203,86,o),
(178,86,cs),
(147,86,o),
(125,70,o),
(125,38,cs),
(125,12,o),
(150,-22,o),
(178,-22,cs),
(214,-22,o),
(230,-3,o),
(230,24,cs)
);
}
);
width = 350;
}
);
note = cid00027;
unicode = 58;
}
{
glyphname = semicolon;
layers = (
{
hints = (
{
horizontal = 1;
place = (364,108);
type = Stem;
},
{
place = (125,105);
type = Stem;
},
{
place = (169,58);
type = Stem;
}
);
layerId = "481A290F-76EE-4968-957F-52614F4635C1";
shapes = (
{
closed = 1;
nodes = (
(230,423,o),
(203,457,o),
(178,457,cs),
(147,457,o),
(125,441,o),
(125,409,cs),
(125,383,o),
(150,349,o),
(178,349,cs),
(214,349,o),
(230,368,o),
(230,395,cs)
);
},
{
closed = 1;
nodes = (
(163,-42,o),
(137,-72,o),
(112,-89,cs),
(108,-92,o),
(106,-97,o),
(106,-101,cs),
(106,-108,o),
(111,-115,o),
(120,-115,cs),
(123,-115,o),
(125,-114,o),
(128,-113,cs),
(183,-89,o),
(227,-33,o),
(227,13,cs),
(227,16,o),
(226,19,o),
(226,22,cs),
(222,54,o),
(202,82,o),
(175,82,cs),
(147,82,o),
(122,65,o),
(122,36,cs),
(122,15,o),
(136,-2,o),
(147,-11,c),
(149,-14,o),
(166,-17,o),
(169,-18,c)
);
}
);
width = 350;
}
);
note = cid00028;
unicode = 59;
}
{
glyphname = question;
layers = (
{
hints = (
{
horizontal = 1;
place = (654,59);
type = Stem;
},
{
place = (253,67);
type = Stem;
},
{
place = (449,73);
type = Stem;
},
{
horizontal = 1;
place = (-9,110);
type = Stem;
},
{
place = (238,105);
type = Stem;
}
);
layerId = "481A290F-76EE-4968-957F-52614F4635C1";
shapes = (
{
closed = 1;
nodes = (
(330,170,o),
(329,171,o),
(329,173,c),
(323,194,o),
(320,210,o),
(320,228,cs),
(320,235,o),
(320,243,o),
(321,251,cs),
(334,362,o),
(522,386,o),
(522,559,cs),
(522,646,o),
(457,698,o),
(355,698,cs),
(239,698,o),
(155,652,o),
(92,542,cs),
(90,539,o),
(90,536,o),
(90,533,cs),
(90,513,o),
(117,491,o),
(137,491,cs),
(145,491,o),
(152,495,o),
(155,504,cs),
(189,620,o),
(308,639,o),
(356,639,cs),
(419,639,o),
(449,601,o),
(449,553,cs),
(449,414,o),
(276,391,o),
(257,260,cs),
(254,241,o),
(253,224,o),
(253,209,cs),
(253,178,o),
(253,153,o),
(301,153,cs),
(316,153,o),
(330,158,o),
(330,169,cs)
);
},
{
closed = 1;
nodes = (
(343,53,o),
(316,86,o),
(291,86,cs),
(255,86,o),
(238,64,o),
(238,36,cs),
(238,7,o),
(263,-24,o),
(291,-24,cs),
(327,-24,o),
(343,-5,o),
(343,22,cs)
);
}
);
width = 600;
}
);
note = cid00032;
unicode = 63;
}
{
glyphname = B;
layers = (
{
hints = (
{
horizontal = 1;
place = (-10,49);
type = Stem;
},
{
horizontal = 1;
place = (358,50);
type = Stem;
},
{
horizontal = 1;
place = (650,61);
type = Stem;
},
{
place = (106,70);
type = Stem;
},
{
place = (528,71);
type = Stem;
},
{
place = (472,71);
type = Stem;
}
);
layerId = "481A290F-76EE-4968-957F-52614F4635C1";
shapes = (
{
closed = 1;
nodes = (
(106,36,l),
(100,35,o),
(84,34,o),
(75,34,cs),
(61,34,o),
(53,25,o),
(53,17,cs),
(53,9,o),
(59,2,o),
(73,-1,cs),
(109,-7,o),
(168,-10,o),
(198,-10,cs),
(344,-10,o),
(599,-2,o),
(599,215,cs),
(599,315,o),
(515,388,o),
(419,398,c),
(475,420,o),
(543,474,o),
(543,557,cs),
(543,643,o),
(479,711,o),
(320,711,cs),
(241,711,o),
(112,695,o),
(73,679,cs),
(68,677,o),
(66,673,o),
(66,668,cs),
(66,653,o),
(88,630,o),
(106,625,c)
);
},
{
closed = 1;
nodes = (
(176,408,l),
(176,633,l),
(216,644,o),
(262,650,o),
(308,650,cs),
(420,650,o),
(472,618,o),
(472,551,cs),
(472,479,o),
(387,430,o),
(314,417,cs),
(284,412,o),
(228,408,o),
(189,408,cs)
);
},
{
closed = 1;
nodes = (
(346,358,ls),
(424,356,o),
(528,320,o),
(528,212,cs),
(528,146,o),
(492,39,o),
(176,39,c),
(176,351,l),
(220,355,o),
(282,358,o),
(327,358,cs)
);
}
);
width = 650;
}
);
note = cid00035;
unicode = 66;
}
{
glyphname = C;
layers = (
{
hints = (
{
horizontal = 1;
place = (-18,63);
type = Stem;
},
{
horizontal = 1;
place = (649,64);
type = Stem;
},
{
place = (51,72);
type = Stem;
}
);
layerId = "481A290F-76EE-4968-957F-52614F4635C1";
shapes = (
{
closed = 1;
nodes = (
(674,194,o),
(668,200,o),
(660,200,cs),
(653,200,o),
(645,196,o),
(636,185,cs),
(573,102,o),
(454,45,o),
(363,45,cs),
(221,45,o),
(123,121,o),
(123,295,cs),
(123,504,o),
(255,649,o),
(404,649,cs),
(425,649,o),
(530,648,o),
(576,578,cs),
(580,572,o),
(585,569,o),
(591,569,cs),
(609,569,o),
(631,598,o),
(631,617,cs),
(631,622,o),
(630,625,o),
(628,628,cs),
(562,709,o),
(445,713,o),
(408,713,cs),
(206,713,o),
(51,528,o),
(51,293,cs),
(51,73,o),
(182,-18,o),
(357,-18,cs),
(561,-18,o),
(674,150,o),
(674,184,cs)
);
}
);
width = 703;
}
);
note = cid00036;
unicode = 67;
}
{
glyphname = D;
layers = (
{
hints = (
{
horizontal = 1;
place = (-8,48);
type = Stem;
},
{
horizontal = 1;
place = (651,61);
type = Stem;
},
{
place = (106,70);
type = Stem;
},
{
place = (602,71);
type = Stem;
}
);
layerId = "481A290F-76EE-4968-957F-52614F4635C1";
shapes = (
{
closed = 1;
nodes = (
(183,-8,ls),
(244,-7,o),
(306,-4,o),
(374,8,cs),
(520,34,o),
(673,140,o),
(673,357,cs),
(673,573,o),
(502,712,o),
(303,712,cs),
(234,712,o),
(112,697,o),
(73,681,cs),
(68,679,o),
(66,674,o),
(66,669,cs),
(66,654,o),
(87,630,o),
(106,626,c),
(106,34,l),
(64,34,o),
(51,27,o),
(51,15,cs),
(51,6,o),
(61,-8,o),
(169,-8,cs)
);
},
{
closed = 1;
nodes = (
(176,635,l),
(216,646,o),
(254,651,o),
(298,651,cs),
(445,651,o),
(602,544,o),
(602,358,cs),
(602,180,o),
(470,45,o),
(176,40,c)
);
}
);
width = 728;
}
);
note = cid00037;
unicode = 68;
}
{
glyphname = F;
layers = (
{
hints = (
{
horizontal = 1;
place = (350,59);
type = Stem;
},
{
horizontal = 1;
place = (635,60);
type = Stem;
},
{
place = (106,70);
type = Stem;
}
);
layerId = "481A290F-76EE-4968-957F-52614F4635C1";
shapes = (
{
closed = 1;
nodes = (
(489,357,ls),
(498,357,o),
(502,364,o),
(502,374,cs),
(502,394,o),
(486,424,o),
(468,424,cs),
(456,424,o),
(415,418,o),
(385,416,cs),
(176,403,l),
(176,626,l),
(441,644,ls),
(460,645,o),
(482,645,o),
(502,645,cs),
(544,645,ls),
(553,645,o),
(557,652,o),
(557,662,cs),
(557,682,o),
(541,712,o),
(523,712,cs),
(511,712,o),
(470,706,o),
(440,704,cs),
(169,686,l),
(167,687,o),
(134,699,o),
(116,699,cs),
(111,699,o),
(102,698,o),
(102,685,cs),
(102,680,o),
(103,673,o),
(104,661,cs),
(106,645,o),
(106,625,o),
(106,604,cs),
(106,402,l),
(100,402,o),
(94,403,o),
(89,404,cs),
(87,404,ls),
(81,404,o),
(79,400,o),
(79,393,cs),
(79,378,o),
(91,352,o),
(106,344,c),
(106,108,ls),
(106,84,o),
(104,35,o),
(104,19,cs),
(104,2,o),
(136,-9,o),
(158,-9,cs),
(170,-9,o),
(179,-6,o),
(179,1,cs),
(179,24,o),
(176,82,o),
(176,107,cs),
(176,344,l),
(386,356,ls),
(405,357,o),
(427,357,o),
(447,357,cs)
);
}
);
width = 582;
}
);
note = cid00039;
unicode = 70;
}
{
glyphname = H;
layers = (
{
hints = (
{
horizontal = 1;
place = (363,44);
type = Stem;
},
{
place = (106,70);
type = Stem;
},
{
place = (542,70);
type = Stem;
},
{
horizontal = 1;
place = (339,68);
type = Stem;
}
);
layerId = "481A290F-76EE-4968-957F-52614F4635C1";
shapes = (
{
closed = 1;
nodes = (
(542,107,ls),
(542,72,o),
(540,34,o),
(540,18,cs),
(540,1,o),
(572,-10,o),
(594,-10,cs),
(606,-10,o),
(615,-7,o),
(615,0,cs),
(615,23,o),
(612,65,o),
(612,106,cs),
(612,588,ls),
(612,623,o),
(614,661,o),
(614,677,cs),
(614,694,o),
(582,705,o),
(560,705,cs),
(548,705,o),
(539,702,o),
(539,695,cs),
(539,672,o),
(542,630,o),
(542,589,cs),
(542,406,l),
(536,420,o),
(528,430,o),
(518,430,cs),
(515,430,l),
(499,427,o),
(463,424,o),
(432,422,cs),
(181,407,l),
(176,407,l),
(176,588,ls),
(176,623,o),
(178,661,o),
(178,677,cs),
(178,694,o),
(146,705,o),
(124,705,cs),
(112,705,o),
(103,702,o),
(103,695,cs),
(103,672,o),
(106,630,o),
(106,589,cs),
(106,407,l),
(93,407,o),
(83,408,o),
(78,408,cs),
(77,408,ls),
(69,408,o),
(66,401,o),
(66,392,cs),
(66,371,o),
(81,339,o),
(98,339,cs),
(99,339,ls),
(101,339,o),
(103,339,o),
(106,340,c),
(106,106,ls),
(106,71,o),
(104,33,o),
(104,17,cs),
(104,0,o),
(136,-11,o),
(158,-11,cs),
(170,-11,o),
(179,-8,o),
(179,-1,cs),
(179,22,o),
(176,64,o),
(176,105,cs),
(176,348,l),
(182,348,l),
(433,363,ls),
(440,363,o),
(448,364,o),
(456,364,cs),
(488,364,o),
(522,361,o),
(536,361,cs),
(538,361,o),
(540,362,o),
(542,362,c)
);
}
);
width = 700;
}
);
note = cid00041;
unicode = 72;
}
{
color = 4;
glyphname = I;
kernLeft = I;
kernRight = I;
layers = (
{
anchors = (
{
name = top;
pos = (184,652);
}
);
hints = (
{
horizontal = 1;
place = (-10,715);
type = Stem;
},
{
place = (115,74);
type = Stem;
}
);
layerId = "481A290F-76EE-4968-957F-52614F4635C1";
shapes = (
{
closed = 1;
nodes = (
(150,127,ls),
(150,92,o),
(148,54,o),
(148,38,cs),
(148,21,o),
(182,10,o),
(205,10,cs),
(218,10,o),
(227,13,o),
(227,20,cs),
(227,43,o),
(224,85,o),
(224,126,cs),
(224,568,ls),
(224,603,o),
(226,641,o),
(226,657,cs),
(226,674,o),
(192,685,o),
(169,685,cs),
(156,685,o),
(147,682,o),
(147,675,cs),
(147,652,o),
(150,610,o),
(150,569,cs)
);
},
{
closed = 1;
nodes = (
(258,711,o),
(227,708,o),
(187,706,cs),
(159,705,o),
(107,704,o),
(87,704,cs),
(75,704,o),
(72,693,o),
(72,680,cs),
(73,662,o),
(95,646,o),
(107,647,cs),
(134,649,o),
(174,649,o),
(201,651,cs),
(227,653,o),
(258,653,o),
(289,654,cs),
(300,654,o),
(304,665,o),
(303,678,cs),
(303,696,o),
(286,711,o),
(275,711,cs)
);
},
{
closed = 1;
nodes = (
(260,58,o),
(227,55,o),
(187,53,cs),
(159,52,o),
(105,51,o),
(85,51,cs),
(73,51,o),
(70,40,o),
(70,27,cs),
(71,9,o),
(93,-7,o),
(105,-6,cs),
(132,-4,o),
(174,-4,o),
(201,-2,cs),
(227,0,o),
(260,0,o),
(291,1,cs),
(302,1,o),
(306,12,o),
(305,25,cs),
(305,43,o),
(288,58,o),
(277,58,cs)
);
}
);
width = 375;
}
);
note = cid00042;
unicode = 73;
}
{
glyphname = J;
layers = (
{
hints = (
{
horizontal = 1;
place = (-17,66);
type = Stem;
},
{
place = (313,71);
type = Stem;
}
);
layerId = "481A290F-76EE-4968-957F-52614F4635C1";
shapes = (
{
closed = 1;
nodes = (
(313,180,ls),
(313,75,o),
(260,49,o),
(205,49,cs),
(187,49,o),
(105,52,o),
(81,162,cs),
(80,169,o),
(75,173,o),
(68,173,cs),
(49,173,o),
(16,147,o),
(16,122,cs),
(16,100,o),
(70,-17,o),
(209,-17,cs),
(299,-17,o),
(384,25,o),
(384,177,cs),
(384,588,ls),
(384,623,o),
(386,661,o),
(386,677,cs),
(386,694,o),
(353,705,o),
(331,705,cs),
(319,705,o),
(310,702,o),
(310,695,cs),
(310,672,o),
(313,630,o),
(313,589,cs)
);
}
);
width = 492;
}
);
note = cid00043;
unicode = 74;
}
{
glyphname = K;
layers = (
{
hints = (
{
horizontal = 1;
place = (-11,716);
type = Stem;
},
{
place = (106,70);
type = Stem;
}
);
layerId = "481A290F-76EE-4968-957F-52614F4635C1";
shapes = (
{
closed = 1;
nodes = (
(106,112,ls),
(106,73,o),
(104,33,o),
(104,17,cs),
(104,0,o),
(136,-11,o),
(158,-11,cs),
(170,-11,o),
(179,-8,o),
(179,-1,cs),
(179,22,o),
(176,66,o),
(176,111,cs),
(176,333,l),
(206,357,l),
(292,258,o),
(422,120,o),
(493,45,cs),
(509,28,o),
(519,15,o),
(527,4,cs),
(534,-6,o),
(546,-9,o),
(560,-9,cs),
(589,-9,o),
(622,6,o),
(622,20,cs),
(622,22,o),
(621,25,o),
(618,27,cs),
(489,133,o),
(258,396,o),
(256,398,c),
(344,469,o),
(425,538,o),
(486,594,cs),
(519,624,o),
(546,645,o),
(566,662,cs),
(569,664,o),
(570,667,o),
(570,670,cs),
(570,685,o),
(534,704,o),
(510,704,cs),
(503,704,o),
(497,703,o),
(494,699,cs),
(481,684,o),
(344,543,o),
(176,412,c),
(176,588,ls),
(176,623,o),
(178,661,o),
(178,677,cs),
(178,694,o),
(146,705,o),
(124,705,cs),
(112,705,o),
(103,702,o),
(103,695,cs),
(103,672,o),
(106,630,o),
(106,589,cs)
);
}
);
width = 630;
}
);
note = cid00044;
unicode = 75;
}
{
glyphname = L;
layers = (
{
hints = (
{
horizontal = 1;
place = (1,63);
type = Stem;
},
{
place = (106,72);
type = Stem;
}
);
layerId = "481A290F-76EE-4968-957F-52614F4635C1";
shapes = (
{
closed = 1;
nodes = (
(517,-5,ls),
(525,-5,o),
(528,2,o),
(528,12,cs),
(528,32,o),
(513,65,o),
(496,65,cs),
(495,65,ls),
(477,64,o),
(443,64,o),
(412,64,cs),
(355,64,o),
(240,62,o),
(178,59,c),
(178,588,ls),
(178,623,o),
(180,661,o),
(180,677,cs),
(180,694,o),
(147,705,o),
(124,705,cs),
(112,705,o),
(103,702,o),
(103,695,cs),
(103,672,o),
(106,630,o),
(106,589,cs),
(106,70,ls),
(106,54,o),
(99,46,o),
(99,37,cs),
(99,22,o),
(122,-9,o),
(139,-9,cs),
(142,-9,l),
(167,-2,o),
(259,1,o),
(372,1,cs),
(413,1,ls),
(450,1,o),
(498,-3,o),
(516,-5,cs)
);
}
);
width = 547;
}
);
note = cid00045;
unicode = 76;
}
{
glyphname = M;
layers = (
{
anchors = (
{
name = top;
pos = (414,653);
}
);
hints = (
{
horizontal = 1;
place = (-7,719);
type = Stem;
},
{
place = (42,774);
type = Stem;
},
{
place = (126,59);
type = Stem;
}
);
layerId = "481A290F-76EE-4968-957F-52614F4635C1";
shapes = (
{
closed = 1;
nodes = (
(731,635,ls),
(731,652,o),
(736,664,o),
(736,677,cs),
(736,692,o),
(688,712,o),
(667,712,cs),
(644,712,o),
(640,691,o),
(631,673,cs),
(562,530,o),
(479,341,o),
(416,186,c),
(363,303,o),
(283,506,o),
(221,667,cs),
(207,702,o),
(204,703,o),
(185,703,cs),
(160,703,o),
(129,689,o),
(126,673,cs),
(125,670,o),
(125,666,o),
(125,663,cs),
(125,656,o),
(126,649,o),
(126,639,cs),
(126,635,o),
(77,130,o),
(42,10,c),
(42,8,ls),
(42,-2,o),
(58,-7,o),
(77,-7,cs),
(99,-7,o),
(123,0,o),
(124,12,cs),
(126,38,o),
(127,60,o),
(130,84,cs),
(148,227,o),
(171,430,o),
(185,594,c),
(236,459,o),
(317,261,o),
(356,168,cs),
(360,160,o),
(370,131,o),
(377,110,cs),
(380,99,o),
(393,95,o),
(408,95,cs),
(431,95,o),
(459,107,o),
(460,124,cs),
(460,143,o),
(570,396,o),
(671,604,c),
(687,442,o),
(712,205,o),
(726,85,cs),
(729,55,o),
(729,39,o),
(731,11,cs),
(732,-1,o),
(749,-6,o),
(767,-6,cs),
(790,-6,o),
(816,2,o),
(816,15,cs),
(816,17,o),
(815,18,o),
(815,19,c),
(810,35,o),
(800,70,o),
(797,93,cs),
(779,219,o),
(748,473,o),
(731,628,c)
);
}
);
width = 855;
}
);
note = cid00046;
unicode = 77;
}
{
glyphname = N;
layers = (
{
anchors = (
{
name = top;
pos = (381,653);
}
);
hints = (
{
horizontal = 1;
place = (-13,721);
type = Stem;
},
{
place = (106,69);
type = Stem;
},
{
place = (566,69);
type = Stem;
}
);
layerId = "481A290F-76EE-4968-957F-52614F4635C1";
shapes = (
{
closed = 1;
nodes = (
(566,104,l),
(453,260,o),
(316,472,o),
(191,682,cs),
(184,693,o),
(180,705,o),
(168,707,cs),
(165,708,o),
(163,708,o),
(159,708,cs),
(139,708,o),
(106,698,o),
(100,683,c),
(99,682,o),
(99,680,o),
(99,678,cs),
(99,668,o),
(106,653,o),
(106,641,cs),
(106,106,ls),
(106,71,o),
(104,33,o),
(104,17,cs),
(104,0,o),
(136,-11,o),
(158,-11,cs),
(169,-11,o),
(178,-8,o),
(178,-1,cs),
(178,22,o),
(175,64,o),
(175,105,cs),
(175,579,l),
(275,409,o),
(421,189,o),
(537,26,cs),
(547,11,o),
(559,-13,o),
(580,-13,cs),
(604,-13,o),
(639,12,o),
(639,32,cs),
(639,44,o),
(635,75,o),
(635,87,cs),
(635,588,ls),
(635,623,o),
(637,661,o),
(637,677,cs),
(637,694,o),
(605,705,o),
(583,705,cs),
(571,705,o),
(562,702,o),
(562,695,cs),
(562,672,o),
(566,630,o),
(566,589,cs)
);
}
);
width = 738;
}
);
note = cid00047;
unicode = 78;
}
{
glyphname = Q;
layers = (
{
hints = (
{
horizontal = 1;
place = (-18,63);
type = Stem;
},
{
horizontal = 1;
place = (654,59);
type = Stem;
},
{
place = (53,70);
type = Stem;
},
{
place = (623,72);
type = Stem;
}
);
layerId = "481A290F-76EE-4968-957F-52614F4635C1";
shapes = (
{
closed = 1;
nodes = (
(577,-56,o),
(594,-71,o),
(668,-71,cs),
(690,-71,o),
(701,-68,o),
(701,-62,cs),
(701,-55,o),
(684,-43,o),
(650,-29,cs),
(629,-21,o),
(589,9,o),
(558,40,c),
(651,108,o),
(695,229,o),
(695,363,cs),
(695,565,o),
(583,713,o),
(405,713,cs),
(326,713,o),
(270,687,o),
(223,646,c),
(217,652,o),
(208,658,o),
(197,658,cs),
(157,658,o),
(53,516,o),
(53,337,cs),
(53,133,o),
(151,-18,o),
(366,-18,cs),
(420,-18,o),
(466,-8,o),
(505,9,c)
);
},
{
closed = 1;
nodes = (
(451,58,l),
(424,50,o),
(393,45,o),
(358,45,cs),
(192,45,o),
(123,179,o),
(123,339,cs),
(123,537,o),
(275,654,o),
(399,654,cs),
(553,654,o),
(623,508,o),
(623,371,cs),
(623,255,o),
(595,144,o),
(511,87,c),
(474,124,o),
(438,161,o),
(428,173,cs),
(416,187,o),
(414,198,o),
(391,202,c),
(388,202,ls),
(369,202,o),
(330,180,o),
(330,167,cs),
(330,166,o),
(331,165,o),
(331,164,c),
(336,154,o),
(344,156,o),
(366,136,cs)
);
}
);
width = 745;
}
);
note = cid00050;
unicode = 81;
}
{
glyphname = T;
layers = (
{
hints = (
{
horizontal = 1;
place = (643,41);
type = Stem;
},
{
place = (251,72);
type = Stem;
}
);
layerId = "481A290F-76EE-4968-957F-52614F4635C1";
shapes = (
{
closed = 1;
nodes = (
(251,107,ls),
(251,72,o),
(249,34,o),
(249,18,cs),
(249,0,o),
(281,-11,o),
(303,-11,cs),
(316,-11,o),
(326,-8,o),
(326,0,cs),
(326,23,o),
(323,65,o),
(323,106,cs),
(322,636,l),
(448,643,ls),
(455,643,o),
(463,644,o),
(471,644,cs),
(503,644,o),
(537,641,o),
(551,641,cs),
(560,641,o),
(563,649,o),
(563,659,cs),
(563,679,o),
(549,710,o),
(533,710,cs),
(530,710,l),
(514,707,o),
(478,704,o),
(447,702,cs),
(125,684,ls),
(115,684,o),
(104,683,o),
(93,683,cs),
(62,683,o),
(32,685,o),
(22,685,cs),
(13,685,o),
(9,677,o),
(9,667,cs),
(9,647,o),
(25,616,o),
(42,616,cs),
(43,616,ls),
(57,617,o),
(92,623,o),
(126,625,cs),
(252,632,l)
);
}
);
width = 577;
}
);
note = cid00053;
unicode = 84;
}
{
glyphname = W;
layers = (
{
hints = (
{
horizontal = 1;
place = (-18,729);
type = Stem;
},
{
place = (9,865);
type = Stem;
},
{
place = (390,91);
type = Stem;
}
);
layerId = "481A290F-76EE-4968-957F-52614F4635C1";
shapes = (
{
closed = 1;
nodes = (
(92,685,ls),
(89,698,o),
(66,705,o),
(44,705,cs),
(25,705,o),
(9,700,o),
(9,689,cs),
(9,687,o),
(9,686,o),
(10,684,cs),
(47,597,o),
(131,279,o),
(187,46,cs),
(197,5,o),
(225,-17,o),
(247,-17,cs),
(260,-17,o),
(271,-9,o),
(276,6,cs),
(285,35,o),
(289,58,o),
(295,78,cs),
(341,240,o),
(393,434,o),
(439,581,c),
(483,423,o),
(531,225,o),
(573,46,cs),
(583,3,o),
(613,-18,o),
(636,-18,cs),
(650,-18,o),
(662,-10,o),
(666,7,cs),
(672,32,o),
(677,58,o),
(683,79,cs),
(798,472,o),
(843,599,o),
(873,668,cs),
(874,670,o),
(874,671,o),
(874,673,cs),
(874,692,o),
(837,711,o),
(814,711,cs),
(805,711,o),
(798,708,o),
(796,701,cs),
(786,664,o),
(775,622,o),
(765,589,cs),
(723,453,o),
(678,294,o),
(625,99,c),
(591,255,o),
(540,458,o),
(489,632,cs),
(486,644,o),
(484,649,o),
(481,667,cs),
(479,681,o),
(451,690,o),
(427,690,cs),
(408,690,o),
(390,684,o),
(390,670,cs),
(389,650,o),
(384,631,o),
(378,611,cs),
(336,467,o),
(282,293,o),
(236,100,c),
(196,290,o),
(157,460,o),
(106,632,cs)
);
}
);
width = 880;
}
);
note = cid00056;
unicode = 87;
}
{
glyphname = Y;
layers = (
{
anchors = (
{
name = top;
pos = (296,653);
}
);
hints = (
{
horizontal = 1;
place = (-9,718);
type = Stem;
},
{
place = (258,72);
type = Stem;
}
);
layerId = "481A290F-76EE-4968-957F-52614F4635C1";
shapes = (
{
closed = 1;
nodes = (
(258,108,ls),
(258,84,o),
(256,35,o),
(256,19,cs),
(256,2,o),
(289,-9,o),
(312,-9,cs),
(324,-9,o),
(333,-6,o),
(333,1,cs),
(333,24,o),
(330,82,o),
(330,107,cs),
(330,293,l),
(361,348,o),
(503,585,o),
(580,678,c),
(581,680,o),
(582,681,o),
(582,683,cs),
(582,695,o),
(551,709,o),
(527,709,cs),
(517,709,o),
(507,706,o),
(503,699,cs),
(492,679,o),
(479,658,o),
(462,631,cs),
(401,534,o),
(352,456,o),
(294,360,c),
(241,453,o),
(183,545,o),
(128,633,cs),
(117,651,o),
(104,677,o),
(94,695,cs),
(91,699,o),
(81,701,o),
(69,701,cs),
(46,701,o),
(15,694,o),
(15,679,cs),
(15,676,o),
(17,673,o),
(20,669,cs),
(57,624,o),
(189,420,o),
(258,292,c)
);
}
);
width = 600;
}
);
note = cid00058;
unicode = 89;
}
{
glyphname = bracketleft;
layers = (
{
hints = (
{
horizontal = 1;
place = (-147,55);
type = Stem;
},
{
horizontal = 1;
place = (711,53);
type = Stem;
},
{
place = (158,61);
type = Stem;
}
);
layerId = "481A290F-76EE-4968-957F-52614F4635C1";
shapes = (
{
closed = 1;
nodes = (
(313,-162,ls),
(323,-162,o),
(327,-154,o),
(327,-145,cs),
(327,-129,o),
(315,-107,o),
(298,-107,cs),
(272,-107,o),
(252,-109,o),
(219,-110,c),
(219,696,l),
(315,696,ls),
(325,696,o),
(330,704,o),
(330,714,cs),
(330,730,o),
(318,751,o),
(301,751,cs),
(300,751,ls),
(287,750,o),
(230,749,o),
(196,749,cs),
(161,749,o),
(153,740,o),
(153,722,cs),
(153,708,o),
(158,689,o),
(158,663,cs),
(158,-66,ls),
(158,-82,o),
(155,-120,o),
(155,-129,cs),
(155,-144,o),
(172,-166,o),
(190,-166,cs),
(191,-166,o),
(193,-165,o),
(195,-165,c),
(205,-162,o),
(215,-162,o),
(226,-162,cs)
);
}
);
width = 350;
}
);
note = cid00060;
unicode = 91;
}
{
glyphname = asciicircum;
layers = (
{
hints = (
{
horizontal = 1;
place = (272,445);
type = Stem;
},
{
place = (77,453);
type = Stem;
}
);
layerId = "481A290F-76EE-4968-957F-52614F4635C1";
shapes = (
{
closed = 1;
nodes = (
(438,331,ls),
(446,315,o),
(454,289,o),
(459,271,cs),
(461,263,o),
(475,259,o),
(490,259,cs),
(509,259,o),
(530,265,o),
(530,276,cs),
(530,277,o),
(530,278,o),
(529,280,cs),
(517,302,o),
(505,327,o),
(497,344,cs),
(339,671,l),
(331,685,o),
(327,702,o),
(306,702,cs),
(301,702,o),
(297,701,o),
(291,700,cs),
(263,692,o),
(268,675,o),
(260,658,cs),
(110,347,ls),
(104,334,o),
(91,309,o),
(78,287,cs),
(77,285,o),
(77,284,o),
(77,282,cs),
(77,269,o),
(105,257,o),
(125,257,cs),
(134,257,o),
(141,259,o),
(143,265,cs),
(150,286,o),
(161,316,o),
(168,331,cs),
(303,615,l)
);
}
);
width = 600;
}
);
note = cid00063;
unicode = 94;
}
{
glyphname = grave;
layers = (
{
hints = (
{
horizontal = 1;
place = (564,168);
type = Stem;
},
{
place = (85,178);
type = Stem;
}
);
layerId = "481A290F-76EE-4968-957F-52614F4635C1";
shapes = (
{
closed = 1;
nodes = (
(213,556,ls),
(218,551,o),
(224,549,o),
(230,549,cs),
(247,549,o),
(263,568,o),
(263,585,cs),
(263,591,o),
(261,597,o),
(256,602,cs),
(153,708,ls),
(147,715,o),
(139,717,o),
(131,717,cs),
(109,717,o),
(85,696,o),
(85,677,cs),
(85,671,o),
(87,665,o),
(93,660,cs)
);
}
);
width = 350;
}
);
note = cid00065;
unicode = 96;
}
{
glyphname = b;
layers = (
{
hints = (
{
horizontal = 1;
place = (-17,58);
type = Stem;
},
{
horizontal = 1;
place = (426,60);
type = Stem;
},
{
place = (92,66);
type = Stem;
},
{
place = (449,68);
type = Stem;
}
);
layerId = "481A290F-76EE-4968-957F-52614F4635C1";
shapes = (
{
closed = 1;
nodes = (
(155,44,l),
(178,8,o),
(220,-17,o),
(272,-17,cs),
(407,-17,o),
(517,109,o),
(517,278,cs),
(517,414,o),
(446,486,o),
(346,486,cs),
(273,486,o),
(211,459,o),
(158,369,c),
(158,592,ls),
(158,627,o),
(162,665,o),
(162,681,cs),
(162,698,o),
(130,709,o),
(109,709,cs),
(97,709,o),
(89,706,o),
(89,699,cs),
(89,676,o),
(92,634,o),
(92,593,cs),
(92,106,ls),
(92,71,o),
(90,31,o),
(90,15,cs),
(90,0,o),
(97,-5,o),
(107,-5,cs),
(124,-5,o),
(149,13,o),
(152,26,cs)
);
},
{
closed = 1;
nodes = (
(156,144,o),
(157,220,o),
(164,253,cs),
(186,355,o),
(261,426,o),
(346,426,cs),
(397,426,o),
(449,380,o),
(449,276,cs),
(449,126,o),
(347,41,o),
(275,41,cs),
(241,41,o),
(210,50,o),
(184,87,cs),
(177,98,o),
(170,103,o),
(163,103,cs),
(161,103,o),
(158,102,o),
(156,101,c)
);
}
);
width = 573;
}
);
note = cid00067;
unicode = 98;
}
{
glyphname = d;
layers = (
{
hints = (
{
horizontal = 1;
place = (-18,60);
type = Stem;
},
{
horizontal = 1;
place = (428,58);
type = Stem;
},
{
place = (56,68);
type = Stem;
},
{
place = (417,66);
type = Stem;
}
);
layerId = "481A290F-76EE-4968-957F-52614F4635C1";
shapes = (
{
closed = 1;
nodes = (
(417,434,l),
(396,465,o),
(355,486,o),
(305,486,cs),
(175,486,o),
(56,344,o),
(56,186,cs),
(56,55,o),
(123,-18,o),
(220,-18,cs),
(298,-18,o),
(362,22,o),
(420,118,c),
(421,86,o),
(443,-12,o),
(475,-12,cs),
(496,-12,o),
(519,16,o),
(519,32,cs),
(519,35,o),
(518,37,o),
(517,39,c),
(495,66,o),
(483,127,o),
(483,185,cs),
(483,592,ls),
(483,627,o),
(485,665,o),
(485,681,cs),
(485,698,o),
(454,709,o),
(433,709,cs),
(422,709,o),
(413,706,o),
(413,699,cs),
(413,676,o),
(417,634,o),
(417,593,cs)
);
},
{
closed = 1;
nodes = (
(417,276,ls),
(417,149,o),
(303,42,o),
(220,42,cs),
(163,42,o),
(124,91,o),
(124,189,cs),
(124,305,o),
(207,428,o),
(306,428,cs),
(341,428,o),
(378,410,o),
(398,382,cs),
(401,378,o),
(404,377,o),
(407,377,cs),
(410,377,o),
(414,378,o),
(417,381,c)
);
}
);
width = 575;
}
);
note = cid00069;
unicode = 100;
}
{
glyphname = f;
layers = (
{
hints = (
{
horizontal = 1;
place = (423,53);
type = Stem;
},
{
horizontal = 1;
place = (647,61);
type = Stem;
},
{
place = (127,68);
type = Stem;
},
{
horizontal = 1;
place = (428,58);
type = Stem;
}
);
layerId = "481A290F-76EE-4968-957F-52614F4635C1";
shapes = (
{
closed = 1;
nodes = (
(127,116,ls),
(127,81,o),
(125,33,o),
(125,17,cs),
(125,0,o),
(157,-11,o),
(178,-11,cs),
(190,-11,o),
(198,-8,o),
(198,-1,cs),
(198,22,o),
(195,64,o),
(195,105,cs),
(195,426,l),
(227,427,ls),
(253,428,o),
(309,428,o),
(323,428,cs),
(331,428,o),
(335,434,o),
(335,443,cs),
(335,460,o),
(320,486,o),
(303,486,cs),
(302,486,ls),
(288,485,o),
(240,481,o),
(216,480,cs),
(195,479,l),
(195,585,ls),
(195,627,o),
(218,647,o),
(244,647,cs),
(265,647,o),
(294,639,o),
(309,611,cs),
(314,603,o),
(319,600,o),
(324,600,cs),
(339,600,o),
(355,626,o),
(355,646,cs),
(355,667,o),
(318,708,o),
(245,708,cs),
(186,708,o),
(127,666,o),
(127,589,cs),
(127,477,l),
(103,476,l),
(29,476,ls),
(21,476,o),
(17,470,o),
(17,462,cs),
(17,445,o),
(33,419,o),
(49,419,cs),
(50,419,ls),
(72,420,o),
(85,423,o),
(114,423,cs),
(127,423,l)
);
}
);
width = 370;
}
);
note = cid00071;
unicode = 102;
}
{
glyphname = h;
layers = (
{
hints = (
{
horizontal = 1;
place = (423,62);
type = Stem;
},
{
place = (92,66);
type = Stem;
},
{
place = (430,66);
type = Stem;
}
);
layerId = "481A290F-76EE-4968-957F-52614F4635C1";
shapes = (
{
closed = 1;
nodes = (
(428,16,ls),
(428,0,o),
(458,-11,o),
(480,-11,cs),
(491,-11,o),
(499,-8,o),
(499,-1,cs),
(499,22,o),
(496,93,o),
(496,105,cs),
(496,297,ls),
(496,379,o),
(477,485,o),
(348,485,cs),
(275,485,o),
(201,446,o),
(158,376,c),
(158,580,ls),
(158,604,o),
(160,663,o),
(160,679,cs),
(160,696,o),
(129,707,o),
(108,707,cs),
(97,707,o),
(89,704,o),
(89,697,cs),
(89,674,o),
(92,609,o),
(92,590,cs),
(92,115,ls),
(92,101,o),
(90,33,o),
(90,17,cs),
(90,0,o),
(121,-11,o),
(142,-11,cs),
(153,-11,o),
(161,-8,o),
(161,-1,cs),
(160,25,o),
(158,57,o),
(158,89,cs),
(158,105,ls),
(159,152,o),
(159,237,o),
(174,287,cs),
(204,387,o),
(279,423,o),
(348,423,cs),
(414,423,o),
(430,371,o),
(430,293,cs),
(430,115,ls),
(430,92,o),
(429,33,o),
(428,17,cs)
);
}
);
width = 588;
}
);
note = cid00073;
unicode = 104;
}
{
glyphname = k;
layers = (
{
hints = (
{
horizontal = 1;
place = (-14,721);
type = Stem;
},
{
place = (92,66);
type = Stem;
}
);
layerId = "481A290F-76EE-4968-957F-52614F4635C1";
shapes = (
{
closed = 1;
nodes = (
(92,106,ls),
(92,92,o),
(90,34,o),
(90,18,cs),
(90,1,o),
(122,-10,o),
(143,-10,cs),
(155,-10,o),
(163,-7,o),
(163,0,cs),
(163,23,o),
(158,94,o),
(158,106,cs),
(158,243,l),
(182,258,l),
(241,199,o),
(338,90,o),
(392,34,cs),
(406,19,o),
(427,2,o),
(444,-11,cs),
(446,-13,o),
(450,-14,o),
(454,-14,cs),
(475,-14,o),
(510,9,o),
(510,23,cs),
(510,26,o),
(509,28,o),
(505,30,cs),
(484,39,o),
(463,55,o),
(448,69,cs),
(385,132,o),
(288,236,o),
(231,293,c),
(383,399,ls),
(400,411,o),
(429,426,o),
(457,445,cs),
(460,447,o),
(462,450,o),
(462,452,cs),
(462,466,o),
(425,484,o),
(402,484,cs),
(395,484,o),
(389,483,o),
(386,479,cs),
(378,471,o),
(363,456,o),
(346,444,cs),
(158,314,l),
(158,590,ls),
(158,614,o),
(162,663,o),
(162,679,cs),
(162,696,o),
(130,707,o),
(109,707,cs),
(97,707,o),
(89,704,o),
(89,697,cs),
(89,674,o),
(92,609,o),
(92,590,cs)
);
}
);
width = 510;
}
);
note = cid00076;
unicode = 107;
}
{
glyphname = l;
layers = (
{
anchors = (
{
name = bottom;
pos = (138,0);
}
);
hints = (
{
horizontal = 1;
place = (-11,718);
type = Stem;
},
{
place = (97,69);
type = Stem;
}
);
layerId = "481A290F-76EE-4968-957F-52614F4635C1";
shapes = (
{
closed = 1;
nodes = (
(97,105,ls),
(97,91,o),
(95,33,o),
(95,17,cs),
(95,0,o),
(127,-11,o),
(149,-11,cs),
(160,-11,o),
(169,-8,o),
(169,-1,cs),
(169,22,o),
(166,93,o),
(166,105,cs),
(166,590,ls),
(166,614,o),
(168,663,o),
(168,679,cs),
(168,696,o),
(136,707,o),
(114,707,cs),
(103,707,o),
(94,704,o),
(94,697,cs),
(94,674,o),
(97,609,o),
(97,590,cs)
);
}
);
width = 263;
}
);
note = cid00077;
unicode = 108;
}
{
glyphname = q;
layers = (
{
hints = (
{
horizontal = 1;
place = (-18,60);
type = Stem;
},
{
horizontal = 1;
place = (428,58);
type = Stem;
},
{
place = (55,68);
type = Stem;
},
{
place = (418,66);
type = Stem;
}
);
layerId = "481A290F-76EE-4968-957F-52614F4635C1";
shapes = (
{
closed = 1;
nodes = (
(418,-59,ls),
(418,-94,o),
(414,-132,o),
(414,-148,cs),
(414,-165,o),
(446,-176,o),
(467,-176,cs),
(479,-176,o),
(487,-173,o),
(487,-166,cs),
(487,-143,o),
(484,-101,o),
(484,-60,cs),
(484,368,ls),
(484,403,o),
(486,441,o),
(486,457,cs),
(486,474,o),
(455,485,o),
(434,485,cs),
(423,485,o),
(414,482,o),
(414,475,cs),
(414,464,o),
(418,453,o),
(418,439,cs),
(418,434,l),
(397,465,o),
(354,486,o),
(304,486,cs),
(174,486,o),
(55,344,o),
(55,186,cs),
(55,55,o),
(122,-18,o),
(219,-18,cs),
(297,-18,o),
(369,22,o),
(419,112,c)
);
},
{
closed = 1;
nodes = (
(416,276,ls),
(416,149,o),
(302,42,o),
(219,42,cs),
(162,42,o),
(123,91,o),
(123,189,cs),
(123,305,o),
(206,428,o),
(305,428,cs),
(340,428,o),
(377,410,o),
(397,382,cs),
(400,378,o),
(403,377,o),
(406,377,cs),
(409,377,o),
(413,378,o),
(416,381,c)
);
}
);
width = 576;
}
);
note = cid00082;
unicode = 113;
}
{
glyphname = r;
layers = (
{
hints = (
{
horizontal = 1;
place = (421,65);
type = Stem;
},
{
place = (94,66);
type = Stem;
},
{
place = (91,73);
type = Stem;
}
);
layerId = "481A290F-76EE-4968-957F-52614F4635C1";
shapes = (
{
closed = 1;
nodes = (
(94,106,ls),
(94,92,o),
(92,34,o),
(92,18,cs),
(92,1,o),
(124,-10,o),
(145,-10,cs),
(157,-10,o),
(165,-7,o),
(165,0,cs),
(165,23,o),
(160,65,o),
(160,106,cs),
(160,220,o),
(160,270,o),
(174,315,cs),
(197,387,o),
(248,421,o),
(304,421,cs),
(324,421,o),
(359,409,o),
(372,384,cs),
(376,377,o),
(381,374,o),
(386,374,cs),
(403,374,o),
(422,405,o),
(422,426,cs),
(422,449,o),
(366,486,o),
(307,486,cs),
(238,486,o),
(187,449,o),
(161,405,c),
(161,427,o),
(164,442,o),
(164,456,cs),
(164,473,o),
(132,484,o),
(111,484,cs),
(99,484,o),
(91,481,o),
(91,474,cs),
(91,451,o),
(94,386,o),
(94,367,cs)
);
}
);
width = 430;
}
);
note = cid00083;
unicode = 114;
}
{
glyphname = s;
layers = (
{
hints = (
{
horizontal = 1;
place = (-18,58);
type = Stem;
},
{
horizontal = 1;
place = (431,55);
type = Stem;
},
{
place = (83,65);
type = Stem;
},
{
place = (386,66);
type = Stem;
}
);
layerId = "481A290F-76EE-4968-957F-52614F4635C1";
shapes = (
{
closed = 1;
nodes = (
(295,218,ls),
(368,200,o),
(386,173,o),
(386,126,cs),
(386,80,o),
(341,40,o),
(260,40,cs),
(152,40,o),
(125,86,o),
(109,126,cs),
(107,131,o),
(103,133,o),
(99,133,cs),
(84,133,o),
(59,105,o),
(59,85,cs),
(59,72,o),
(106,-18,o),
(260,-18,cs),
(378,-18,o),
(452,48,o),
(452,128,cs),
(452,211,o),
(399,253,o),
(312,273,cs),
(216,296,ls),
(161,309,o),
(148,327,o),
(148,354,cs),
(148,397,o),
(189,431,o),
(266,431,cs),
(289,431,o),
(350,428,o),
(380,382,cs),
(386,374,o),
(390,369,o),
(396,369,cs),
(411,369,o),
(428,396,o),
(428,414,cs),
(428,418,o),
(428,421,o),
(426,423,cs),
(388,463,o),
(343,486,o),
(266,486,cs),
(167,486,o),
(83,433,o),
(83,356,cs),
(83,294,o),
(120,259,o),
(195,242,cs)
);
}
);
width = 510;
}
);
note = cid00084;
unicode = 115;
}
{
glyphname = y;
layers = (
{
anchors = (
{
name = top;
pos = (239,486);
}
);
hints = (
{
horizontal = 1;
place = (-164,63);
type = Stem;
},
{
place = (11,468);
type = Stem;
}
);
layerId = "481A290F-76EE-4968-957F-52614F4635C1";
shapes = (
{
closed = 1;
nodes = (
(116,-164,ls),
(168,-164,o),
(199,-138,o),
(226,-82,cs),
(437,361,ls),
(449,385,o),
(465,415,o),
(476,435,cs),
(478,439,o),
(479,443,o),
(479,447,cs),
(479,468,o),
(450,485,o),
(430,485,cs),
(422,485,o),
(415,482,o),
(413,476,cs),
(403,445,o),
(390,410,o),
(377,383,cs),
(254,124,l),
(138,393,ls),
(127,418,o),
(117,443,o),
(108,467,cs),
(105,476,o),
(87,480,o),
(69,480,cs),
(49,480,o),
(29,475,o),
(29,464,cs),
(29,462,o),
(30,460,o),
(31,458,cs),
(43,437,o),
(63,397,o),
(72,377,cs),
(218,46,l),
(174,-46,ls),
(155,-87,o),
(134,-101,o),
(113,-101,cs),
(95,-101,o),
(74,-100,o),
(57,-82,cs),
(53,-77,o),
(48,-75,o),
(44,-75,cs),
(27,-75,o),
(11,-105,o),
(11,-124,cs),
(11,-130,o),
(13,-134,o),
(16,-137,cs),
(47,-162,o),
(80,-164,o),
(106,-164,cs)
);
}
);
width = 500;
}
);
note = cid00090;
unicode = 121;
}
{
glyphname = braceleft;
layers = (
{
hints = (
{
horizontal = 1;
place = (-159,938);
type = Stem;
},
{
place = (190,65);
type = Stem;
},
{
place = (176,64);
type = Stem;
}
);
layerId = "481A290F-76EE-4968-957F-52614F4635C1";
shapes = (
{
closed = 1;
nodes = (
(92,331,ls),
(81,331,o),
(76,323,o),
(76,312,cs),
(76,295,o),
(88,274,o),
(106,273,cs),
(175,269,o),
(191,217,o),
(191,174,cs),
(191,76,o),
(176,22,o),
(176,-19,cs),
(176,-101,o),
(223,-149,o),
(304,-172,cs),
(309,-174,o),
(314,-174,o),
(318,-174,cs),
(328,-174,o),
(332,-169,o),
(332,-164,cs),
(332,-158,o),
(327,-150,o),
(320,-146,cs),
(264,-114,o),
(240,-76,o),
(240,-19,cs),
(240,1,o),
(255,73,o),
(255,178,cs),
(255,231,o),
(231,282,o),
(182,297,c),
(243,331,o),
(255,399,o),
(255,454,cs),
(255,504,o),
(249,582,o),
(249,612,cs),
(249,660,o),
(269,706,o),
(321,734,cs),
(328,738,o),
(331,744,o),
(331,750,cs),
(331,757,o),
(326,764,o),
(316,764,cs),
(313,764,o),
(309,763,o),
(304,761,cs),
(213,718,o),
(184,670,o),
(184,614,cs),
(184,580,o),
(190,496,o),
(190,457,cs),
(190,381,o),
(166,331,o),
(103,331,cs)
);
}
);
width = 350;
}
);
note = cid00092;
unicode = 123;
}
{
glyphname = exclamdown;
layers = (
{
hints = (
{
horizontal = 1;
place = (401,110);
type = Stem;
},
{
place = (124,105);
type = Stem;
},
{
place = (148,62);
type = Stem;
}
);
layerId = "481A290F-76EE-4968-957F-52614F4635C1";
shapes = (
{
closed = 1;
nodes = (
(229,465,o),
(204,496,o),
(176,496,cs),
(140,496,o),
(124,477,o),
(124,450,cs),
(124,419,o),
(151,386,o),
(176,386,cs),
(212,386,o),
(229,408,o),
(229,436,cs)
);
},
{
closed = 1;
nodes = (
(215,-206,ls),
(214,-198,o),
(210,-155,o),
(210,-127,cs),
(204,260,ls),
(204,273,o),
(205,289,o),
(206,299,cs),
(206,300,ls),
(206,313,o),
(181,322,o),
(164,322,cs),
(155,322,o),
(148,319,o),
(148,314,cs),
(148,264,l),
(136,-122,ls),
(135,-151,o),
(132,-172,o),
(130,-193,cs),
(130,-194,ls),
(130,-211,o),
(165,-225,o),
(189,-225,cs),
(204,-225,o),
(215,-220,o),
(215,-208,cs)
);
}
);
width = 350;
}
);
note = cid00101;
unicode = 161;
}
{
glyphname = cent;
layers = (
{
hints = (
{
horizontal = 1;
place = (-17,58);
type = Stem;
},
{
horizontal = 1;
place = (431,59);
type = Stem;
},
{
place = (57,68);
type = Stem;
}
);
layerId = "481A290F-76EE-4968-957F-52614F4635C1";
shapes = (
{
closed = 1;
nodes = (
(237,-29,l),
(249,-31,o),
(260,-32,o),
(271,-32,cs),
(440,-32,o),
(515,79,o),
(515,108,cs),
(515,116,o),
(511,120,o),
(506,120,cs),
(500,120,o),
(492,116,o),
(482,105,cs),
(434,52,o),
(367,26,o),
(271,26,cs),
(267,26,o),
(263,26,o),
(259,27,c),
(259,27,o),
(401,406,o),
(401,405,c),
(421,400,o),
(435,381,o),
(453,347,cs),
(455,343,o),
(458,342,o),
(462,342,cs),
(477,342,o),
(503,368,o),
(503,389,cs),
(503,402,o),
(480,438,o),
(422,460,c),
(422,460,o),
(435,496,o),
(442,510,cs),
(443,512,o),
(443,515,o),
(443,517,cs),
(443,537,o),
(415,561,o),
(398,561,cs),
(393,561,o),
(389,558,o),
(387,553,cs),
(379,524,o),
(373,503,o),
(362,473,c),
(351,474,o),
(339,475,o),
(328,475,cs),
(204,475,o),
(57,340,o),
(57,180,cs),
(57,85,o),
(110,19,o),
(178,-12,c),
(178,-12,o),
(168,-40,o),
(162,-52,cs),
(161,-55,o),
(160,-58,o),
(160,-60,cs),
(160,-80,o),
(188,-99,o),
(205,-99,cs),
(211,-99,o),
(215,-96,o),
(217,-91,cs)
);
},
{
closed = 1;
nodes = (
(201,48,l),
(160,73,o),
(125,119,o),
(125,185,cs),
(125,310,o),
(247,416,o),
(330,416,cs),
(340,416,l)
);
}
);
width = 556;
}
);
note = cid00102;
unicode = 162;
}
{
glyphname = yen;
layers = (
{
hints = (
{
horizontal = 1;
place = (175,55);
type = Stem;
},
{
horizontal = 1;
place = (310,53);
type = Stem;
},
{
place = (258,71);
type = Stem;
},
{
horizontal = 1;
place = (315,55);
type = Stem;
},
{
horizontal = 1;
place = (162,61);
type = Stem;
}
);
layerId = "481A290F-76EE-4968-957F-52614F4635C1";
shapes = (
{
closed = 1;
nodes = (
(505,165,ls),
(514,165,o),
(517,172,o),
(517,180,cs),
(517,198,o),
(502,224,o),
(485,224,cs),
(470,224,o),
(426,218,o),
(402,217,cs),
(329,214,l),
(329,299,l),
(403,302,l),
(505,305,ls),
(514,305,o),
(517,312,o),
(517,320,cs),
(517,338,o),
(502,364,o),
(485,364,cs),
(470,364,o),
(425,358,o),
(402,357,cs),
(348,355,l),
(477,562,o),
(512,613,o),
(555,663,cs),
(557,665,o),
(557,666,o),
(557,668,cs),
(557,680,o),
(525,694,o),
(501,694,cs),
(490,694,o),
(481,691,o),
(477,684,cs),
(465,664,o),
(455,643,o),
(438,616,cs),
(380,523,o),
(346,472,o),
(293,384,c),
(243,466,o),
(212,517,o),
(154,609,cs),
(137,635,o),
(127,657,o),
(115,677,cs),
(111,684,o),
(102,687,o),
(91,687,cs),
(67,687,o),
(34,673,o),
(34,661,cs),
(34,659,o),
(34,658,o),
(36,656,cs),
(79,607,o),
(118,552,o),
(241,350,c),
(204,349,ls),
(186,348,o),
(168,348,o),
(149,348,cs),
(127,348,o),
(106,348,o),
(90,350,cs),
(88,350,ls),
(81,350,o),
(78,344,o),
(78,337,cs),
(78,318,o),
(94,287,o),
(112,287,cs),
(113,287,ls),
(185,292,o),
(239,295,o),
(255,295,cs),
(258,295,l),
(258,211,l),
(204,209,ls),
(186,208,o),
(168,208,o),
(149,208,cs),
(127,208,o),
(106,208,o),
(90,210,cs),
(88,210,ls),
(81,210,o),
(78,204,o),
(78,197,cs),
(78,178,o),
(94,147,o),
(112,147,cs),
(113,147,l),
(205,153,l),
(258,156,l),
(258,132,ls),
(258,108,o),
(256,20,o),
(256,4,cs),
(256,-13,o),
(289,-24,o),
(312,-24,cs),
(324,-24,o),
(333,-21,o),
(333,-14,cs),
(333,9,o),
(329,106,o),
(329,131,cs),
(329,159,l),
(403,162,l)
);
}
);
width = 600;
}
);
note = cid00061;
unicode = 165;
}
{
glyphname = ordfeminine;
layers = (
{
hints = (
{
horizontal = 1;
place = (468,55);
type = Stem;
},
{
horizontal = 1;
place = (694,54);
type = Stem;
},
{
place = (35,60);
type = Stem;
},
{
place = (215,58);
type = Stem;
}
);
layerId = "481A290F-76EE-4968-957F-52614F4635C1";
shapes = (
{
closed = 1;
nodes = (
(280,719,ls),
(280,732,o),
(257,740,o),
(239,740,cs),
(228,740,o),
(218,737,o),
(217,731,c),
(217,738,l),
(216,739,o),
(195,748,o),
(173,748,cs),
(108,748,o),
(35,672,o),
(35,579,cs),
(35,505,o),
(74,468,o),
(130,468,cs),
(163,468,o),
(202,488,o),
(225,523,c),
(234,482,o),
(242,470,o),
(256,470,cs),
(273,470,o),
(290,494,o),
(290,509,cs),
(290,512,o),
(289,515,o),
(288,517,cs),
(273,545,o),
(273,564,o),
(273,594,cs),
(273,600,o),
(273,627,o),
(280,718,cs)
);
},
{
closed = 1;
nodes = (
(216,657,o),
(215,636,o),
(215,630,cs),
(210,562,o),
(174,523,o),
(130,523,cs),
(107,523,o),
(95,539,o),
(95,581,cs),
(95,644,o),
(135,694,o),
(173,694,cs),
(185,694,o),
(196,689,o),
(204,677,cs),
(207,673,o),
(212,671,o),
(217,670,c)
);
}
);
width = 320;
}
);
note = cid00140;
unicode = 170;
}
{
glyphname = guillemetleft;
layers = (
{
hints = (
{
horizontal = 1;
place = (-16,506);
type = Stem;
},
{
place = (26,472);
type = Stem;
}
);
layerId = "481A290F-76EE-4968-957F-52614F4635C1";
shapes = (
{
closed = 1;
nodes = (
(445,85,ls),
(398,133,o),
(338,190,o),
(298,226,c),
(397,316,o),
(483,400,o),
(491,408,cs),
(496,412,o),
(498,419,o),
(498,426,cs),
(498,447,o),
(482,475,o),
(469,475,cs),
(467,475,o),
(464,474,o),
(462,471,cs),
(427,427,o),
(362,357,o),
(265,276,cs),
(235,252,ls),
(232,249,o),
(231,243,o),
(231,236,cs),
(231,221,o),
(236,201,o),
(245,194,cs),
(274,172,o),
(325,128,o),
(411,37,cs),
(431,16,o),
(447,-6,o),
(464,-27,cs),
(466,-30,o),
(469,-31,o),
(471,-31,cs),
(484,-31,o),
(498,-1,o),
(498,21,cs),
(498,29,o),
(496,35,o),
(492,39,cs)
);
},
{
closed = 1;
nodes = (
(240,85,ls),
(193,133,o),
(133,190,o),
(93,226,c),
(192,316,o),
(278,400,o),
(286,408,cs),
(291,412,o),
(293,419,o),
(293,426,cs),
(293,447,o),
(277,475,o),
(264,475,cs),
(262,475,o),
(259,474,o),
(257,471,cs),
(222,427,o),
(157,357,o),
(60,276,cs),
(30,252,ls),
(27,249,o),
(26,243,o),
(26,236,cs),
(26,221,o),
(31,201,o),
(40,194,cs),
(69,172,o),
(120,128,o),
(206,37,cs),
(226,16,o),
(242,-6,o),
(259,-27,cs),
(261,-30,o),
(264,-31,o),
(266,-31,cs),
(279,-31,o),
(293,-1,o),
(293,21,cs),
(293,29,o),
(291,35,o),
(287,39,cs)
);
}
);
width = 530;
}
);
note = cid00109;
unicode = 171;
}
{
glyphname = softhyphen;
layers = (
{
hints = (
{
horizontal = 1;
place = (220,63);
type = Stem;
},
{
place = (45,406);
type = Stem;
}
);
layerId = "481A290F-76EE-4968-957F-52614F4635C1";
shapes = (
{
closed = 1;
nodes = (
(431,270,ls),
(406,269,o),
(382,268,o),
(360,268,cs),
(140,268,ls),
(108,268,o),
(80,269,o),
(60,270,cs),
(49,270,o),
(45,258,o),
(45,244,cs),
(45,225,o),
(53,202,o),
(64,202,cs),
(65,202,ls),
(81,204,o),
(115,205,o),
(139,205,cs),
(359,205,ls),
(385,205,o),
(406,203,o),
(437,203,cs),
(447,203,o),
(451,215,o),
(451,228,cs),
(451,247,o),
(443,270,o),
(432,270,cs)
);
}
);
width = 500;
}
);
note = cid00151;
unicode = 173;
}
{
glyphname = registered;
layers = (
{
hints = (
{
horizontal = 1;
place = (-7,53);
type = Stem;
},
{
horizontal = 1;
place = (330,46);
type = Stem;
},
{
horizontal = 1;
place = (511,56);
type = Stem;
},
{
horizontal = 1;
place = (626,53);
type = Stem;
},
{
place = (48,54);
type = Stem;
},
{
place = (264,61);
type = Stem;
},
{
place = (487,61);
type = Stem;
},
{
place = (682,53);
type = Stem;
}
);
layerId = "481A290F-76EE-4968-957F-52614F4635C1";
shapes = (
{
closed = 1;
nodes = (
(735,510,o),
(580,664,o),
(391,664,cs),
(202,664,o),
(48,510,o),
(48,321,cs),
(48,132,o),
(202,-22,o),
(391,-22,cs),
(580,-22,o),
(735,132,o),
(735,321,cs)
);
},
{
closed = 1;
nodes = (
(682,161,o),
(552,31,o),
(392,31,cs),
(232,31,o),
(102,161,o),
(102,321,cs),
(102,481,o),
(232,611,o),
(392,611,cs),
(552,611,o),
(682,481,o),
(682,321,cs)
);
},
{
closed = 1;
nodes = (
(264,188,ls),
(264,165,o),
(263,138,o),
(263,129,cs),
(263,115,o),
(286,108,o),
(304,108,cs),
(316,108,o),
(326,111,o),
(326,118,cs),
(326,132,o),
(325,161,o),
(325,188,cs),
(325,304,l),
(332,301,o),
(340,294,o),
(344,290,cs),
(382,251,o),
(437,171,o),
(492,127,cs),
(519,105,o),
(546,105,o),
(560,105,cs),
(583,105,o),
(592,110,o),
(592,117,cs),
(592,125,o),
(579,135,o),
(561,141,cs),
(550,145,o),
(534,158,o),
(521,171,cs),
(475,217,o),
(429,276,o),
(393,315,c),
(477,321,o),
(548,369,o),
(548,443,cs),
(548,496,o),
(510,552,o),
(405,552,cs),
(365,552,o),
(332,548,o),
(315,544,cs),
(291,539,o),
(270,535,o),
(253,533,cs),
(247,532,o),
(244,527,o),
(244,519,cs),
(244,506,o),
(253,486,o),
(264,480,c)
);
},
{
closed = 1;
nodes = (
(325,485,l),
(348,493,o),
(374,496,o),
(404,496,cs),
(458,496,o),
(487,479,o),
(487,441,cs),
(487,401,o),
(446,361,o),
(362,361,cs),
(354,361,o),
(346,361,o),
(338,362,c),
(336,363,o),
(334,363,o),
(332,363,cs),
(329,363,o),
(327,363,o),
(325,361,c)
);
}
);
width = 780;
}
);
note = cid00154;
unicode = 174;
}
{
glyphname = macron;
layers = (
{
hints = (
{
horizontal = 1;
place = (617,62);
type = Stem;
},
{
place = (114,274);
type = Stem;
}
);
layerId = "481A290F-76EE-4968-957F-52614F4635C1";
shapes = (
{
closed = 1;
nodes = (
(365,602,ls),
(380,602,o),
(388,618,o),
(388,633,cs),
(388,649,o),
(380,664,o),
(366,664,cs),
(138,664,ls),
(122,664,o),
(114,648,o),
(114,633,cs),
(114,617,o),
(122,602,o),
(137,602,cs)
);
}
);
width = 500;
}
);
note = cid00129;
unicode = 175;
}
{
glyphname = degree;
layers = (
{
hints = (
{
horizontal = 1;
place = (477,56);
type = Stem;
},
{
horizontal = 1;
place = (685,56);
type = Stem;
},
{
place = (28,56);
type = Stem;
},
{
place = (236,56);
type = Stem;
}
);
layerId = "481A290F-76EE-4968-957F-52614F4635C1";
shapes = (
{
closed = 1;
nodes = (
(292,682,o),
(232,741,o),
(160,741,cs),
(85,741,o),
(28,680,o),
(28,609,cs),
(28,534,o),
(89,477,o),
(160,477,cs),
(234,477,o),
(292,538,o),
(292,609,cs)
);
},
{
closed = 1;
nodes = (
(116,533,o),
(84,568,o),
(84,610,cs),
(84,654,o),
(120,685,o),
(160,685,cs),
(204,685,o),
(236,651,o),
(236,610,cs),
(236,568,o),
(200,533,o),
(160,533,cs)
);
}
);
width = 320;
}
);
note = cid00155;
unicode = 176;
}
{
glyphname = twosuperior;
layers = (
{
hints = (
{
horizontal = 1;
place = (333,56);
type = Stem;
},
{
horizontal = 1;
place = (651,58);
type = Stem;
},
{
place = (261,61);
type = Stem;
}
);
layerId = "481A290F-76EE-4968-957F-52614F4635C1";
shapes = (
{
closed = 1;
nodes = (
(156,405,o),
(188,434,o),
(225,463,cs),
(279,505,o),
(322,547,o),
(322,598,cs),
(322,658,o),
(284,694,o),
(208,694,cs),
(121,694,o),
(76,626,o),
(76,606,cs),
(76,597,o),
(81,586,o),
(93,574,cs),
(99,569,o),
(103,567,o),
(108,567,cs),
(120,567,o),
(128,580,o),
(134,591,cs),
(149,619,o),
(167,636,o),
(205,636,cs),
(243,636,o),
(261,627,o),
(261,598,cs),
(261,568,o),
(230,542,o),
(189,509,cs),
(138,467,o),
(88,416,o),
(68,381,cs),
(65,376,o),
(61,375,o),
(56,367,cs),
(53,363,o),
(52,358,o),
(52,353,cs),
(52,335,o),
(66,311,o),
(86,311,cs),
(88,311,o),
(89,312,o),
(91,312,c),
(121,318,o),
(142,318,o),
(183,318,cs),
(211,318,o),
(242,316,o),
(261,316,cs),
(281,316,o),
(299,315,o),
(305,315,cs),
(317,315,o),
(323,325,o),
(323,337,cs),
(323,354,o),
(312,376,o),
(295,376,cs),
(288,376,o),
(272,374,o),
(262,374,cs),
(246,374,o),
(213,375,o),
(187,375,cs),
(175,375,o),
(153,375,o),
(133,374,c)
);
}
);
width = 380;
}
);
note = cid00157;
unicode = 178;
}
{
glyphname = periodcentered;
layers = (
{
hints = (
{
horizontal = 1;
place = (274,191);
type = Stem;
},
{
place = (90,176);
type = Stem;
}
);
layerId = "481A290F-76EE-4968-957F-52614F4635C1";
shapes = (
{
closed = 1;
nodes = (
(235,274,o),
(266,305,o),
(266,356,cs),
(266,408,o),
(215,465,o),
(170,465,cs),
(119,465,o),
(90,431,o),
(90,380,cs),
(90,333,o),
(137,274,o),
(187,274,cs)
);
}
);
width = 350;
}
);
note = cid00117;
unicode = (183,8729);
}
{
glyphname = cedilla;
layers = (
{
hints = (
{
horizontal = 1;
place = (-180,55);
type = Stem;
},
{
horizontal = 1;
place = (-72,46);
type = Stem;
},
{
place = (297,63);
type = Stem;
}
);
layerId = "481A290F-76EE-4968-957F-52614F4635C1";
shapes = (
{
closed = 1;
nodes = (
(226,-91,l),
(239,-88,o),
(251,-87,o),
(260,-87,cs),
(286,-87,o),
(297,-97,o),
(297,-113,cs),
(297,-134,o),
(282,-140,o),
(254,-140,cs),
(221,-140,o),
(206,-133,o),
(178,-114,c),
(176,-112,o),
(174,-112,o),
(172,-112,cs),
(163,-112,o),
(155,-132,o),
(155,-149,cs),
(155,-160,o),
(158,-169,o),
(165,-173,cs),
(193,-187,o),
(226,-195,o),
(254,-195,cs),
(321,-195,o),
(360,-164,o),
(360,-112,cs),
(360,-65,o),
(330,-41,o),
(282,-41,cs),
(275,-41,o),
(269,-41,o),
(262,-42,c),
(277,3,l),
(211,8,l),
(211,8,o),
(203,-19,o),
(191,-50,cs),
(190,-53,o),
(189,-57,o),
(189,-60,cs),
(189,-77,o),
(204,-91,o),
(221,-91,cs)
);
}
);
width = 500;
}
);
note = cid00134;
unicode = (184,807);
}
{
glyphname = onesuperior;
layers = (
{
hints = (
{
horizontal = 1;
place = (326,384);
type = Stem;
},
{
place = (175,59);
type = Stem;
}
);
layerId = "481A290F-76EE-4968-957F-52614F4635C1";
shapes = (
{
closed = 1;
nodes = (
(236,327,ls),
(234,356,o),
(234,395,o),
(234,417,cs),
(234,604,ls),
(234,627,o),
(238,648,o),
(238,661,cs),
(238,678,o),
(213,695,o),
(200,695,cs),
(188,695,o),
(172,670,o),
(165,664,cs),
(142,646,o),
(120,628,o),
(92,617,cs),
(86,614,o),
(83,610,o),
(83,606,cs),
(83,594,o),
(102,579,o),
(118,579,cs),
(120,579,o),
(122,579,o),
(124,580,c),
(142,583,o),
(156,591,o),
(175,603,c),
(175,412,ls),
(175,395,o),
(173,358,o),
(173,342,cs),
(173,341,ls),
(173,323,o),
(197,311,o),
(216,311,cs),
(227,311,o),
(236,316,o),
(236,326,cs)
);
}
);
width = 380;
}
);
note = cid00160;
unicode = 185;
}
{
glyphname = ordmasculine;
layers = (
{
hints = (
{
horizontal = 1;
place = (468,55);
type = Stem;
},
{
horizontal = 1;
place = (694,54);
type = Stem;
},
{
place = (35,59);
type = Stem;
},
{
place = (229,59);
type = Stem;
}
);
layerId = "481A290F-76EE-4968-957F-52614F4635C1";
shapes = (
{
closed = 1;
nodes = (
(116,733,o),
(112,733,o),
(108,733,cs),
(79,733,o),
(35,655,o),
(35,596,cs),
(35,518,o),
(79,468,o),
(154,468,cs),
(240,468,o),
(288,542,o),
(288,615,cs),
(288,700,o),
(241,748,o),
(177,748,cs),
(152,748,o),
(133,741,o),
(119,731,c)
);
},
{
closed = 1;
nodes = (
(115,523,o),
(94,551,o),
(94,595,cs),
(94,641,o),
(126,694,o),
(174,694,cs),
(211,694,o),
(229,661,o),
(229,615,cs),
(229,566,o),
(196,523,o),
(154,523,cs)
);
}
);
width = 320;
}
);
note = cid00144;
unicode = 186;
}
{
glyphname = guillemetright;
layers = (
{
hints = (
{
horizontal = 1;
place = (-22,506);
type = Stem;
},
{
place = (31,472);
type = Stem;
}
);
layerId = "481A290F-76EE-4968-957F-52614F4635C1";
shapes = (
{
closed = 1;
nodes = (
(242,33,ls),
(238,29,o),
(236,23,o),
(236,15,cs),
(236,-7,o),
(250,-37,o),
(263,-37,cs),
(265,-37,o),
(268,-36,o),
(270,-33,cs),
(287,-12,o),
(303,10,o),
(323,31,cs),
(409,122,o),
(460,166,o),
(489,188,cs),
(498,195,o),
(503,215,o),
(503,230,cs),
(503,237,o),
(502,243,o),
(499,246,cs),
(469,270,ls),
(372,351,o),
(307,421,o),
(272,465,cs),
(270,468,o),
(267,469,o),
(265,469,cs),
(252,469,o),
(236,441,o),
(236,420,cs),
(236,413,o),
(238,406,o),
(243,402,cs),
(251,394,o),
(337,310,o),
(436,220,c),
(396,184,o),
(336,127,o),
(289,79,cs)
);
},
{
closed = 1;
nodes = (
(37,33,ls),
(33,29,o),
(31,23,o),
(31,15,cs),
(31,-7,o),
(45,-37,o),
(58,-37,cs),
(60,-37,o),
(63,-36,o),
(65,-33,cs),
(82,-12,o),
(98,10,o),
(118,31,cs),
(204,122,o),
(255,166,o),
(284,188,cs),
(293,195,o),
(298,215,o),
(298,230,cs),
(298,237,o),
(297,243,o),
(294,246,cs),
(264,270,ls),
(167,351,o),
(102,421,o),
(67,465,cs),
(65,468,o),
(62,469,o),
(60,469,cs),
(47,469,o),
(31,441,o),
(31,420,cs),
(31,413,o),
(33,406,o),
(38,402,cs),
(46,394,o),
(132,310,o),
(231,220,c),
(191,184,o),
(131,127,o),
(84,79,cs)
);
}
);
width = 530;
}
);
note = cid00123;
unicode = 187;
}
{
glyphname = onehalf;
layers = (
{
hints = (
{
horizontal = 1;
place = (3,56);
type = Stem;
},
{
horizontal = 1;
place = (321,58);
type = Stem;
},
{
place = (145,59);
type = Stem;
},
{
place = (611,61);
type = Stem;
}
);
layerId = "481A290F-76EE-4968-957F-52614F4635C1";
shapes = (
{
closed = 1;
nodes = (
(206,326,ls),
(204,355,o),
(204,394,o),
(204,416,cs),
(204,603,ls),
(204,626,o),
(208,647,o),
(208,660,cs),
(208,677,o),
(183,694,o),
(170,694,cs),
(158,694,o),
(142,669,o),
(135,663,cs),
(112,645,o),
(90,627,o),
(62,616,cs),
(56,613,o),
(53,609,o),
(53,605,cs),
(53,593,o),
(72,578,o),
(88,578,cs),
(90,578,o),
(92,578,o),
(94,579,c),
(112,582,o),
(126,590,o),
(145,602,c),
(145,411,ls),
(145,394,o),
(143,357,o),
(143,341,cs),
(143,340,ls),
(143,322,o),
(167,310,o),
(186,310,cs),
(197,310,o),
(206,315,o),
(206,325,cs)
);
},
{
closed = 1;
nodes = (
(133,61,ls),
(123,45,o),
(109,25,o),
(97,10,cs),
(94,6,o),
(93,2,o),
(93,-3,cs),
(93,-24,o),
(117,-50,o),
(133,-50,cs),
(139,-50,o),
(143,-47,o),
(146,-41,cs),
(156,-20,o),
(168,5,o),
(179,24,cs),
(522,594,ls),
(532,610,o),
(549,637,o),
(565,660,cs),
(566,662,o),
(567,664,o),
(567,667,cs),
(567,684,o),
(542,716,o),
(524,716,cs),
(518,716,o),
(513,712,o),
(509,703,cs),
(498,679,o),
(483,647,o),
(472,629,cs)
);
},
{
closed = 1;
nodes = (
(506,75,o),
(538,104,o),
(575,133,cs),
(629,175,o),
(672,217,o),
(672,268,cs),
(672,328,o),
(634,364,o),
(558,364,cs),
(471,364,o),
(426,296,o),
(426,276,cs),
(426,267,o),
(431,256,o),
(443,244,cs),
(449,239,o),
(453,237,o),
(458,237,cs),
(470,237,o),
(478,250,o),
(484,261,cs),
(499,289,o),
(517,306,o),
(555,306,cs),
(593,306,o),
(611,297,o),
(611,268,cs),
(611,238,o),
(580,212,o),
(539,179,cs),
(488,137,o),
(438,86,o),
(418,51,cs),
(415,46,o),
(411,45,o),
(406,37,cs),
(403,33,o),
(402,28,o),
(402,23,cs),
(402,5,o),
(416,-19,o),
(436,-19,cs),
(438,-19,o),
(439,-18,o),
(441,-18,c),
(471,-12,o),
(492,-12,o),
(533,-12,cs),
(561,-12,o),
(592,-14,o),
(611,-14,cs),
(631,-14,o),
(649,-15,o),
(655,-15,cs),
(667,-15,o),
(673,-5,o),
(673,7,cs),
(673,24,o),
(662,46,o),
(645,46,cs),
(638,46,o),
(622,44,o),
(612,44,cs),
(596,44,o),
(563,45,o),
(537,45,cs),
(525,45,o),
(503,45,o),
(483,44,c)
);
}
);
width = 730;
}
);
note = cid00162;
unicode = 189;
}
{
glyphname = threequarters;
layers = (
{
hints = (
{
horizontal = 1;
place = (78,62);
type = Stem;
},
{
horizontal = 1;
place = (321,58);
type = Stem;
},
{
horizontal = 1;
place = (654,56);
type = Stem;
},
{
place = (250,59);
type = Stem;
},
{
place = (599,57);
type = Stem;
},
{
place = (238,58);
type = Stem;
},
{
horizontal = 1;
place = (86,62);
type = Stem;
},
{
place = (597,30);
type = Stem;
}
);
layerId = "481A290F-76EE-4968-957F-52614F4635C1";
shapes = (
{
closed = 1;
nodes = (
(276,542,o),
(296,573,o),
(296,606,cs),
(296,662,o),
(258,695,o),
(188,695,cs),
(116,695,o),
(63,648,o),
(63,628,cs),
(63,610,o),
(80,587,o),
(91,587,cs),
(99,587,o),
(107,594,o),
(114,602,cs),
(134,629,o),
(156,639,o),
(189,639,cs),
(222,639,o),
(238,629,o),
(238,604,cs),
(238,557,o),
(164,538,o),
(127,535,cs),
(118,534,o),
(115,527,o),
(115,518,cs),
(115,502,o),
(128,480,o),
(142,480,cs),
(144,480,o),
(145,481,o),
(147,481,c),
(159,485,o),
(178,488,o),
(190,488,cs),
(228,488,o),
(250,467,o),
(250,432,cs),
(250,390,o),
(224,364,o),
(168,364,cs),
(137,364,o),
(108,376,o),
(86,400,cs),
(81,405,o),
(76,407,o),
(72,407,cs),
(57,407,o),
(42,385,o),
(42,368,cs),
(42,344,o),
(107,306,o),
(168,306,cs),
(270,306,o),
(309,363,o),
(309,436,cs),
(309,477,o),
(282,512,o),
(247,525,c)
);
},
{
closed = 1;
nodes = (
(193,61,ls),
(183,45,o),
(169,25,o),
(157,10,cs),
(154,6,o),
(153,2,o),
(153,-3,cs),
(153,-24,o),
(177,-50,o),
(193,-50,cs),
(199,-50,o),
(203,-47,o),
(206,-41,cs),
(216,-20,o),
(228,5,o),
(239,24,cs),
(582,594,ls),
(592,610,o),
(609,637,o),
(625,660,cs),
(626,662,o),
(627,664,o),
(627,667,cs),
(627,684,o),
(602,716,o),
(584,716,cs),
(578,716,o),
(573,712,o),
(569,703,cs),
(558,679,o),
(543,647,o),
(532,629,cs)
);
},
{
closed = 1;
nodes = (
(712,71,ls),
(721,71,o),
(725,80,o),
(725,92,cs),
(725,110,o),
(715,133,o),
(700,133,cs),
(695,133,o),
(669,131,o),
(656,130,c),
(656,214,ls),
(656,226,o),
(657,252,o),
(657,260,cs),
(657,273,o),
(635,281,o),
(619,281,cs),
(606,281,o),
(597,277,o),
(597,269,cs),
(597,256,o),
(599,225,o),
(599,214,cs),
(599,127,l),
(498,124,l),
(534,179,o),
(574,243,o),
(603,292,cs),
(607,299,o),
(615,310,o),
(623,321,cs),
(626,325,o),
(627,328,o),
(627,332,cs),
(627,351,o),
(603,372,o),
(587,372,cs),
(582,372,o),
(578,370,o),
(575,364,cs),
(554,318,o),
(498,223,o),
(442,143,cs),
(437,136,o),
(430,129,o),
(424,120,cs),
(420,114,o),
(420,108,o),
(420,102,cs),
(420,80,o),
(440,60,o),
(458,60,cs),
(460,60,l),
(468,62,o),
(474,63,o),
(478,63,cs),
(599,69,l),
(599,56,ls),
(599,49,o),
(598,9,o),
(598,1,cs),
(598,-15,o),
(619,-24,o),
(635,-24,cs),
(647,-24,o),
(658,-19,o),
(658,-9,cs),
(658,2,o),
(656,33,o),
(656,55,cs),
(656,71,l)
);
}
);
width = 757;
}
);
note = cid00163;
unicode = 190;
}
{
glyphname = questiondown;
layers = (
{
hints = (
{
horizontal = 1;
place = (-214,59);
type = Stem;
},
{
horizontal = 1;
place = (398,110);
type = Stem;
},
{
place = (85,73);
type = Stem;
},
{
place = (264,105);
type = Stem;
},
{
place = (287,67);
type = Stem;
}
);
layerId = "481A290F-76EE-4968-957F-52614F4635C1";
shapes = (
{
closed = 1;
nodes = (
(369,462,o),
(344,493,o),
(316,493,cs),
(280,493,o),
(264,474,o),
(264,447,cs),
(264,416,o),
(291,383,o),
(316,383,cs),
(352,383,o),
(369,405,o),
(369,433,cs)
);
},
{
closed = 1;
nodes = (
(517,-70,o),
(517,-67,o),
(517,-64,cs),
(517,-44,o),
(490,-22,o),
(470,-22,cs),
(462,-22,o),
(455,-26,o),
(452,-35,cs),
(418,-151,o),
(299,-170,o),
(251,-170,cs),
(188,-170,o),
(158,-132,o),
(158,-84,cs),
(158,55,o),
(331,78,o),
(350,209,cs),
(353,228,o),
(354,245,o),
(354,260,cs),
(354,292,o),
(354,316,o),
(306,316,cs),
(291,316,o),
(277,311,o),
(277,300,cs),
(277,299,o),
(278,298,o),
(278,296,c),
(284,275,o),
(287,259,o),
(287,241,cs),
(287,234,o),
(287,226,o),
(286,218,cs),
(273,107,o),
(85,83,o),
(85,-90,cs),
(85,-177,o),
(150,-229,o),
(252,-229,cs),
(368,-229,o),
(452,-183,o),
(515,-73,cs)
);
}
);
width = 600;
}
);
note = cid00126;
unicode = 191;
}
{
glyphname = Agrave;
kernLeft = A;
kernRight = A;
layers = (
{
hints = (
{
horizontal = 1;
place = (218,65);
type = Stem;
},
{
place = (-1,692);
type = Stem;
},
{
horizontal = 1;
place = (225,65);
type = Stem;
}
);
layerId = "481A290F-76EE-4968-957F-52614F4635C1";
shapes = (
{
closed = 1;
nodes = (
(106,218,l),
(17,45,o),
(13,39,o),
(3,23,cs),
(0,19,o),
(-1,15,o),
(-1,12,cs),
(-1,-1,o),
(17,-7,o),
(36,-7,cs),
(56,-7,o),
(77,-1,o),
(81,10,cs),
(89,33,o),
(107,77,o),
(118,99,cs),
(137,136,o),
(158,179,o),
(180,225,c),
(182,225,o),
(507,239,o),
(507,239,c),
(529,188,o),
(551,140,o),
(571,98,cs),
(582,74,o),
(599,27,o),
(607,3,cs),
(609,-5,o),
(623,-9,o),
(638,-9,cs),
(661,-9,o),
(691,0,o),
(691,16,cs),
(691,19,o),
(689,22,o),
(687,26,c),
(665,57,o),
(639,103,o),
(629,125,cs),
(551,289,o),
(458,499,o),
(400,653,cs),
(399,655,o),
(399,658,o),
(399,660,cs),
(399,667,o),
(402,674,o),
(402,680,cs),
(402,681,o),
(401,683,o),
(401,684,c),
(396,697,o),
(366,711,o),
(344,711,cs),
(336,711,o),
(329,710,o),
(325,705,cs),
(318,697,o),
(317,665,o),
(312,653,cs),
(279,571,o),
(206,418,o),
(138,283,c),
(119,283,ls),
(103,283,o),
(92,284,o),
(80,285,cs),
(78,285,ls),
(70,285,o),
(67,279,o),
(67,270,cs),
(67,250,o),
(83,218,o),
(99,218,cs)
);
},
{
closed = 1;
nodes = (
(210,285,l),
(265,401,o),
(322,524,o),
(356,601,c),
(384,527,o),
(433,410,o),
(482,296,c)
);
},
{
closed = 1;
nodes = (
(450,769,o),
(423,797,o),
(300,879,cs),
(298,880,o),
(296,880,o),
(294,880,cs),
(275,880,o),
(235,845,o),
(235,826,cs),
(235,821,o),
(237,818,o),
(242,816,cs),
(308,792,o),
(377,771,o),
(422,744,cs),
(426,742,o),
(429,741,o),
(433,741,cs),
(443,741,o),
(450,749,o),
(450,758,cs)
);
}
);
width = 690;
}
);
note = cid00164;
unicode = 192;
}
{
glyphname = Acircumflex;
kernLeft = A;
kernRight = A;
layers = (
{
hints = (
{
horizontal = 1;
place = (218,65);
type = Stem;
},
{
place = (-1,692);
type = Stem;
},
{
horizontal = 1;
place = (225,65);
type = Stem;
}
);
layerId = "481A290F-76EE-4968-957F-52614F4635C1";
shapes = (
{
closed = 1;
nodes = (
(106,218,l),
(17,45,o),
(13,39,o),
(3,23,cs),
(0,19,o),
(-1,15,o),
(-1,12,cs),
(-1,-1,o),
(17,-7,o),
(36,-7,cs),
(56,-7,o),
(77,-1,o),
(81,10,cs),
(89,33,o),
(107,77,o),
(118,99,cs),
(137,136,o),
(158,179,o),
(180,225,c),
(182,225,o),
(507,239,o),
(507,239,c),
(529,188,o),
(551,140,o),
(571,98,cs),
(582,74,o),
(599,27,o),
(607,3,cs),
(609,-5,o),
(623,-9,o),
(638,-9,cs),
(661,-9,o),
(691,0,o),
(691,16,cs),
(691,19,o),
(689,22,o),
(687,26,c),
(665,57,o),
(639,103,o),
(629,125,cs),
(551,289,o),
(458,499,o),
(400,653,cs),
(399,655,o),
(399,658,o),
(399,660,cs),
(399,667,o),
(402,674,o),
(402,680,cs),
(402,681,o),
(401,683,o),
(401,684,c),
(396,697,o),
(366,711,o),
(344,711,cs),
(336,711,o),
(329,710,o),
(325,705,cs),
(318,697,o),
(317,665,o),
(312,653,cs),
(279,571,o),
(206,418,o),
(138,283,c),
(119,283,ls),
(103,283,o),
(92,284,o),
(80,285,cs),
(78,285,ls),
(70,285,o),
(67,279,o),
(67,270,cs),
(67,250,o),
(83,218,o),
(99,218,cs)
);
},
{
closed = 1;
nodes = (
(210,285,l),
(265,401,o),
(322,524,o),
(356,601,c),
(384,527,o),
(433,410,o),
(482,296,c)
);
},
{
closed = 1;
nodes = (
(404,794,o),
(452,765,o),
(485,737,cs),
(489,733,o),
(494,732,o),
(498,732,cs),
(508,732,o),
(516,739,o),
(516,748,cs),
(516,765,o),
(430,849,o),
(398,880,cs),
(390,888,o),
(371,892,o),
(354,892,cs),
(338,892,o),
(323,889,o),
(316,883,cs),
(268,838,o),
(197,761,o),
(197,748,cs),
(197,739,o),
(205,732,o),
(215,732,cs),
(219,732,o),
(224,733,o),
(228,737,cs),
(261,765,o),
(310,794,o),
(357,824,c)
);
}
);
width = 690;
}
);
note = cid00166;
unicode = 194;
}
{
glyphname = Aring;
kernLeft = A;
kernRight = A;
layers = (
{
hints = (
{
horizontal = 1;
place = (218,65);
type = Stem;
},
{
horizontal = 1;
place = (721,48);
type = Stem;
},
{
horizontal = 1;
place = (861,48);
type = Stem;
},
{
place = (262,48);
type = Stem;
},
{
place = (402,48);
type = Stem;
},
{
horizontal = 1;
place = (225,65);
type = Stem;
}
);
layerId = "481A290F-76EE-4968-957F-52614F4635C1";
shapes = (
{
closed = 1;
nodes = (
(106,218,l),
(17,45,o),
(13,39,o),
(3,23,cs),
(0,19,o),
(-1,15,o),
(-1,12,cs),
(-1,-1,o),
(17,-7,o),
(36,-7,cs),
(56,-7,o),
(77,-1,o),
(81,10,cs),
(89,33,o),
(107,77,o),
(118,99,cs),
(137,136,o),
(158,179,o),
(180,225,c),
(182,225,o),
(507,239,o),
(507,239,c),
(529,188,o),
(551,140,o),
(571,98,cs),
(582,74,o),
(599,27,o),
(607,3,cs),
(609,-5,o),
(623,-9,o),
(638,-9,cs),
(661,-9,o),
(691,0,o),
(691,16,cs),
(691,19,o),
(689,22,o),
(687,26,c),
(665,57,o),
(639,103,o),
(629,125,cs),
(551,289,o),
(458,499,o),
(400,653,cs),
(399,655,o),
(399,658,o),
(399,660,cs),
(399,667,o),
(402,674,o),
(402,680,cs),
(402,681,o),
(401,683,o),
(401,684,c),
(396,697,o),
(366,711,o),
(344,711,cs),
(336,711,o),
(329,710,o),
(325,705,cs),
(318,697,o),
(317,665,o),
(312,653,cs),
(279,571,o),
(206,418,o),
(138,283,c),
(119,283,ls),
(103,283,o),
(92,284,o),
(80,285,cs),
(78,285,ls),
(70,285,o),
(67,279,o),
(67,270,cs),
(67,250,o),
(83,218,o),
(99,218,cs)
);
},
{
closed = 1;
nodes = (
(210,285,l),
(265,401,o),
(322,524,o),
(356,601,c),
(384,527,o),
(433,410,o),
(482,296,c)
);
},
{
closed = 1;
nodes = (
(450,866,o),
(407,909,o),
(356,909,cs),
(305,909,o),
(262,866,o),
(262,815,cs),
(262,764,o),
(305,721,o),
(356,721,cs),
(407,721,o),
(450,764,o),
(450,815,cs)
);
},
{
closed = 1;
nodes = (
(402,789,o),
(382,769,o),
(356,769,cs),
(330,769,o),
(310,789,o),
(310,815,cs),
(310,841,o),
(330,861,o),
(356,861,cs),
(382,861,o),
(402,841,o),
(402,815,cs)
);
}
);
width = 690;
}
);
note = cid00169;
unicode = 197;
}
{
glyphname = AE;
layers = (
{
hints = (
{
horizontal = 1;
place = (-1,65);
type = Stem;
},
{
horizontal = 1;
place = (223,60);
type = Stem;
},
{
horizontal = 1;
place = (345,61);
type = Stem;
},
{
horizontal = 1;
place = (632,62);
type = Stem;
},
{
place = (426,72);
type = Stem;
},
{
horizontal = 1;
place = (208,67);
type = Stem;
}
);
layerId = "481A290F-76EE-4968-957F-52614F4635C1";
shapes = (
{
closed = 1;
nodes = (
(825,67,ls),
(805,66,o),
(772,64,o),
(742,64,cs),
(498,61,l),
(498,342,l),
(656,349,ls),
(690,350,o),
(743,350,o),
(759,350,cs),
(768,350,o),
(772,358,o),
(772,368,cs),
(772,388,o),
(756,419,o),
(739,419,cs),
(738,419,ls),
(721,418,o),
(683,412,o),
(655,411,cs),
(498,403,l),
(498,624,l),
(718,640,ls),
(739,641,o),
(764,642,o),
(785,642,cs),
(800,642,o),
(813,641,o),
(821,641,cs),
(829,641,o),
(833,648,o),
(833,658,cs),
(833,679,o),
(819,710,o),
(802,710,cs),
(800,710,ls),
(783,708,o),
(748,704,o),
(717,702,cs),
(487,686,l),
(460,696,o),
(431,708,o),
(410,708,cs),
(407,708,o),
(404,708,o),
(401,707,cs),
(386,704,o),
(383,677,o),
(377,665,cs),
(332,575,o),
(245,420,o),
(160,276,c),
(142,275,o),
(125,275,o),
(110,275,cs),
(78,275,ls),
(65,275,o),
(60,268,o),
(60,258,cs),
(60,238,o),
(81,208,o),
(98,208,cs),
(99,208,ls),
(105,208,o),
(111,210,o),
(121,211,c),
(92,161,o),
(43,81,o),
(15,44,cs),
(7,33,o),
(4,24,o),
(4,18,cs),
(4,5,o),
(18,-4,o),
(54,-4,cs),
(68,-4,o),
(78,1,o),
(84,12,cs),
(94,32,o),
(116,72,o),
(200,217,c),
(426,230,l),
(426,84,ls),
(426,68,o),
(419,46,o),
(419,37,cs),
(419,21,o),
(442,-10,o),
(461,-10,cs),
(481,-10,o),
(494,-3,o),
(515,-3,cs),
(743,-1,ls),
(779,-1,o),
(822,-3,o),
(846,-4,cs),
(855,-4,o),
(858,3,o),
(858,14,cs),
(858,35,o),
(843,67,o),
(826,67,cs)
);
},
{
closed = 1;
nodes = (
(426,289,l),
(236,278,l),
(306,400,o),
(378,528,o),
(426,618,c)
);
}
);
width = 900;
}
);
note = cid00139;
unicode = 198;
}
{
glyphname = Eacute;
layers = (
{
hints = (
{
horizontal = 1;
place = (-3,67);
type = Stem;
},
{
horizontal = 1;
place = (350,59);
type = Stem;
},
{
horizontal = 1;
place = (646,66);
type = Stem;
},
{
place = (106,68);
type = Stem;
}
);
layerId = "481A290F-76EE-4968-957F-52614F4635C1";
shapes = (
{
closed = 1;
nodes = (
(439,818,o),
(441,821,o),
(441,826,cs),
(441,845,o),
(401,880,o),
(382,880,cs),
(380,880,o),
(378,880,o),
(376,879,cs),
(254,797,o),
(226,769,o),
(226,758,cs),
(226,749,o),
(233,741,o),
(243,741,cs),
(247,741,o),
(250,742,o),
(254,744,cs),
(299,771,o),
(368,792,o),
(434,816,cs)
);
},
{
closed = 1;
nodes = (
(577,-2,ls),
(585,-2,o),
(588,5,o),
(588,14,cs),
(588,35,o),
(573,67,o),
(556,67,cs),
(555,67,ls),
(535,66,o),
(501,64,o),
(472,64,cs),
(174,59,l),
(174,344,l),
(386,356,ls),
(405,357,o),
(427,357,o),
(447,357,cs),
(489,357,ls),
(498,357,o),
(502,364,o),
(502,374,cs),
(502,394,o),
(486,424,o),
(468,424,cs),
(456,424,o),
(415,418,o),
(385,416,cs),
(174,403,l),
(174,627,l),
(441,645,ls),
(460,646,o),
(482,646,o),
(502,646,cs),
(544,646,ls),
(553,646,o),
(557,653,o),
(557,663,cs),
(557,682,o),
(541,712,o),
(523,712,cs),
(511,712,o),
(470,706,o),
(440,704,c),
(440,704,o),
(254,691,o),
(169,686,c),
(164,688,o),
(134,699,o),
(116,699,cs),
(111,699,o),
(102,698,o),
(102,685,cs),
(102,680,o),
(103,673,o),
(104,661,cs),
(106,645,o),
(106,625,o),
(106,604,cs),
(106,402,l),
(100,402,o),
(94,403,o),
(89,404,cs),
(87,404,ls),
(81,404,o),
(79,400,o),
(79,393,cs),
(79,378,o),
(91,352,o),
(106,344,c),
(106,84,ls),
(106,68,o),
(99,46,o),
(99,37,cs),
(99,21,o),
(122,-10,o),
(141,-10,cs),
(161,-10,o),
(174,-3,o),
(195,-3,cs),
(473,1,l),
(489,1,ls),
(524,1,o),
(565,-1,o),
(576,-2,cs)
);
}
);
width = 638;
}
);
note = cid00172;
unicode = 201;
}
{
glyphname = Ecircumflex;
layers = (
{
anchors = (
{
name = top;
pos = (334,823);
}
);
hints = (
{
horizontal = 1;
place = (-3,67);
type = Stem;
},
{
horizontal = 1;
place = (350,59);
type = Stem;
},
{
horizontal = 1;
place = (646,66);
type = Stem;
},
{
place = (106,68);
type = Stem;
}
);
layerId = "481A290F-76EE-4968-957F-52614F4635C1";
shapes = (
{
closed = 1;
nodes = (
(378,794,o),
(426,765,o),
(459,737,cs),
(463,733,o),
(468,732,o),
(472,732,cs),
(482,732,o),
(490,739,o),
(490,748,cs),
(490,765,o),
(404,849,o),
(372,880,cs),
(364,888,o),
(345,892,o),
(328,892,cs),
(312,892,o),
(297,889,o),
(290,883,cs),
(242,838,o),
(171,761,o),
(171,748,cs),
(171,739,o),
(179,732,o),
(189,732,cs),
(193,732,o),
(198,733,o),
(202,737,cs),
(235,765,o),
(284,794,o),
(331,824,c)
);
},
{
closed = 1;
nodes = (
(577,-2,ls),
(585,-2,o),
(588,5,o),
(588,14,cs),
(588,35,o),
(573,67,o),
(556,67,cs),
(555,67,ls),
(535,67,o),
(501,64,o),
(472,64,cs),
(174,59,l),
(174,344,l),
(386,356,ls),
(405,357,o),
(427,357,o),
(447,357,cs),
(489,357,ls),
(498,357,o),
(502,364,o),
(502,374,cs),
(502,394,o),
(486,424,o),
(468,424,cs),
(456,424,o),
(415,418,o),
(385,416,cs),
(174,403,l),
(174,627,l),
(441,645,ls),
(460,646,o),
(482,646,o),
(502,646,cs),
(544,646,ls),
(553,646,o),
(557,653,o),
(557,663,cs),
(557,682,o),
(541,712,o),
(523,712,cs),
(511,712,o),
(470,706,o),
(440,704,c),
(440,704,o),
(254,691,o),
(169,686,c),
(164,688,o),
(134,699,o),
(116,699,cs),
(111,699,o),
(102,698,o),
(102,685,cs),
(102,680,o),
(103,673,o),
(104,661,cs),
(106,645,o),
(106,625,o),
(106,604,cs),
(106,402,l),
(100,402,o),
(94,404,o),
(89,404,cs),
(87,404,ls),
(81,404,o),
(79,400,o),
(79,393,cs),
(79,378,o),
(91,352,o),
(106,344,c),
(106,84,ls),
(106,68,o),
(99,46,o),
(99,37,cs),
(99,21,o),
(122,-10,o),
(141,-10,cs),
(161,-10,o),
(174,-3,o),
(195,-3,cs),
(473,1,l),
(489,1,ls),
(524,1,o),
(565,-2,o),
(576,-2,cs)
);
}
);
width = 638;
}
);
note = cid00173;
unicode = 202;
}
{
glyphname = Edieresis;
layers = (
{
hints = (
{
horizontal = 1;
place = (-3,67);
type = Stem;
},
{
horizontal = 1;
place = (350,59);
type = Stem;
},
{
horizontal = 1;
place = (646,66);
type = Stem;
},
{
horizontal = 1;
place = (759,109);
type = Stem;
},
{
place = (106,68);
type = Stem;
},
{
place = (366,101);
type = Stem;
},
{
place = (183,101);
type = Stem;
}
);
layerId = "481A290F-76EE-4968-957F-52614F4635C1";
shapes = (
{
closed = 1;
nodes = (
(449,759,o),
(467,778,o),
(467,806,cs),
(467,836,o),
(438,868,o),
(412,868,cs),
(383,868,o),
(366,849,o),
(366,820,cs),
(366,793,o),
(392,759,o),
(422,759,cs)
);
},
{
closed = 1;
nodes = (
(266,759,o),
(284,778,o),
(284,806,cs),
(284,836,o),
(255,868,o),
(229,868,cs),
(200,868,o),
(183,849,o),
(183,820,cs),
(183,793,o),
(209,759,o),
(239,759,cs)
);
},
{
closed = 1;
nodes = (
(577,-2,ls),
(585,-2,o),
(588,5,o),
(588,14,cs),
(588,35,o),
(573,67,o),
(556,67,cs),
(555,67,ls),
(535,66,o),
(501,64,o),
(472,64,cs),
(174,59,l),
(174,344,l),
(386,356,ls),
(405,357,o),
(427,357,o),
(447,357,cs),
(489,357,ls),
(498,357,o),
(502,364,o),
(502,374,cs),
(502,394,o),
(486,424,o),
(468,424,cs),
(456,424,o),
(415,418,o),
(385,416,cs),
(174,403,l),
(174,627,l),
(441,645,ls),
(460,646,o),
(482,646,o),
(502,646,cs),
(544,646,ls),
(553,646,o),
(557,653,o),
(557,663,cs),
(557,682,o),
(541,712,o),
(523,712,cs),
(511,712,o),
(470,706,o),
(440,704,c),
(440,704,o),
(254,691,o),
(169,686,c),
(164,688,o),
(134,699,o),
(116,699,cs),
(111,699,o),
(102,698,o),
(102,685,cs),
(102,680,o),
(103,673,o),
(104,661,cs),
(106,645,o),
(106,625,o),
(106,604,cs),
(106,402,l),
(100,402,o),
(94,403,o),
(89,404,cs),
(87,404,ls),
(81,404,o),
(79,400,o),
(79,393,cs),
(79,378,o),
(91,352,o),
(106,344,c),
(106,84,ls),
(106,68,o),
(99,46,o),
(99,37,cs),
(99,21,o),
(122,-10,o),
(141,-10,cs),
(161,-10,o),
(174,-3,o),
(195,-3,cs),
(473,1,l),
(489,1,ls),
(524,1,o),
(565,-1,o),
(576,-2,cs)
);
}
);
width = 638;
}
);
note = cid00174;
unicode = 203;
}
{
glyphname = Ograve;
kernLeft = O;
kernRight = O;
layers = (
{
hints = (
{
horizontal = 1;
place = (-18,64);
type = Stem;
},
{
horizontal = 1;
place = (653,60);
type = Stem;
},
{
place = (53,69);
type = Stem;
},
{
place = (625,70);
type = Stem;
}
);
layerId = "481A290F-76EE-4968-957F-52614F4635C1";
shapes = (
{
closed = 1;
nodes = (
(478,769,o),
(451,797,o),
(328,879,cs),
(326,880,o),
(324,880,o),
(322,880,cs),
(303,880,o),
(263,845,o),
(263,826,cs),
(263,821,o),
(265,818,o),
(270,816,cs),
(336,792,o),
(405,771,o),
(450,744,cs),
(454,742,o),
(457,741,o),
(461,741,cs),
(471,741,o),
(478,749,o),
(478,758,cs)
);
},
{
closed = 1;
nodes = (
(217,652,o),
(208,658,o),
(197,658,cs),
(157,658,o),
(53,516,o),
(53,337,cs),
(53,133,o),
(151,-18,o),
(366,-18,cs),
(592,-18,o),
(695,157,o),
(695,363,cs),
(695,565,o),
(585,713,o),
(405,713,cs),
(326,713,o),
(270,687,o),
(223,646,c)
);
},
{
closed = 1;
nodes = (
(194,46,o),
(122,179,o),
(122,339,cs),
(122,545,o),
(283,653,o),
(399,653,cs),
(549,653,o),
(625,508,o),
(625,371,cs),
(625,202,o),
(554,46,o),
(358,46,cs)
);
}
);
width = 745;
}
);
note = cid00181;
unicode = 210;
}
{
glyphname = Ocircumflex;
kernLeft = O;
kernRight = O;
layers = (
{
hints = (
{
horizontal = 1;
place = (-18,64);
type = Stem;
},
{
horizontal = 1;
place = (653,60);
type = Stem;
},
{
place = (53,69);
type = Stem;
},
{
place = (625,70);
type = Stem;
}
);
layerId = "481A290F-76EE-4968-957F-52614F4635C1";
shapes = (
{
closed = 1;
nodes = (
(432,794,o),
(480,765,o),
(513,737,cs),
(517,733,o),
(522,732,o),
(526,732,cs),
(536,732,o),
(544,739,o),
(544,748,cs),
(544,765,o),
(458,849,o),
(426,880,cs),
(418,888,o),
(399,892,o),
(382,892,cs),
(366,892,o),
(351,889,o),
(344,883,cs),
(296,838,o),
(225,761,o),
(225,748,cs),
(225,739,o),
(233,732,o),
(243,732,cs),
(247,732,o),
(252,733,o),
(256,737,cs),
(289,765,o),
(338,794,o),
(385,824,c)
);
},
{
closed = 1;
nodes = (
(217,652,o),
(208,658,o),
(197,658,cs),
(157,658,o),
(53,516,o),
(53,337,cs),
(53,133,o),
(151,-18,o),
(366,-18,cs),
(592,-18,o),
(695,157,o),
(695,363,cs),
(695,565,o),
(585,713,o),
(405,713,cs),
(326,713,o),
(270,687,o),
(223,646,c)
);
},
{
closed = 1;
nodes = (
(194,46,o),
(122,179,o),
(122,339,cs),
(122,545,o),
(283,653,o),
(399,653,cs),
(549,653,o),
(625,508,o),
(625,371,cs),
(625,202,o),
(554,46,o),
(358,46,cs)
);
}
);
width = 745;
}
);
note = cid00183;
unicode = 212;
}
{
glyphname = Otilde;
kernLeft = O;
kernRight = O;
layers = (
{
hints = (
{
horizontal = 1;
place = (-18,64);
type = Stem;
},
{
horizontal = 1;
place = (653,60);
type = Stem;
},
{
horizontal = 1;
place = (759,57);
type = Stem;
},
{
place = (53,69);
type = Stem;
},
{
place = (625,70);
type = Stem;
},
{
horizontal = 1;
place = (810,57);
type = Stem;
}
);
layerId = "481A290F-76EE-4968-957F-52614F4635C1";
shapes = (
{
closed = 1;
nodes = (
(543,849,o),
(543,851,o),
(543,853,cs),
(543,864,o),
(535,870,o),
(528,870,cs),
(522,870,o),
(516,866,o),
(512,858,cs),
(497,827,o),
(477,816,o),
(449,816,cs),
(414,816,o),
(390,867,o),
(330,867,cs),
(269,867,o),
(234,800,o),
(234,773,cs),
(234,762,o),
(242,756,o),
(249,756,cs),
(255,756,o),
(261,760,o),
(265,768,cs),
(280,799,o),
(300,810,o),
(328,810,cs),
(362,810,o),
(387,759,o),
(447,759,cs),
(498,759,o),
(532,804,o),
(542,846,cs)
);
},
{
closed = 1;
nodes = (
(217,652,o),
(208,658,o),
(197,658,cs),
(157,658,o),
(53,516,o),
(53,337,cs),
(53,133,o),
(151,-18,o),
(366,-18,cs),
(592,-18,o),
(695,157,o),
(695,363,cs),
(695,565,o),
(585,713,o),
(405,713,cs),
(326,713,o),
(270,687,o),
(223,646,c)
);
},
{
closed = 1;
nodes = (
(194,46,o),
(122,179,o),
(122,339,cs),
(122,545,o),
(283,653,o),
(399,653,cs),
(549,653,o),
(625,508,o),
(625,371,cs),
(625,202,o),
(554,46,o),
(358,46,cs)
);
}
);
width = 745;
}
);
note = cid00184;
unicode = 213;
}
{
glyphname = multiply;
layers = (
{
hints = (
{
horizontal = 1;
place = (3,493);
type = Stem;
},
{
place = (63,472);
type = Stem;
}
);
layerId = "481A290F-76EE-4968-957F-52614F4635C1";
shapes = (
{
closed = 1;
nodes = (
(430,77,ls),
(443,65,o),
(468,38,o),
(489,16,cs),
(492,13,o),
(495,11,o),
(499,11,cs),
(515,11,o),
(534,38,o),
(534,58,cs),
(534,65,o),
(532,70,o),
(527,74,cs),
(506,92,o),
(482,114,o),
(470,126,cs),
(347,249,l),
(469,370,ls),
(486,387,o),
(514,412,o),
(529,426,cs),
(533,430,o),
(535,436,o),
(535,442,cs),
(535,462,o),
(518,488,o),
(501,488,cs),
(495,488,o),
(494,487,o),
(428,418,cs),
(302,293,l),
(170,426,ls),
(148,448,o),
(121,477,o),
(109,490,cs),
(105,494,o),
(101,496,o),
(96,496,cs),
(80,496,o),
(63,470,o),
(63,450,cs),
(63,444,o),
(64,438,o),
(69,434,cs),
(89,417,o),
(112,395,o),
(129,378,cs),
(258,248,l),
(128,117,ls),
(116,105,o),
(91,83,o),
(70,65,c),
(65,62,o),
(63,56,o),
(63,50,cs),
(63,31,o),
(85,3,o),
(100,3,cs),
(103,3,o),
(106,4,o),
(109,7,cs),
(168,68,l),
(302,204,l)
);
}
);
width = 600;
}
);
note = cid00186;
unicode = 215;
}
{
glyphname = Ugrave;
kernLeft = U;
kernRight = U;
layers = (
{
hints = (
{
horizontal = 1;
place = (-18,63);
type = Stem;
},
{
place = (106,72);
type = Stem;
},
{
place = (533,72);
type = Stem;
}
);
layerId = "481A290F-76EE-4968-957F-52614F4635C1";
shapes = (
{
closed = 1;
nodes = (
(460,769,o),
(433,797,o),
(310,879,cs),
(308,880,o),
(306,880,o),
(304,880,cs),
(285,880,o),
(245,845,o),
(245,826,cs),
(245,821,o),
(247,818,o),
(252,816,cs),
(318,792,o),
(387,771,o),
(432,744,cs),
(436,742,o),
(439,741,o),
(443,741,cs),
(453,741,o),
(460,749,o),
(460,758,cs)
);
},
{
closed = 1;
nodes = (
(533,242,ls),
(533,128,o),
(454,45,o),
(342,45,cs),
(236,45,o),
(178,89,o),
(178,210,cs),
(178,584,ls),
(178,619,o),
(180,664,o),
(180,680,cs),
(180,697,o),
(150,707,o),
(128,707,cs),
(114,707,o),
(103,703,o),
(103,695,cs),
(103,672,o),
(106,627,o),
(106,586,cs),
(106,198,ls),
(106,58,o),
(181,-18,o),
(342,-18,cs),
(500,-18,o),
(605,81,o),
(605,230,cs),
(605,594,ls),
(605,629,o),
(607,666,o),
(607,682,cs),
(607,699,o),
(577,709,o),
(555,709,cs),
(541,709,o),
(530,705,o),
(530,697,cs),
(530,681,o),
(533,622,o),
(533,595,cs)
);
}
);
width = 710;
}
);
note = cid00187;
unicode = 217;
}
{
glyphname = Uacute;
kernLeft = U;
kernRight = U;
layers = (
{
hints = (
{
horizontal = 1;
place = (-18,63);
type = Stem;
},
{
place = (106,72);
type = Stem;
},
{
place = (533,72);
type = Stem;
}
);
layerId = "481A290F-76EE-4968-957F-52614F4635C1";
shapes = (
{
closed = 1;
nodes = (
(475,818,o),
(477,821,o),
(477,826,cs),
(477,845,o),
(437,880,o),
(418,880,cs),
(416,880,o),
(414,880,o),
(412,879,cs),
(290,797,o),
(262,769,o),
(262,758,cs),
(262,749,o),
(269,741,o),
(279,741,cs),
(283,741,o),
(286,742,o),
(290,744,cs),
(335,771,o),
(404,792,o),
(470,816,cs)
);
},
{
closed = 1;
nodes = (
(533,242,ls),
(533,128,o),
(454,45,o),
(342,45,cs),
(236,45,o),
(178,89,o),
(178,210,cs),
(178,584,ls),
(178,619,o),
(180,664,o),
(180,680,cs),
(180,697,o),
(150,707,o),
(128,707,cs),
(114,707,o),
(103,703,o),
(103,695,cs),
(103,672,o),
(106,627,o),
(106,586,cs),
(106,198,ls),
(106,58,o),
(181,-18,o),
(342,-18,cs),
(500,-18,o),
(605,81,o),
(605,230,cs),
(605,594,ls),
(605,629,o),
(607,666,o),
(607,682,cs),
(607,699,o),
(577,709,o),
(555,709,cs),
(541,709,o),
(530,705,o),
(530,697,cs),
(530,681,o),
(533,622,o),
(533,595,cs)
);
}
);
width = 710;
}
);
note = cid00188;
unicode = 218;
}
{
glyphname = Yacute;
layers = (
{
hints = (
{
horizontal = 1;
place = (-9,889);
type = Stem;
},
{
place = (258,72);
type = Stem;
}
);
layerId = "481A290F-76EE-4968-957F-52614F4635C1";
shapes = (
{
closed = 1;
nodes = (
(420,818,o),
(422,821,o),
(422,826,cs),
(422,845,o),
(382,880,o),
(363,880,cs),
(361,880,o),
(359,880,o),
(357,879,cs),
(235,797,o),
(207,769,o),
(207,758,cs),
(207,749,o),
(214,741,o),
(224,741,cs),
(228,741,o),
(231,742,o),
(235,744,cs),
(280,771,o),
(349,792,o),
(415,816,cs)
);
},
{
closed = 1;
nodes = (
(258,108,ls),
(258,84,o),
(256,35,o),
(256,19,cs),
(256,2,o),
(289,-9,o),
(312,-9,cs),
(324,-9,o),
(333,-6,o),
(333,1,cs),
(333,24,o),
(330,82,o),
(330,107,cs),
(330,293,l),
(361,348,o),
(503,585,o),
(580,678,c),
(581,680,o),
(582,681,o),
(582,683,cs),
(582,695,o),
(551,709,o),
(527,709,cs),
(517,709,o),
(507,706,o),
(503,699,cs),
(492,679,o),
(479,658,o),
(462,631,cs),
(401,534,o),
(352,456,o),
(294,360,c),
(241,453,o),
(183,545,o),
(128,633,cs),
(117,651,o),
(104,677,o),
(94,695,cs),
(91,699,o),
(81,701,o),
(69,701,cs),
(46,701,o),
(15,694,o),
(15,679,cs),
(15,676,o),
(17,673,o),
(20,669,cs),
(57,624,o),
(189,420,o),
(258,292,c)
);
}
);
width = 600;
}
);
note = cid00191;
unicode = 221;
}
{
glyphname = Thorn;
layers = (
{
hints = (
{
horizontal = 1;
place = (210,46);
type = Stem;
},
{
horizontal = 1;
place = (558,63);
type = Stem;
},
{
place = (106,70);
type = Stem;
},
{
place = (503,72);
type = Stem;
},
{
horizontal = 1;
place = (528,63);
type = Stem;
}
);
layerId = "481A290F-76EE-4968-957F-52614F4635C1";
shapes = (
{
closed = 1;
nodes = (
(106,116,ls),
(106,77,o),
(104,33,o),
(104,17,cs),
(104,0,o),
(136,-11,o),
(158,-11,cs),
(170,-11,o),
(179,-8,o),
(179,-1,cs),
(179,22,o),
(176,70,o),
(176,115,cs),
(176,215,l),
(179,213,o),
(182,212,o),
(186,211,cs),
(194,210,o),
(204,210,o),
(215,210,cs),
(265,210,o),
(334,218,o),
(372,226,cs),
(495,251,o),
(575,319,o),
(575,437,cs),
(575,539,o),
(495,621,o),
(320,621,cs),
(274,621,o),
(200,614,o),
(175,608,c),
(175,638,o),
(177,663,o),
(177,677,cs),
(177,694,o),
(145,705,o),
(123,705,cs),
(112,705,o),
(103,702,o),
(103,695,cs),
(103,675,o),
(105,633,o),
(106,595,c),
(69,588,ls),
(63,587,o),
(60,583,o),
(60,577,cs),
(60,559,o),
(85,528,o),
(105,528,cs),
(106,528,l)
);
},
{
closed = 1;
nodes = (
(176,538,l),
(219,550,o),
(270,558,o),
(318,558,cs),
(440,558,o),
(503,507,o),
(503,431,cs),
(503,404,o),
(497,276,o),
(189,256,cs),
(184,256,o),
(180,254,o),
(176,252,c)
);
}
);
width = 618;
}
);
note = cid00192;
unicode = 222;
}
{
glyphname = atilde;
kernLeft = a;
kernRight = a;
layers = (
{
hints = (
{
horizontal = 1;
place = (-18,60);
type = Stem;
},
{
horizontal = 1;
place = (428,58);
type = Stem;
},
{
horizontal = 1;
place = (592,57);
type = Stem;
},
{
place = (56,68);
type = Stem;
},
{
place = (415,61);
type = Stem;
},
{
horizontal = 1;
place = (643,57);
type = Stem;
},
{
place = (413,76);
type = Stem;
}
);
layerId = "481A290F-76EE-4968-957F-52614F4635C1";
shapes = (
{
closed = 1;
nodes = (
(448,682,o),
(448,684,o),
(448,686,cs),
(448,697,o),
(440,703,o),
(433,703,cs),
(427,703,o),
(421,699,o),
(417,691,cs),
(402,660,o),
(382,649,o),
(354,649,cs),
(319,649,o),
(295,700,o),
(235,700,cs),
(174,700,o),
(139,633,o),
(139,606,cs),
(139,595,o),
(147,589,o),
(154,589,cs),
(160,589,o),
(166,593,o),
(170,601,cs),
(185,632,o),
(205,643,o),
(233,643,cs),
(267,643,o),
(292,592,o),
(352,592,cs),
(403,592,o),
(437,637,o),
(447,679,cs)
);
},
{
closed = 1;
nodes = (
(489,459,ls),
(489,475,o),
(457,485,o),
(434,485,cs),
(422,485,o),
(413,482,o),
(413,475,cs),
(413,420,l),
(390,466,o),
(350,486,o),
(303,486,cs),
(180,486,o),
(56,345,o),
(56,175,cs),
(56,49,o),
(120,-18,o),
(217,-18,cs),
(292,-18,o),
(365,24,o),
(415,118,c),
(420,63,o),
(438,-13,o),
(469,-13,cs),
(491,-13,o),
(513,14,o),
(513,29,cs),
(513,31,o),
(512,33,o),
(511,35,cs),
(476,89,o),
(476,164,o),
(476,193,cs),
(476,242,o),
(480,399,o),
(489,457,cs)
);
},
{
closed = 1;
nodes = (
(411,347,o),
(411,310,o),
(410,291,cs),
(403,143,o),
(311,42,o),
(216,42,cs),
(163,42,o),
(124,79,o),
(124,180,cs),
(124,322,o),
(221,428,o),
(303,428,cs),
(333,428,o),
(365,413,o),
(388,375,cs),
(390,372,o),
(392,371,o),
(395,371,cs),
(400,371,o),
(407,375,o),
(412,380,c)
);
}
);
width = 575;
}
);
note = cid00196;
unicode = 227;
}
{
glyphname = aring;
kernLeft = a;
kernRight = a;
layers = (
{
hints = (
{
horizontal = 1;
place = (-18,60);
type = Stem;
},
{
horizontal = 1;
place = (428,58);
type = Stem;
},
{
horizontal = 1;
place = (552,48);
type = Stem;
},
{
horizontal = 1;
place = (692,48);
type = Stem;
},
{
place = (56,68);
type = Stem;
},
{
place = (201,48);
type = Stem;
},
{
place = (341,48);
type = Stem;
},
{
place = (415,61);
type = Stem;
},
{
place = (413,76);
type = Stem;
}
);
layerId = "481A290F-76EE-4968-957F-52614F4635C1";
shapes = (
{
closed = 1;
nodes = (
(389,697,o),
(346,740,o),
(295,740,cs),
(244,740,o),
(201,697,o),
(201,646,cs),
(201,595,o),
(244,552,o),
(295,552,cs),
(346,552,o),
(389,595,o),
(389,646,cs)
);
},
{
closed = 1;
nodes = (
(489,459,ls),
(489,475,o),
(457,485,o),
(434,485,cs),
(422,485,o),
(413,482,o),
(413,475,cs),
(413,420,l),
(390,466,o),
(350,486,o),
(303,486,cs),
(180,486,o),
(56,345,o),
(56,175,cs),
(56,49,o),
(120,-18,o),
(217,-18,cs),
(292,-18,o),
(365,24,o),
(415,118,c),
(420,63,o),
(438,-13,o),
(469,-13,cs),
(491,-13,o),
(513,14,o),
(513,29,cs),
(513,31,o),
(512,33,o),
(511,35,cs),
(476,89,o),
(476,164,o),
(476,193,cs),
(476,242,o),
(480,399,o),
(489,457,cs)
);
},
{
closed = 1;
nodes = (
(341,620,o),
(321,600,o),
(295,600,cs),
(269,600,o),
(249,620,o),
(249,646,cs),
(249,672,o),
(269,692,o),
(295,692,cs),
(321,692,o),
(341,672,o),
(341,646,cs)
);
},
{
closed = 1;
nodes = (
(411,347,o),
(411,310,o),
(410,291,cs),
(403,143,o),
(311,42,o),
(216,42,cs),
(163,42,o),
(124,79,o),
(124,180,cs),
(124,322,o),
(221,428,o),
(303,428,cs),
(333,428,o),
(365,413,o),
(388,375,cs),
(390,372,o),
(392,371,o),
(395,371,cs),
(400,371,o),
(407,375,o),
(412,380,c)
);
}
);
width = 575;
}
);
note = cid00198;
unicode = 229;
}
{
color = 4;
glyphname = ae;
layers = (
{
hints = (
{
horizontal = 1;
place = (-18,62);
type = Stem;
},
{
horizontal = 1;
place = (198,54);
type = Stem;
},
{
horizontal = 1;
place = (426,60);
type = Stem;
},
{
place = (64,70);
type = Stem;
},
{
place = (424,71);
type = Stem;
},
{
place = (775,66);
type = Stem;
},
{
place = (426,76);
type = Stem;
}
);
layerId = "481A290F-76EE-4968-957F-52614F4635C1";
shapes = (
{
closed = 1;
nodes = (
(399,101,o),
(325,43,o),
(243,43,cs),
(169,43,o),
(129,69,o),
(129,117,cs),
(129,148,o),
(141,172,o),
(193,187,cs),
(252,204,o),
(328,206,o),
(414,204,c)
);
},
{
closed = 1;
nodes = (
(483,252,l),
(498,323,o),
(568,428,o),
(666,428,cs),
(735,428,o),
(767,399,o),
(767,341,cs),
(767,306,o),
(758,292,o),
(710,278,cs),
(666,266,o),
(602,252,o),
(503,252,cs)
);
},
{
closed = 1;
nodes = (
(482,272,l),
(482,378,o),
(440,486,o),
(285,486,cs),
(155,486,o),
(83,410,o),
(83,389,cs),
(83,366,o),
(108,338,o),
(126,338,cs),
(130,338,o),
(134,340,o),
(137,345,cs),
(157,379,o),
(199,426,o),
(289,426,cs),
(356,426,o),
(412,391,o),
(414,261,c),
(322,261,o),
(217,251,o),
(155,235,cs),
(82,216,o),
(59,174,o),
(59,118,cs),
(59,56,o),
(109,-18,o),
(239,-18,cs),
(366,-18,o),
(436,52,o),
(466,151,c),
(448,221,l)
);
},
{
closed = 1;
nodes = (
(430,227,l),
(414,148,l),
(430,44,o),
(502,-18,o),
(592,-18,cs),
(759,-18,o),
(836,105,o),
(836,128,cs),
(836,135,o),
(832,140,o),
(826,140,cs),
(821,140,o),
(812,136,o),
(803,125,cs),
(749,68,o),
(677,41,o),
(592,41,cs),
(525,41,o),
(475,99,o),
(475,186,cs),
(475,196,l),
(488,196,ls),
(593,196,o),
(677,208,o),
(737,227,cs),
(826,255,o),
(833,271,o),
(833,340,cs),
(833,412,o),
(791,486,o),
(667,486,cs),
(533,486,o),
(429,342,o),
(416,246,c)
);
}
);
width = 888;
},
{
associatedMasterId = "481A290F-76EE-4968-957F-52614F4635C1";
hints = (
{
horizontal = 1;
place = (-18,62);
type = Stem;
},
{
horizontal = 1;
place = (198,54);
type = Stem;
},
{
horizontal = 1;
place = (426,60);
type = Stem;
},
{
place = (64,70);
type = Stem;
},
{
place = (424,71);
type = Stem;
},
{
place = (775,66);
type = Stem;
},
{
place = (426,76);
type = Stem;
}
);
layerId = "CF7BE563-5B0C-4011-BA5A-E1A03ACA0C27";
name = "22年1月24日 22:32";
shapes = (
{
closed = 1;
nodes = (
(502,459,ls),
(502,475,o),
(470,485,o),
(447,485,cs),
(435,485,o),
(426,482,o),
(426,475,cs),
(426,467,o),
(425,445,o),
(424,419,c),
(401,465,o),
(358,486,o),
(311,486,cs),
(192,486,o),
(64,345,o),
(64,175,cs),
(64,49,o),
(128,-18,o),
(225,-18,cs),
(297,-18,o),
(375,22,o),
(423,115,c),
(449,32,o),
(520,-18,o),
(600,-18,cs),
(767,-18,o),
(844,105,o),
(844,128,cs),
(844,135,o),
(840,140,o),
(834,140,cs),
(829,140,o),
(820,136,o),
(811,125,cs),
(757,68,o),
(685,44,o),
(600,44,cs),
(548,44,o),
(483,90,o),
(483,199,c),
(496,199,o),
(509,198,o),
(521,198,cs),
(614,198,o),
(689,208,o),
(745,225,cs),
(826,251,o),
(841,281,o),
(841,340,cs),
(841,412,o),
(799,486,o),
(675,486,cs),
(600,486,o),
(541,448,o),
(495,391,c),
(497,419,o),
(500,442,o),
(502,457,cs)
);
},
{
closed = 1;
nodes = (
(503,323,o),
(576,426,o),
(674,426,cs),
(733,426,o),
(775,397,o),
(775,341,cs),
(775,310,o),
(765,294,o),
(708,278,cs),
(661,265,o),
(589,252,o),
(488,252,c)
);
},
{
closed = 1;
nodes = (
(423,347,o),
(423,310,o),
(422,291,cs),
(415,137,o),
(324,43,o),
(225,43,cs),
(175,43,o),
(134,79,o),
(134,180,cs),
(134,322,o),
(236,427,o),
(312,427,cs),
(342,427,o),
(373,417,o),
(397,379,cs),
(399,375,o),
(403,374,o),
(408,374,cs),
(413,374,o),
(420,376,o),
(424,380,c)
);
}
);
width = 900;
}
);
note = cid00145;
unicode = 230;
}
{
glyphname = ccedilla;
layers = (
{
hints = (
{
horizontal = 1;
place = (-180,55);
type = Stem;
},
{
horizontal = 1;
place = (-72,44);
type = Stem;
},
{
horizontal = 1;
place = (427,59);
type = Stem;
},
{
place = (56,68);
type = Stem;
},
{
place = (325,63);
type = Stem;
},
{
horizontal = 1;
place = (-17,57);
type = Stem;
}
);
layerId = "481A290F-76EE-4968-957F-52614F4635C1";
shapes = (
{
closed = 1;
nodes = (
(254,-76,l),
(267,-73,o),
(279,-72,o),
(288,-72,cs),
(314,-72,o),
(325,-82,o),
(325,-98,cs),
(325,-119,o),
(310,-125,o),
(282,-125,cs),
(249,-125,o),
(234,-118,o),
(206,-99,c),
(204,-97,o),
(202,-97,o),
(200,-97,cs),
(191,-97,o),
(183,-117,o),
(183,-134,cs),
(183,-145,o),
(186,-154,o),
(193,-158,cs),
(221,-172,o),
(254,-180,o),
(282,-180,cs),
(349,-180,o),
(388,-149,o),
(388,-97,cs),
(388,-50,o),
(348,-28,o),
(302,-28,cs),
(296,-28,o),
(291,-28,o),
(285,-29,c),
(289,-15,l),
(423,5,o),
(486,127,o),
(486,143,cs),
(486,151,o),
(482,155,o),
(477,155,cs),
(471,155,o),
(463,150,o),
(453,140,cs),
(406,93,o),
(335,40,o),
(250,40,cs),
(192,40,o),
(124,95,o),
(124,199,cs),
(124,324,o),
(232,427,o),
(315,427,cs),
(335,427,o),
(356,420,o),
(375,407,cs),
(390,397,o),
(397,379,o),
(407,360,cs),
(409,356,o),
(412,355,o),
(416,355,cs),
(432,355,o),
(458,380,o),
(458,401,cs),
(458,410,o),
(423,486,o),
(313,486,cs),
(189,486,o),
(56,354,o),
(56,194,cs),
(56,68,o),
(132,-6,o),
(226,-17,c),
(217,-39,o),
(217,-44,o),
(217,-45,cs),
(217,-62,o),
(232,-76,o),
(249,-76,cs)
);
}
);
width = 530;
}
);
note = cid00199;
unicode = 231;
}
{
glyphname = eacute;
kernLeft = e;
kernRight = e;
layers = (
{
hints = (
{
horizontal = 1;
place = (-18,59);
type = Stem;
},
{
horizontal = 1;
place = (196,56);
type = Stem;
},
{
horizontal = 1;
place = (428,58);
type = Stem;
},
{
place = (62,65);
type = Stem;
},
{
place = (419,66);
type = Stem;
}
);
layerId = "481A290F-76EE-4968-957F-52614F4635C1";
shapes = (
{
closed = 1;
nodes = (
(388,651,o),
(390,654,o),
(390,659,cs),
(390,678,o),
(350,713,o),
(331,713,cs),
(329,713,o),
(327,713,o),
(325,712,cs),
(203,630,o),
(175,602,o),
(175,591,cs),
(175,582,o),
(182,574,o),
(192,574,cs),
(196,574,o),
(199,575,o),
(203,577,cs),
(248,604,o),
(317,625,o),
(383,649,cs)
);
},
{
closed = 1;
nodes = (
(140,196,ls),
(245,196,o),
(329,208,o),
(389,227,cs),
(478,255,o),
(485,271,o),
(485,340,cs),
(485,412,o),
(443,486,o),
(319,486,cs),
(189,486,o),
(87,351,o),
(69,255,c),
(67,255,o),
(60,254,o),
(59,254,cs),
(46,254,o),
(40,249,o),
(40,241,cs),
(40,231,o),
(50,218,o),
(62,209,c),
(62,195,ls),
(62,63,o),
(141,-18,o),
(244,-18,cs),
(411,-18,o),
(488,105,o),
(488,128,cs),
(488,135,o),
(484,140,o),
(478,140,cs),
(473,140,o),
(464,136,o),
(455,125,cs),
(401,68,o),
(329,41,o),
(244,41,cs),
(177,41,o),
(127,99,o),
(127,186,cs),
(127,196,l)
);
},
{
closed = 1;
nodes = (
(135,252,l),
(150,323,o),
(220,428,o),
(318,428,cs),
(387,428,o),
(419,399,o),
(419,341,cs),
(419,306,o),
(410,292,o),
(362,278,cs),
(318,266,o),
(254,252,o),
(155,252,cs)
);
}
);
width = 543;
}
);
note = cid00201;
unicode = 233;
}
{
glyphname = ecircumflex;
kernLeft = e;
kernRight = e;
layers = (
{
anchors = (
{
name = top;
pos = (284,653);
}
);
hints = (
{
horizontal = 1;
place = (-18,59);
type = Stem;
},
{
horizontal = 1;
place = (196,56);
type = Stem;
},
{
horizontal = 1;
place = (428,58);
type = Stem;
},
{
place = (62,65);
type = Stem;
},
{
place = (419,66);
type = Stem;
}
);
layerId = "481A290F-76EE-4968-957F-52614F4635C1";
shapes = (
{
closed = 1;
nodes = (
(322,627,o),
(370,598,o),
(403,570,cs),
(407,566,o),
(412,565,o),
(416,565,cs),
(426,565,o),
(434,572,o),
(434,581,cs),
(434,598,o),
(348,682,o),
(316,713,cs),
(308,721,o),
(289,725,o),
(272,725,cs),
(256,725,o),
(241,722,o),
(234,716,cs),
(186,671,o),
(115,594,o),
(115,581,cs),
(115,572,o),
(123,565,o),
(133,565,cs),
(137,565,o),
(142,566,o),
(146,570,cs),
(179,598,o),
(228,627,o),
(275,657,c)
);
},
{
closed = 1;
nodes = (
(140,196,ls),
(245,196,o),
(329,208,o),
(389,227,cs),
(478,255,o),
(485,271,o),
(485,340,cs),
(485,412,o),
(443,486,o),
(319,486,cs),
(189,486,o),
(87,351,o),
(69,255,c),
(67,255,o),
(60,254,o),
(59,254,cs),
(46,254,o),
(40,249,o),
(40,241,cs),
(40,231,o),
(50,218,o),
(62,209,c),
(62,195,ls),
(62,63,o),
(141,-18,o),
(244,-18,cs),
(411,-18,o),
(488,105,o),
(488,128,cs),
(488,135,o),
(484,140,o),
(478,140,cs),
(473,140,o),
(464,136,o),
(455,125,cs),
(401,68,o),
(329,41,o),
(244,41,cs),
(177,41,o),
(127,99,o),
(127,186,cs),
(127,196,l)
);
},
{
closed = 1;
nodes = (
(135,252,l),
(150,323,o),
(220,428,o),
(318,428,cs),
(387,428,o),
(419,399,o),
(419,341,cs),
(419,306,o),
(410,292,o),
(362,278,cs),
(318,266,o),
(254,252,o),
(155,252,cs)
);
}
);
width = 543;
}
);
note = cid00202;
unicode = 234;
}
{
glyphname = edieresis;
kernLeft = e;
kernRight = e;
layers = (
{
hints = (
{
horizontal = 1;
place = (-18,59);
type = Stem;
},
{
horizontal = 1;
place = (196,56);
type = Stem;
},
{
horizontal = 1;
place = (428,58);
type = Stem;
},
{
horizontal = 1;
place = (592,109);
type = Stem;
},
{
place = (130,101);
type = Stem;
},
{
place = (313,101);
type = Stem;
},
{
place = (419,66);
type = Stem;
},
{
place = (62,65);
type = Stem;
}
);
layerId = "481A290F-76EE-4968-957F-52614F4635C1";
shapes = (
{
closed = 1;
nodes = (
(396,592,o),
(414,611,o),
(414,639,cs),
(414,669,o),
(385,701,o),
(359,701,cs),
(330,701,o),
(313,682,o),
(313,653,cs),
(313,626,o),
(339,592,o),
(369,592,cs)
);
},
{
closed = 1;
nodes = (
(213,592,o),
(231,611,o),
(231,639,cs),
(231,669,o),
(202,701,o),
(176,701,cs),
(147,701,o),
(130,682,o),
(130,653,cs),
(130,626,o),
(156,592,o),
(186,592,cs)
);
},
{
closed = 1;
nodes = (
(140,196,ls),
(245,196,o),
(329,208,o),
(389,227,cs),
(478,255,o),
(485,271,o),
(485,340,cs),
(485,412,o),
(443,486,o),
(319,486,cs),
(189,486,o),
(87,351,o),
(69,255,c),
(67,255,o),
(60,254,o),
(59,254,cs),
(46,254,o),
(40,249,o),
(40,241,cs),
(40,231,o),
(50,218,o),
(62,209,c),
(62,195,ls),
(62,63,o),
(141,-18,o),
(244,-18,cs),
(411,-18,o),
(488,105,o),
(488,128,cs),
(488,135,o),
(484,140,o),
(478,140,cs),
(473,140,o),
(464,136,o),
(455,125,cs),
(401,68,o),
(329,41,o),
(244,41,cs),
(177,41,o),
(127,99,o),
(127,186,cs),
(127,196,l)
);
},
{
closed = 1;
nodes = (
(135,252,l),
(150,323,o),
(220,428,o),
(318,428,cs),
(387,428,o),
(419,399,o),
(419,341,cs),
(419,306,o),
(410,292,o),
(362,278,cs),
(318,266,o),
(254,252,o),
(155,252,cs)
);
}
);
width = 543;
}
);
note = cid00203;
unicode = 235;
}
{
glyphname = igrave;
kernLeft = i;
kernRight = i;
layers = (
{
hints = (
{
horizontal = 1;
place = (-10,723);
type = Stem;
},
{
place = (97,69);
type = Stem;
}
);
layerId = "481A290F-76EE-4968-957F-52614F4635C1";
shapes = (
{
closed = 1;
nodes = (
(237,602,o),
(209,630,o),
(87,712,cs),
(85,713,o),
(83,713,o),
(81,713,cs),
(62,713,o),
(22,678,o),
(22,659,cs),
(22,654,o),
(24,651,o),
(29,649,cs),
(95,625,o),
(164,604,o),
(209,577,cs),
(213,575,o),
(216,574,o),
(220,574,cs),
(230,574,o),
(237,582,o),
(237,591,cs)
);
},
{
closed = 1;
nodes = (
(97,105,ls),
(97,91,o),
(95,33,o),
(95,17,cs),
(95,1,o),
(128,-10,o),
(150,-10,cs),
(161,-10,o),
(169,-7,o),
(169,-1,cs),
(169,22,o),
(166,93,o),
(166,105,cs),
(166,368,ls),
(166,392,o),
(168,441,o),
(168,457,cs),
(168,473,o),
(135,484,o),
(113,484,cs),
(102,484,o),
(94,481,o),
(94,475,cs),
(94,452,o),
(97,387,o),
(97,368,cs)
);
}
);
width = 263;
}
);
note = cid00204;
unicode = 236;
}
{
glyphname = icircumflex;
kernLeft = i;
kernRight = i;
layers = (
{
hints = (
{
horizontal = 1;
place = (-10,735);
type = Stem;
},
{
place = (97,69);
type = Stem;
}
);
layerId = "481A290F-76EE-4968-957F-52614F4635C1";
shapes = (
{
closed = 1;
nodes = (
(181,627,o),
(229,598,o),
(262,570,cs),
(266,566,o),
(271,565,o),
(275,565,cs),
(285,565,o),
(293,572,o),
(293,581,cs),
(293,598,o),
(207,682,o),
(175,713,cs),
(167,721,o),
(148,725,o),
(131,725,cs),
(115,725,o),
(100,722,o),
(93,716,cs),
(45,671,o),
(-26,594,o),
(-26,581,cs),
(-26,572,o),
(-18,565,o),
(-8,565,cs),
(-4,565,o),
(1,566,o),
(5,570,cs),
(38,598,o),
(87,627,o),
(134,657,c)
);
},
{
closed = 1;
nodes = (
(97,105,ls),
(97,91,o),
(95,33,o),
(95,17,cs),
(95,1,o),
(128,-10,o),
(150,-10,cs),
(161,-10,o),
(169,-7,o),
(169,-1,cs),
(169,22,o),
(166,93,o),
(166,105,cs),
(166,368,ls),
(166,392,o),
(168,441,o),
(168,457,cs),
(168,473,o),
(135,484,o),
(113,484,cs),
(102,484,o),
(94,481,o),
(94,475,cs),
(94,452,o),
(97,387,o),
(97,368,cs)
);
}
);
width = 263;
}
);
note = cid00206;
unicode = 238;
}
{
glyphname = ntilde;
layers = (
{
hints = (
{
horizontal = 1;
place = (423,62);
type = Stem;
},
{
horizontal = 1;
place = (592,57);
type = Stem;
},
{
place = (92,66);
type = Stem;
},
{
place = (430,66);
type = Stem;
},
{
horizontal = 1;
place = (643,57);
type = Stem;
}
);
layerId = "481A290F-76EE-4968-957F-52614F4635C1";
shapes = (
{
closed = 1;
nodes = (
(449,682,o),
(449,684,o),
(449,686,cs),
(449,697,o),
(441,703,o),
(434,703,cs),
(428,703,o),
(422,699,o),
(418,691,cs),
(403,660,o),
(383,649,o),
(355,649,cs),
(320,649,o),
(296,700,o),
(236,700,cs),
(175,700,o),
(140,633,o),
(140,606,cs),
(140,595,o),
(148,589,o),
(155,589,cs),
(161,589,o),
(167,593,o),
(171,601,cs),
(186,632,o),
(206,643,o),
(234,643,cs),
(268,643,o),
(293,592,o),
(353,592,cs),
(404,592,o),
(438,637,o),
(448,679,cs)
);
},
{
closed = 1;
nodes = (
(428,16,ls),
(428,0,o),
(458,-11,o),
(480,-11,cs),
(491,-11,o),
(499,-8,o),
(499,-1,cs),
(499,22,o),
(496,93,o),
(496,105,cs),
(496,297,ls),
(496,379,o),
(477,485,o),
(348,485,cs),
(275,485,o),
(201,446,o),
(158,376,c),
(158,402,o),
(160,453,o),
(160,453,c),
(160,470,o),
(129,481,o),
(108,481,cs),
(97,481,o),
(89,478,o),
(89,471,cs),
(89,448,o),
(92,383,o),
(92,364,cs),
(92,115,ls),
(92,101,o),
(90,33,o),
(90,17,cs),
(90,0,o),
(121,-11,o),
(142,-11,cs),
(153,-11,o),
(161,-8,o),
(161,-1,cs),
(160,25,o),
(158,57,o),
(158,89,cs),
(158,105,ls),
(159,152,o),
(159,237,o),
(174,287,cs),
(204,387,o),
(279,423,o),
(348,423,cs),
(414,423,o),
(430,371,o),
(430,293,cs),
(430,115,ls),
(430,92,o),
(429,33,o),
(428,17,cs)
);
}
);
width = 588;
}
);
note = cid00209;
unicode = 241;
}
{
glyphname = oacute;
kernLeft = o;
kernRight = o;
layers = (
{
hints = (
{
horizontal = 1;
place = (-18,61);
type = Stem;
},
{
horizontal = 1;
place = (426,60);
type = Stem;
},
{
place = (56,67);
type = Stem;
},
{
place = (439,67);
type = Stem;
}
);
layerId = "481A290F-76EE-4968-957F-52614F4635C1";
shapes = (
{
closed = 1;
nodes = (
(398,651,o),
(400,654,o),
(400,659,cs),
(400,678,o),
(360,713,o),
(341,713,cs),
(339,713,o),
(337,713,o),
(335,712,cs),
(213,630,o),
(185,602,o),
(185,591,cs),
(185,582,o),
(192,574,o),
(202,574,cs),
(206,574,o),
(209,575,o),
(213,577,cs),
(258,604,o),
(327,625,o),
(393,649,cs)
);
},
{
closed = 1;
nodes = (
(190,450,o),
(184,454,o),
(177,454,cs),
(147,454,o),
(56,324,o),
(56,207,cs),
(56,68,o),
(133,-18,o),
(267,-18,cs),
(422,-18,o),
(506,117,o),
(506,245,cs),
(506,396,o),
(426,486,o),
(312,486,cs),
(256,486,o),
(220,465,o),
(194,445,c)
);
},
{
closed = 1;
nodes = (
(175,43,o),
(123,98,o),
(123,208,cs),
(123,312,o),
(200,426,o),
(306,426,cs),
(397,426,o),
(439,355,o),
(439,245,cs),
(439,130,o),
(364,43,o),
(267,43,cs)
);
}
);
width = 562;
}
);
note = cid00211;
unicode = 243;
}
{
glyphname = odieresis;
kernLeft = o;
kernRight = o;
layers = (
{
hints = (
{
horizontal = 1;
place = (-18,61);
type = Stem;
},
{
horizontal = 1;
place = (426,60);
type = Stem;
},
{
horizontal = 1;
place = (592,109);
type = Stem;
},
{
place = (56,67);
type = Stem;
},
{
place = (160,101);
type = Stem;
},
{
place = (343,101);
type = Stem;
},
{
place = (439,67);
type = Stem;
}
);
layerId = "481A290F-76EE-4968-957F-52614F4635C1";
shapes = (
{
closed = 1;
nodes = (
(426,592,o),
(444,611,o),
(444,639,cs),
(444,669,o),
(415,701,o),
(389,701,cs),
(360,701,o),
(343,682,o),
(343,653,cs),
(343,626,o),
(369,592,o),
(399,592,cs)
);
},
{
closed = 1;
nodes = (
(243,592,o),
(261,611,o),
(261,639,cs),
(261,669,o),
(232,701,o),
(206,701,cs),
(177,701,o),
(160,682,o),
(160,653,cs),
(160,626,o),
(186,592,o),
(216,592,cs)
);
},
{
closed = 1;
nodes = (
(190,450,o),
(184,454,o),
(177,454,cs),
(147,454,o),
(56,324,o),
(56,207,cs),
(56,68,o),
(133,-18,o),
(267,-18,cs),
(422,-18,o),
(506,117,o),
(506,245,cs),
(506,396,o),
(426,486,o),
(312,486,cs),
(256,486,o),
(220,465,o),
(194,445,c)
);
},
{
closed = 1;
nodes = (
(175,43,o),
(123,98,o),
(123,208,cs),
(123,312,o),
(200,426,o),
(306,426,cs),
(397,426,o),
(439,355,o),
(439,245,cs),
(439,130,o),
(364,43,o),
(267,43,cs)
);
}
);
width = 562;
}
);
note = cid00214;
unicode = 246;
}
{
glyphname = divide;
layers = (
{
hints = (
{
horizontal = 1;
place = (-1,139);
type = Stem;
},
{
horizontal = 1;
place = (225,62);
type = Stem;
},
{
horizontal = 1;
place = (373,139);
type = Stem;
},
{
place = (235,128);
type = Stem;
}
);
layerId = "481A290F-76EE-4968-957F-52614F4635C1";
shapes = (
{
closed = 1;
nodes = (
(341,373,o),
(363,396,o),
(363,432,cs),
(363,469,o),
(326,512,o),
(293,512,cs),
(255,512,o),
(235,488,o),
(235,450,cs),
(235,416,o),
(268,373,o),
(306,373,cs)
);
},
{
closed = 1;
nodes = (
(540,290,ls),
(512,288,o),
(491,287,o),
(470,287,cs),
(131,287,ls),
(99,287,o),
(69,288,o),
(49,289,cs),
(35,289,o),
(30,277,o),
(30,263,cs),
(30,244,o),
(39,222,o),
(53,222,cs),
(55,222,ls),
(71,224,o),
(106,225,o),
(130,225,cs),
(469,225,ls),
(490,225,o),
(519,223,o),
(550,223,cs),
(563,223,o),
(568,235,o),
(568,248,cs),
(568,267,o),
(557,290,o),
(541,290,cs)
);
},
{
closed = 1;
nodes = (
(341,-1,o),
(363,22,o),
(363,58,cs),
(363,95,o),
(326,138,o),
(293,138,cs),
(255,138,o),
(235,114,o),
(235,76,cs),
(235,42,o),
(268,-1,o),
(306,-1,cs)
);
}
);
width = 600;
}
);
note = cid00215;
unicode = 247;
}
{
glyphname = oslash;
layers = (
{
hints = (
{
horizontal = 1;
place = (-18,61);
type = Stem;
},
{
horizontal = 1;
place = (426,60);
type = Stem;
},
{
place = (56,67);
type = Stem;
},
{
place = (439,67);
type = Stem;
}
);
layerId = "481A290F-76EE-4968-957F-52614F4635C1";
shapes = (
{
closed = 1;
nodes = (
(173,-5,o),
(216,-18,o),
(267,-18,cs),
(422,-18,o),
(506,117,o),
(506,245,cs),
(506,314,o),
(489,370,o),
(460,411,c),
(470,423,o),
(480,433,o),
(486,440,cs),
(489,444,o),
(490,448,o),
(490,453,cs),
(490,473,o),
(468,498,o),
(453,498,cs),
(449,498,o),
(446,496,o),
(444,493,cs),
(436,481,o),
(428,469,o),
(417,454,c),
(387,475,o),
(352,486,o),
(312,486,cs),
(256,486,o),
(220,465,o),
(194,445,c),
(190,450,o),
(184,454,o),
(177,454,cs),
(147,454,o),
(56,324,o),
(56,207,cs),
(56,148,o),
(70,99,o),
(96,61,c),
(87,50,o),
(76,38,o),
(69,31,cs),
(66,27,o),
(64,23,o),
(64,18,cs),
(64,-1,o),
(88,-25,o),
(103,-25,cs),
(106,-25,o),
(110,-24,o),
(112,-20,c),
(120,-10,o),
(128,4,o),
(139,18,c)
);
},
{
closed = 1;
nodes = (
(140,115,l),
(129,140,o),
(123,171,o),
(123,208,cs),
(123,312,o),
(200,426,o),
(306,426,cs),
(335,426,o),
(358,419,o),
(377,406,c)
);
},
{
closed = 1;
nodes = (
(417,358,l),
(432,329,o),
(439,290,o),
(439,245,cs),
(439,130,o),
(364,43,o),
(267,43,cs),
(232,43,o),
(202,51,o),
(179,67,c)
);
}
);
width = 562;
}
);
note = cid00148;
unicode = 248;
}
{
glyphname = udieresis;
kernLeft = u;
kernRight = u;
layers = (
{
hints = (
{
horizontal = 1;
place = (-18,60);
type = Stem;
},
{
horizontal = 1;
place = (592,109);
type = Stem;
},
{
place = (153,101);
type = Stem;
},
{
place = (336,101);
type = Stem;
},
{
place = (92,68);
type = Stem;
},
{
place = (426,62);
type = Stem;
}
);
layerId = "481A290F-76EE-4968-957F-52614F4635C1";
shapes = (
{
closed = 1;
nodes = (
(419,592,o),
(437,611,o),
(437,639,cs),
(437,669,o),
(408,701,o),
(382,701,cs),
(353,701,o),
(336,682,o),
(336,653,cs),
(336,626,o),
(362,592,o),
(392,592,cs)
);
},
{
closed = 1;
nodes = (
(236,592,o),
(254,611,o),
(254,639,cs),
(254,669,o),
(225,701,o),
(199,701,cs),
(170,701,o),
(153,682,o),
(153,653,cs),
(153,626,o),
(179,592,o),
(209,592,cs)
);
},
{
closed = 1;
nodes = (
(500,459,ls),
(500,475,o),
(469,485,o),
(447,485,cs),
(435,485,o),
(426,482,o),
(426,475,cs),
(426,395,ls),
(426,359,o),
(426,322,o),
(425,301,cs),
(417,148,o),
(324,42,o),
(242,42,cs),
(188,42,o),
(160,97,o),
(160,175,cs),
(160,368,ls),
(160,391,o),
(162,440,o),
(162,456,cs),
(162,473,o),
(130,484,o),
(109,484,cs),
(97,484,o),
(89,481,o),
(89,474,cs),
(89,451,o),
(92,380,o),
(92,368,cs),
(92,171,ls),
(92,74,o),
(126,-18,o),
(242,-18,cs),
(324,-18,o),
(396,41,o),
(432,114,c),
(435,73,o),
(449,-13,o),
(483,-13,cs),
(505,-13,o),
(527,14,o),
(527,29,cs),
(527,31,o),
(527,33,o),
(526,35,cs),
(488,96,o),
(488,215,o),
(488,237,cs),
(488,351,o),
(496,433,o),
(500,457,cs)
);
}
);
width = 590;
}
);
note = cid00219;
unicode = 252;
}
{
glyphname = yacute;
layers = (
{
hints = (
{
horizontal = 1;
place = (-164,63);
type = Stem;
},
{
place = (11,468);
type = Stem;
}
);
layerId = "481A290F-76EE-4968-957F-52614F4635C1";
shapes = (
{
closed = 1;
nodes = (
(366,651,o),
(368,654,o),
(368,659,cs),
(368,678,o),
(328,713,o),
(309,713,cs),
(307,713,o),
(305,713,o),
(303,712,cs),
(181,630,o),
(153,602,o),
(153,591,cs),
(153,582,o),
(160,574,o),
(170,574,cs),
(174,574,o),
(177,575,o),
(181,577,cs),
(226,604,o),
(295,625,o),
(361,649,cs)
);
},
{
closed = 1;
nodes = (
(116,-164,ls),
(168,-164,o),
(199,-138,o),
(226,-82,cs),
(437,361,ls),
(449,385,o),
(465,415,o),
(476,435,cs),
(478,439,o),
(479,443,o),
(479,447,cs),
(479,468,o),
(450,485,o),
(430,485,cs),
(422,485,o),
(415,482,o),
(413,476,cs),
(403,445,o),
(390,410,o),
(377,383,cs),
(254,124,l),
(138,393,ls),
(127,418,o),
(117,443,o),
(108,467,cs),
(105,476,o),
(87,480,o),
(69,480,cs),
(49,480,o),
(29,475,o),
(29,464,cs),
(29,462,o),
(30,460,o),
(31,458,cs),
(43,437,o),
(63,397,o),
(72,377,cs),
(218,46,l),
(174,-46,ls),
(155,-87,o),
(134,-101,o),
(113,-101,cs),
(95,-101,o),
(74,-100,o),
(57,-82,cs),
(53,-77,o),
(48,-75,o),
(44,-75,cs),
(27,-75,o),
(11,-105,o),
(11,-124,cs),
(11,-130,o),
(13,-134,o),
(16,-137,cs),
(47,-162,o),
(80,-164,o),
(106,-164,cs)
);
}
);
width = 500;
}
);
note = cid00220;
unicode = 253;
}
{
glyphname = amacron;
kernLeft = a;
kernRight = a;
layers = (
{
hints = (
{
horizontal = 1;
place = (-18,60);
type = Stem;
},
{
horizontal = 1;
place = (428,58);
type = Stem;
},
{
horizontal = 1;
place = (617,62);
type = Stem;
},
{
place = (56,68);
type = Stem;
},
{
place = (415,61);
type = Stem;
},
{
place = (413,76);
type = Stem;
}
);
layerId = "481A290F-76EE-4968-957F-52614F4635C1";
shapes = (
{
closed = 1;
nodes = (
(395,617,ls),
(408,617,o),
(414,633,o),
(414,648,cs),
(414,664,o),
(408,679,o),
(396,679,cs),
(168,679,ls),
(155,679,o),
(149,664,o),
(149,649,cs),
(149,633,o),
(155,617,o),
(167,617,cs)
);
},
{
closed = 1;
nodes = (
(489,459,ls),
(489,475,o),
(457,485,o),
(434,485,cs),
(422,485,o),
(413,482,o),
(413,475,cs),
(413,420,l),
(390,466,o),
(350,486,o),
(303,486,cs),
(180,486,o),
(56,345,o),
(56,175,cs),
(56,49,o),
(120,-18,o),
(217,-18,cs),
(292,-18,o),
(365,24,o),
(415,118,c),
(420,63,o),
(438,-13,o),
(469,-13,cs),
(491,-13,o),
(513,14,o),
(513,29,cs),
(513,31,o),
(512,33,o),
(511,35,cs),
(476,89,o),
(476,164,o),
(476,193,cs),
(476,242,o),
(480,399,o),
(489,457,cs)
);
},
{
closed = 1;
nodes = (
(411,347,o),
(411,310,o),
(410,291,cs),
(403,143,o),
(311,42,o),
(216,42,cs),
(163,42,o),
(124,79,o),
(124,180,cs),
(124,322,o),
(221,428,o),
(303,428,cs),
(333,428,o),
(365,413,o),
(388,375,cs),
(390,372,o),
(392,371,o),
(395,371,cs),
(400,371,o),
(407,375,o),
(412,380,c)
);
}
);
width = 575;
}
);
note = cid09361;
unicode = 257;
}
{
glyphname = Emacron;
layers = (
{
hints = (
{
horizontal = 1;
place = (-3,67);
type = Stem;
},
{
horizontal = 1;
place = (350,59);
type = Stem;
},
{
horizontal = 1;
place = (636,59);
type = Stem;
},
{
horizontal = 1;
place = (784,62);
type = Stem;
},
{
place = (113,68);
type = Stem;
}
);
layerId = "481A290F-76EE-4968-957F-52614F4635C1";
shapes = (
{
closed = 1;
nodes = (
(433,784,ls),
(446,784,o),
(452,800,o),
(452,815,cs),
(452,831,o),
(446,846,o),
(434,846,cs),
(206,846,ls),
(193,846,o),
(187,831,o),
(187,816,cs),
(187,800,o),
(193,784,o),
(205,784,cs)
);
},
{
closed = 1;
nodes = (
(584,-2,ls),
(592,-2,o),
(595,5,o),
(595,14,cs),
(595,35,o),
(580,67,o),
(563,67,cs),
(562,67,ls),
(542,66,o),
(508,64,o),
(479,64,cs),
(181,59,l),
(181,344,l),
(393,356,ls),
(412,357,o),
(434,357,o),
(454,357,cs),
(496,357,ls),
(505,357,o),
(509,364,o),
(509,374,cs),
(509,394,o),
(493,424,o),
(475,424,cs),
(463,424,o),
(422,418,o),
(392,416,cs),
(181,403,l),
(181,627,l),
(448,645,ls),
(467,646,o),
(489,646,o),
(509,646,cs),
(551,646,ls),
(560,646,o),
(564,653,o),
(564,663,cs),
(564,682,o),
(548,712,o),
(530,712,cs),
(518,712,o),
(477,706,o),
(447,704,cs),
(176,686,l),
(174,687,o),
(141,699,o),
(123,699,cs),
(118,699,o),
(109,698,o),
(109,685,cs),
(109,680,o),
(110,673,o),
(111,661,cs),
(113,645,o),
(113,625,o),
(113,604,cs),
(113,402,l),
(107,402,o),
(101,403,o),
(96,404,cs),
(94,404,ls),
(88,404,o),
(86,400,o),
(86,393,cs),
(86,378,o),
(98,352,o),
(113,344,c),
(113,84,ls),
(113,68,o),
(106,46,o),
(106,37,cs),
(106,21,o),
(129,-10,o),
(148,-10,cs),
(168,-10,o),
(181,-3,o),
(202,-3,cs),
(480,1,l),
(496,1,ls),
(531,1,o),
(572,-1,o),
(583,-2,cs)
);
}
);
width = 638;
}
);
note = cid09369;
unicode = 274;
}
{
glyphname = Ecaron;
layers = (
{
hints = (
{
horizontal = 1;
place = (-3,67);
type = Stem;
},
{
horizontal = 1;
place = (350,59);
type = Stem;
},
{
horizontal = 1;
place = (636,59);
type = Stem;
},
{
place = (113,68);
type = Stem;
}
);
layerId = "481A290F-76EE-4968-957F-52614F4635C1";
shapes = (
{
closed = 1;
nodes = (
(272,834,o),
(223,863,o),
(190,891,cs),
(186,895,o),
(181,896,o),
(177,896,cs),
(167,896,o),
(159,889,o),
(159,880,cs),
(159,867,o),
(230,790,o),
(278,745,cs),
(285,739,o),
(300,736,o),
(316,736,cs),
(333,736,o),
(352,740,o),
(360,748,cs),
(392,779,o),
(478,863,o),
(478,880,cs),
(478,889,o),
(470,896,o),
(460,896,cs),
(456,896,o),
(451,895,o),
(447,891,cs),
(414,863,o),
(366,834,o),
(319,804,c)
);
},
{
closed = 1;
nodes = (
(584,-2,ls),
(592,-2,o),
(595,5,o),
(595,14,cs),
(595,35,o),
(580,67,o),
(563,67,cs),
(562,67,ls),
(542,66,o),
(508,64,o),
(479,64,cs),
(181,59,l),
(181,344,l),
(393,356,ls),
(412,357,o),
(434,357,o),
(454,357,cs),
(496,357,ls),
(505,357,o),
(509,364,o),
(509,374,cs),
(509,394,o),
(493,424,o),
(475,424,cs),
(463,424,o),
(422,418,o),
(392,416,cs),
(181,403,l),
(181,627,l),
(448,645,ls),
(467,646,o),
(489,646,o),
(509,646,cs),
(551,646,ls),
(560,646,o),
(564,653,o),
(564,663,cs),
(564,682,o),
(548,712,o),
(530,712,cs),
(518,712,o),
(477,706,o),
(447,704,cs),
(176,686,l),
(174,687,o),
(141,699,o),
(123,699,cs),
(118,699,o),
(109,698,o),
(109,685,cs),
(109,680,o),
(110,673,o),
(111,661,cs),
(113,645,o),
(113,625,o),
(113,604,cs),
(113,402,l),
(107,402,o),
(101,403,o),
(96,404,cs),
(94,404,ls),
(88,404,o),
(86,400,o),
(86,393,cs),
(86,378,o),
(98,352,o),
(113,344,c),
(113,84,ls),
(113,68,o),
(106,46,o),
(106,37,cs),
(106,21,o),
(129,-10,o),
(148,-10,cs),
(168,-10,o),
(181,-3,o),
(202,-3,cs),
(480,1,l),
(496,1,ls),
(531,1,o),
(572,-1,o),
(583,-2,cs)
);
}
);
width = 638;
}
);
note = cid09395;
unicode = 282;
}
{
glyphname = ecaron;
kernLeft = e;
kernRight = e;
layers = (
{
hints = (
{
horizontal = 1;
place = (-18,59);
type = Stem;
},
{
horizontal = 1;
place = (196,56);
type = Stem;
},
{
horizontal = 1;
place = (428,58);
type = Stem;
},
{
place = (62,65);
type = Stem;
},
{
place = (419,66);
type = Stem;
}
);
layerId = "481A290F-76EE-4968-957F-52614F4635C1";
shapes = (
{
closed = 1;
nodes = (
(224,667,o),
(175,696,o),
(142,724,cs),
(138,728,o),
(133,729,o),
(129,729,cs),
(119,729,o),
(111,722,o),
(111,713,cs),
(111,700,o),
(182,623,o),
(230,578,cs),
(237,572,o),
(252,569,o),
(268,569,cs),
(285,569,o),
(304,573,o),
(312,581,cs),
(344,612,o),
(430,696,o),
(430,713,cs),
(430,722,o),
(422,729,o),
(412,729,cs),
(408,729,o),
(403,728,o),
(399,724,cs),
(366,696,o),
(318,667,o),
(271,637,c)
);
},
{
closed = 1;
nodes = (
(140,196,ls),
(245,196,o),
(329,208,o),
(389,227,cs),
(478,255,o),
(485,271,o),
(485,340,cs),
(485,412,o),
(443,486,o),
(319,486,cs),
(189,486,o),
(87,351,o),
(69,255,c),
(67,255,o),
(61,254,o),
(60,254,cs),
(46,254,o),
(41,248,o),
(41,241,cs),
(41,231,o),
(50,218,o),
(62,209,c),
(62,195,ls),
(62,63,o),
(141,-18,o),
(244,-18,cs),
(411,-18,o),
(488,105,o),
(488,128,cs),
(488,135,o),
(484,140,o),
(478,140,cs),
(473,140,o),
(464,136,o),
(455,125,cs),
(401,68,o),
(329,41,o),
(244,41,cs),
(177,41,o),
(127,99,o),
(127,186,cs),
(127,196,l)
);
},
{
closed = 1;
nodes = (
(135,252,l),
(150,323,o),
(220,428,o),
(318,428,cs),
(387,428,o),
(419,399,o),
(419,341,cs),
(419,306,o),
(410,292,o),
(362,278,cs),
(318,266,o),
(254,252,o),
(155,252,cs)
);
}
);
width = 543;
}
);
note = cid09407;
unicode = 283;
}
{
color = 4;
glyphname = Itilde;
kernLeft = I;
kernRight = I;
layers = (
{
hints = (
{
horizontal = 1;
place = (759,57);
type = Stem;
},
{
place = (113,74);
type = Stem;
},
{
horizontal = 1;
place = (810,57);
type = Stem;
}
);
layerId = "481A290F-76EE-4968-957F-52614F4635C1";
shapes = (
{
closed = 1;
nodes = (
(340,849,o),
(340,851,o),
(340,853,cs),
(340,864,o),
(332,870,o),
(325,870,cs),
(319,870,o),
(313,866,o),
(309,858,cs),
(294,827,o),
(274,816,o),
(246,816,cs),
(211,816,o),
(187,867,o),
(127,867,cs),
(66,867,o),
(31,800,o),
(31,773,cs),
(31,762,o),
(39,756,o),
(46,756,cs),
(52,756,o),
(58,760,o),
(62,768,cs),
(77,799,o),
(97,810,o),
(125,810,cs),
(159,810,o),
(184,759,o),
(244,759,cs),
(295,759,o),
(329,804,o),
(339,846,cs)
);
},
{
ref = I;
}
);
width = 375;
}
);
note = cid09400;
unicode = 296;
}
{
glyphname = itilde;
kernLeft = i;
kernRight = i;
layers = (
{
hints = (
{
horizontal = 1;
place = (591,57);
type = Stem;
},
{
place = (97,69);
type = Stem;
},
{
horizontal = 1;
place = (642,57);
type = Stem;
}
);
layerId = "481A290F-76EE-4968-957F-52614F4635C1";
shapes = (
{
closed = 1;
nodes = (
(293,681,o),
(293,683,o),
(293,685,cs),
(293,696,o),
(285,702,o),
(278,702,cs),
(272,702,o),
(266,698,o),
(262,690,cs),
(247,659,o),
(227,648,o),
(199,648,cs),
(164,648,o),
(140,699,o),
(80,699,cs),
(19,699,o),
(-16,632,o),
(-16,605,cs),
(-16,594,o),
(-8,588,o),
(-1,588,cs),
(5,588,o),
(11,592,o),
(15,600,cs),
(30,631,o),
(50,642,o),
(78,642,cs),
(112,642,o),
(137,591,o),
(197,591,cs),
(248,591,o),
(282,636,o),
(292,678,cs)
);
},
{
closed = 1;
nodes = (
(97,105,ls),
(97,91,o),
(95,33,o),
(95,17,cs),
(95,1,o),
(128,-10,o),
(150,-10,cs),
(161,-10,o),
(169,-7,o),
(169,-1,cs),
(169,22,o),
(166,93,o),
(166,105,cs),
(166,368,ls),
(166,392,o),
(168,441,o),
(168,457,cs),
(168,473,o),
(135,484,o),
(113,484,cs),
(102,484,o),
(94,481,o),
(94,475,cs),
(94,452,o),
(97,387,o),
(97,368,cs)
);
}
);
width = 263;
}
);
note = cid09412;
unicode = 297;
}
{
glyphname = imacron;
kernLeft = i;
kernRight = i;
layers = (
{
hints = (
{
horizontal = 1;
place = (617,62);
type = Stem;
},
{
place = (97,69);
type = Stem;
}
);
layerId = "481A290F-76EE-4968-957F-52614F4635C1";
shapes = (
{
closed = 1;
nodes = (
(244,617,ls),
(257,617,o),
(263,633,o),
(263,648,cs),
(263,664,o),
(257,679,o),
(245,679,cs),
(17,679,ls),
(4,679,o),
(-2,664,o),
(-2,649,cs),
(-2,633,o),
(4,617,o),
(16,617,cs)
);
},
{
closed = 1;
nodes = (
(97,105,ls),
(97,91,o),
(95,33,o),
(95,17,cs),
(95,1,o),
(128,-10,o),
(150,-10,cs),
(161,-10,o),
(169,-7,o),
(169,-1,cs),
(169,22,o),
(166,93,o),
(166,105,cs),
(166,368,ls),
(166,392,o),
(168,441,o),
(168,457,cs),
(168,473,o),
(135,484,o),
(113,484,cs),
(102,484,o),
(94,481,o),
(94,475,cs),
(94,452,o),
(97,387,o),
(97,368,cs)
);
}
);
width = 263;
}
);
note = cid09362;
unicode = 299;
}
{
glyphname = lslash;
layers = (
{
hints = (
{
horizontal = 1;
place = (-11,718);
type = Stem;
},
{
place = (115,69);
type = Stem;
}
);
layerId = "481A290F-76EE-4968-957F-52614F4635C1";
shapes = (
{
closed = 1;
nodes = (
(115,105,ls),
(115,91,o),
(113,33,o),
(113,17,cs),
(113,0,o),
(145,-11,o),
(167,-11,cs),
(178,-11,o),
(187,-8,o),
(187,-1,cs),
(187,22,o),
(184,93,o),
(184,105,cs),
(184,338,l),
(223,367,l),
(289,416,ls),
(293,419,o),
(295,423,o),
(295,428,cs),
(295,445,o),
(272,467,o),
(254,467,cs),
(250,467,o),
(246,466,o),
(243,463,cs),
(224,447,o),
(208,433,o),
(188,418,cs),
(184,415,l),
(184,590,ls),
(184,614,o),
(186,663,o),
(186,679,cs),
(186,696,o),
(154,707,o),
(132,707,cs),
(121,707,o),
(112,704,o),
(112,697,cs),
(112,674,o),
(115,609,o),
(115,590,cs),
(115,362,l),
(82,337,ls),
(58,318,o),
(34,302,o),
(15,290,cs),
(10,286,o),
(7,282,o),
(7,276,cs),
(7,259,o),
(30,237,o),
(48,237,cs),
(51,237,o),
(55,238,o),
(58,240,cs),
(74,253,o),
(94,270,o),
(115,286,c)
);
}
);
width = 304;
}
);
note = cid00147;
unicode = 322;
}
{
glyphname = eng;
layers = (
{
hints = (
{
horizontal = 1;
place = (-162,62);
type = Stem;
},
{
horizontal = 1;
place = (423,62);
type = Stem;
},
{
place = (92,66);
type = Stem;
},
{
place = (430,66);
type = Stem;
}
);
layerId = "481A290F-76EE-4968-957F-52614F4635C1";
shapes = (
{
closed = 1;
nodes = (
(430,-31,ls),
(430,-72,o),
(417,-100,o),
(395,-100,cs),
(378,-100,o),
(360,-98,o),
(341,-75,cs),
(336,-69,o),
(330,-66,o),
(325,-66,cs),
(308,-66,o),
(292,-93,o),
(292,-112,cs),
(292,-137,o),
(334,-162,o),
(395,-162,cs),
(479,-162,o),
(496,-87,o),
(496,-30,cs),
(496,297,ls),
(496,379,o),
(477,485,o),
(348,485,cs),
(275,485,o),
(201,446,o),
(158,376,c),
(158,402,o),
(160,453,o),
(160,453,c),
(160,470,o),
(129,481,o),
(108,481,cs),
(97,481,o),
(89,478,o),
(89,471,cs),
(89,448,o),
(92,383,o),
(92,364,cs),
(92,115,ls),
(92,101,o),
(90,33,o),
(90,17,cs),
(90,0,o),
(121,-11,o),
(142,-11,cs),
(153,-11,o),
(161,-8,o),
(161,-1,cs),
(160,25,o),
(158,57,o),
(158,89,cs),
(158,105,ls),
(159,152,o),
(159,237,o),
(174,287,cs),
(204,387,o),
(279,423,o),
(348,423,cs),
(414,423,o),
(430,371,o),
(430,293,cs)
);
}
);
width = 588;
}
);
note = cid09436;
unicode = 331;
}
{
glyphname = Omacron;
kernLeft = O;
kernRight = O;
layers = (
{
hints = (
{
horizontal = 1;
place = (-18,64);
type = Stem;
},
{
horizontal = 1;
place = (653,60);
type = Stem;
},
{
horizontal = 1;
place = (784,62);
type = Stem;
},
{
place = (47,69);
type = Stem;
},
{
place = (619,70);
type = Stem;
}
);
layerId = "481A290F-76EE-4968-957F-52614F4635C1";
shapes = (
{
closed = 1;
nodes = (
(486,784,ls),
(499,784,o),
(505,800,o),
(505,815,cs),
(505,831,o),
(499,846,o),
(487,846,cs),
(259,846,ls),
(246,846,o),
(240,831,o),
(240,816,cs),
(240,800,o),
(246,784,o),
(258,784,cs)
);
},
{
closed = 1;
nodes = (
(211,652,o),
(202,658,o),
(191,658,cs),
(151,658,o),
(47,516,o),
(47,337,cs),
(47,133,o),
(145,-18,o),
(360,-18,cs),
(586,-18,o),
(689,157,o),
(689,363,cs),
(689,565,o),
(579,713,o),
(399,713,cs),
(320,713,o),
(264,687,o),
(217,646,c)
);
},
{
closed = 1;
nodes = (
(188,46,o),
(116,179,o),
(116,339,cs),
(116,545,o),
(277,653,o),
(393,653,cs),
(543,653,o),
(619,508,o),
(619,371,cs),
(619,202,o),
(548,46,o),
(352,46,cs)
);
}
);
width = 745;
}
);
note = cid09370;
unicode = 332;
}
{
glyphname = oe;
layers = (
{
hints = (
{
horizontal = 1;
place = (-18,62);
type = Stem;
},
{
horizontal = 1;
place = (198,54);
type = Stem;
},
{
horizontal = 1;
place = (426,60);
type = Stem;
},
{
place = (66,67);
type = Stem;
},
{
place = (441,70);
type = Stem;
},
{
place = (803,66);
type = Stem;
}
);
layerId = "481A290F-76EE-4968-957F-52614F4635C1";
shapes = (
{
closed = 1;
nodes = (
(483,37,o),
(548,-18,o),
(628,-18,cs),
(795,-18,o),
(872,105,o),
(872,128,cs),
(872,135,o),
(868,140,o),
(862,140,cs),
(857,140,o),
(848,136,o),
(839,125,cs),
(785,68,o),
(713,44,o),
(628,44,cs),
(576,44,o),
(511,90,o),
(511,199,c),
(524,199,o),
(537,198,o),
(549,198,cs),
(642,198,o),
(717,208,o),
(773,225,cs),
(854,251,o),
(869,281,o),
(869,340,cs),
(869,412,o),
(827,486,o),
(703,486,cs),
(628,486,o),
(541,432,o),
(494,351,c),
(466,439,o),
(403,486,o),
(318,486,cs),
(262,486,o),
(230,465,o),
(204,445,c),
(200,450,o),
(194,454,o),
(187,454,cs),
(157,454,o),
(66,324,o),
(66,207,cs),
(66,68,o),
(147,-18,o),
(273,-18,cs),
(366,-18,o),
(429,25,o),
(467,87,c)
);
},
{
closed = 1;
nodes = (
(531,323,o),
(604,426,o),
(702,426,cs),
(761,426,o),
(803,397,o),
(803,341,cs),
(803,310,o),
(793,294,o),
(736,278,cs),
(689,265,o),
(617,252,o),
(516,252,c)
);
},
{
closed = 1;
nodes = (
(191,44,o),
(133,98,o),
(133,208,cs),
(133,312,o),
(202,425,o),
(312,425,cs),
(397,425,o),
(441,356,o),
(441,245,cs),
(441,130,o),
(364,44,o),
(273,44,cs)
);
}
);
width = 948;
}
);
note = cid00149;
unicode = 339;
}
{
glyphname = scaron;
layers = (
{
hints = (
{
horizontal = 1;
place = (-18,58);
type = Stem;
},
{
horizontal = 1;
place = (431,55);
type = Stem;
},
{
place = (83,65);
type = Stem;
},
{
place = (386,66);
type = Stem;
}
);
layerId = "481A290F-76EE-4968-957F-52614F4635C1";
shapes = (
{
closed = 1;
nodes = (
(208,667,o),
(159,696,o),
(126,724,cs),
(122,728,o),
(117,729,o),
(113,729,cs),
(103,729,o),
(95,722,o),
(95,713,cs),
(95,700,o),
(166,623,o),
(214,578,cs),
(221,572,o),
(236,569,o),
(252,569,cs),
(269,569,o),
(288,573,o),
(296,581,cs),
(328,612,o),
(414,696,o),
(414,713,cs),
(414,722,o),
(406,729,o),
(396,729,cs),
(392,729,o),
(387,728,o),
(383,724,cs),
(350,696,o),
(302,667,o),
(255,637,c)
);
},
{
closed = 1;
nodes = (
(295,218,ls),
(368,200,o),
(386,173,o),
(386,126,cs),
(386,80,o),
(341,40,o),
(260,40,cs),
(152,40,o),
(125,86,o),
(109,126,cs),
(107,131,o),
(103,133,o),
(99,133,cs),
(84,133,o),
(59,105,o),
(59,85,cs),
(59,72,o),
(106,-18,o),
(260,-18,cs),
(378,-18,o),
(452,48,o),
(452,128,cs),
(452,211,o),
(399,253,o),
(312,273,cs),
(216,296,ls),
(161,309,o),
(148,327,o),
(148,354,cs),
(148,397,o),
(189,431,o),
(266,431,cs),
(289,431,o),
(350,428,o),
(380,382,cs),
(386,374,o),
(390,369,o),
(396,369,cs),
(411,369,o),
(428,396,o),
(428,414,cs),
(428,418,o),
(428,421,o),
(426,423,cs),
(388,463,o),
(343,486,o),
(266,486,cs),
(167,486,o),
(83,433,o),
(83,356,cs),
(83,294,o),
(120,259,o),
(195,242,cs)
);
}
);
width = 510;
}
);
note = cid00227;
unicode = 353;
}
{
glyphname = Umacron;
kernLeft = U;
kernRight = U;
layers = (
{
hints = (
{
horizontal = 1;
place = (-18,63);
type = Stem;
},
{
horizontal = 1;
place = (784,62);
type = Stem;
},
{
place = (107,72);
type = Stem;
},
{
place = (534,72);
type = Stem;
}
);
layerId = "481A290F-76EE-4968-957F-52614F4635C1";
shapes = (
{
closed = 1;
nodes = (
(469,784,ls),
(482,784,o),
(488,800,o),
(488,815,cs),
(488,831,o),
(482,846,o),
(470,846,cs),
(242,846,ls),
(229,846,o),
(223,831,o),
(223,816,cs),
(223,800,o),
(229,784,o),
(241,784,cs)
);
},
{
closed = 1;
nodes = (
(534,242,ls),
(534,128,o),
(455,45,o),
(343,45,cs),
(237,45,o),
(179,89,o),
(179,210,cs),
(179,584,ls),
(179,619,o),
(181,664,o),
(181,680,cs),
(181,697,o),
(151,707,o),
(129,707,cs),
(115,707,o),
(104,703,o),
(104,695,cs),
(104,672,o),
(107,627,o),
(107,586,cs),
(107,198,ls),
(107,58,o),
(182,-18,o),
(343,-18,cs),
(501,-18,o),
(606,81,o),
(606,230,cs),
(606,594,ls),
(606,629,o),
(608,666,o),
(608,682,cs),
(608,699,o),
(578,709,o),
(556,709,cs),
(542,709,o),
(531,705,o),
(531,697,cs),
(531,681,o),
(534,622,o),
(534,595,cs)
);
}
);
width = 710;
}
);
note = cid09368;
unicode = 362;
}
{
glyphname = Uring;
kernLeft = U;
kernRight = U;
layers = (
{
hints = (
{
horizontal = 1;
place = (-18,63);
type = Stem;
},
{
horizontal = 1;
place = (721,48);
type = Stem;
},
{
horizontal = 1;
place = (861,48);
type = Stem;
},
{
place = (107,72);
type = Stem;
},
{
place = (272,48);
type = Stem;
},
{
place = (412,48);
type = Stem;
},
{
place = (534,72);
type = Stem;
}
);
layerId = "481A290F-76EE-4968-957F-52614F4635C1";
shapes = (
{
closed = 1;
nodes = (
(460,866,o),
(417,909,o),
(366,909,cs),
(315,909,o),
(272,866,o),
(272,815,cs),
(272,764,o),
(315,721,o),
(366,721,cs),
(417,721,o),
(460,764,o),
(460,815,cs)
);
},
{
closed = 1;
nodes = (
(534,242,ls),
(534,128,o),
(455,45,o),
(343,45,cs),
(237,45,o),
(179,89,o),
(179,210,cs),
(179,584,ls),
(179,619,o),
(181,664,o),
(181,680,cs),
(181,697,o),
(151,707,o),
(129,707,cs),
(115,707,o),
(104,703,o),
(104,695,cs),
(104,672,o),
(107,627,o),
(107,586,cs),
(107,198,ls),
(107,58,o),
(182,-18,o),
(343,-18,cs),
(501,-18,o),
(606,81,o),
(606,230,cs),
(606,594,ls),
(606,629,o),
(608,666,o),
(608,682,cs),
(608,699,o),
(578,709,o),
(556,709,cs),
(542,709,o),
(531,705,o),
(531,697,cs),
(531,681,o),
(534,622,o),
(534,595,cs)
);
},
{
closed = 1;
nodes = (
(412,789,o),
(392,769,o),
(366,769,cs),
(340,769,o),
(320,789,o),
(320,815,cs),
(320,841,o),
(340,861,o),
(366,861,cs),
(392,861,o),
(412,841,o),
(412,815,cs)
);
}
);
width = 710;
}
);
note = cid09404;
unicode = 366;
}
{
glyphname = Zcaron;
layers = (
{
hints = (
{
horizontal = 1;
place = (5,63);
type = Stem;
},
{
horizontal = 1;
place = (628,61);
type = Stem;
},
{
place = (28,544);
type = Stem;
}
);
layerId = "481A290F-76EE-4968-957F-52614F4635C1";
shapes = (
{
closed = 1;
nodes = (
(266,834,o),
(217,863,o),
(184,891,cs),
(180,895,o),
(175,896,o),
(171,896,cs),
(161,896,o),
(153,889,o),
(153,880,cs),
(153,867,o),
(224,790,o),
(272,745,cs),
(279,739,o),
(294,736,o),
(310,736,cs),
(327,736,o),
(346,740,o),
(354,748,cs),
(386,779,o),
(472,863,o),
(472,880,cs),
(472,889,o),
(464,896,o),
(454,896,cs),
(450,896,o),
(445,895,o),
(441,891,cs),
(408,863,o),
(360,834,o),
(313,804,c)
);
},
{
closed = 1;
nodes = (
(561,-1,ls),
(569,-1,o),
(572,6,o),
(572,15,cs),
(572,36,o),
(557,68,o),
(540,68,cs),
(539,68,ls),
(519,67,o),
(488,67,o),
(456,67,cs),
(410,68,o),
(341,68,o),
(286,68,cs),
(226,68,o),
(176,66,o),
(128,62,c),
(231,227,o),
(381,444,o),
(517,610,cs),
(527,622,o),
(539,633,o),
(555,639,cs),
(560,641,o),
(562,646,o),
(562,652,cs),
(562,672,o),
(540,705,o),
(520,705,cs),
(503,705,o),
(471,699,o),
(440,697,cs),
(198,681,ls),
(182,680,o),
(166,679,o),
(151,679,cs),
(128,679,o),
(107,681,o),
(93,683,cs),
(91,683,ls),
(85,683,o),
(83,678,o),
(83,671,cs),
(83,650,o),
(102,612,o),
(123,612,cs),
(124,612,ls),
(137,613,o),
(167,617,o),
(199,619,cs),
(451,637,l),
(306,450,o),
(198,299,o),
(62,88,cs),
(57,80,o),
(33,63,o),
(29,51,cs),
(28,48,o),
(28,46,o),
(28,43,cs),
(28,20,o),
(53,-7,o),
(69,-7,cs),
(81,-7,o),
(92,-1,o),
(103,0,cs),
(165,4,o),
(221,5,o),
(292,5,cs),
(457,5,ls),
(497,4,o),
(547,0,o),
(560,-1,cs)
);
}
);
width = 600;
}
);
note = cid00225;
unicode = 381;
}
{
glyphname = florin;
layers = (
{
hints = (
{
horizontal = 1;
place = (-185,66);
type = Stem;
},
{
horizontal = 1;
place = (382,60);
type = Stem;
},
{
horizontal = 1;
place = (660,66);
type = Stem;
},
{
place = (230,70);
type = Stem;
},
{
place = (227,69);
type = Stem;
}
);
layerId = "481A290F-76EE-4968-957F-52614F4635C1";
shapes = (
{
closed = 1;
nodes = (
(430,430,ls),
(402,428,o),
(380,427,o),
(359,427,cs),
(300,427,l),
(316,628,o),
(339,645,o),
(369,645,cs),
(394,645,o),
(416,635,o),
(444,593,cs),
(447,589,o),
(450,587,o),
(453,587,cs),
(465,587,o),
(479,614,o),
(479,636,cs),
(479,669,o),
(423,711,o),
(367,711,cs),
(263,711,o),
(240,545,o),
(230,427,c),
(190,427,ls),
(158,427,o),
(128,428,o),
(108,429,cs),
(97,429,o),
(92,418,o),
(92,404,cs),
(92,386,o),
(100,364,o),
(112,364,cs),
(113,364,ls),
(129,366,o),
(165,367,o),
(189,367,cs),
(227,367,l),
(218,252,o),
(209,112,o),
(199,22,cs),
(184,-115,o),
(166,-134,o),
(136,-134,cs),
(111,-134,o),
(89,-124,o),
(61,-82,cs),
(58,-78,o),
(55,-76,o),
(52,-76,cs),
(40,-76,o),
(26,-103,o),
(26,-125,cs),
(26,-158,o),
(83,-200,o),
(138,-200,cs),
(204,-200,o),
(250,-139,o),
(268,23,cs),
(278,118,o),
(288,255,o),
(296,367,c),
(358,367,ls),
(379,367,o),
(408,365,o),
(439,365,cs),
(450,365,o),
(454,376,o),
(454,389,cs),
(454,408,o),
(445,430,o),
(431,430,cs)
);
}
);
width = 500;
}
);
note = cid00105;
unicode = 402;
}
{
color = 4;
glyphname = Istroke;
kernLeft = I;
kernRight = I;
layers = (
{
layerId = "481A290F-76EE-4968-957F-52614F4635C1";
shapes = (
{
closed = 1;
nodes = (
(297,442,ls),
(269,440,o),
(248,440,o),
(226,440,cs),
(158,440,ls),
(126,440,o),
(98,441,o),
(78,442,cs),
(66,442,o),
(62,431,o),
(62,418,cs),
(62,400,o),
(70,379,o),
(82,379,cs),
(83,379,ls),
(99,379,o),
(133,382,o),
(157,382,cs),
(225,382,ls),
(251,382,o),
(272,380,o),
(303,380,cs),
(314,380,o),
(318,391,o),
(318,404,cs),
(318,422,o),
(309,442,o),
(298,442,cs)
);
},
{
ref = I;
}
);
width = 375;
}
);
unicode = 407;
}
{
glyphname = Acaron;
kernLeft = A;
kernRight = A;
layers = (
{
hints = (
{
horizontal = 1;
place = (218,65);
type = Stem;
},
{
place = (-1,692);
type = Stem;
},
{
horizontal = 1;
place = (225,65);
type = Stem;
}
);
layerId = "481A290F-76EE-4968-957F-52614F4635C1";
shapes = (
{
closed = 1;
nodes = (
(106,218,l),
(17,45,o),
(13,39,o),
(3,23,cs),
(0,19,o),
(-1,15,o),
(-1,12,cs),
(-1,-1,o),
(17,-7,o),
(36,-7,cs),
(56,-7,o),
(77,-1,o),
(81,10,cs),
(89,33,o),
(107,77,o),
(118,99,cs),
(137,136,o),
(158,179,o),
(180,225,c),
(182,225,o),
(507,239,o),
(507,239,c),
(529,188,o),
(551,140,o),
(571,98,cs),
(582,74,o),
(599,27,o),
(607,3,cs),
(609,-5,o),
(623,-9,o),
(638,-9,cs),
(661,-9,o),
(691,0,o),
(691,16,cs),
(691,19,o),
(689,22,o),
(687,26,c),
(665,57,o),
(639,103,o),
(629,125,cs),
(551,289,o),
(458,499,o),
(400,653,cs),
(399,655,o),
(399,658,o),
(399,660,cs),
(399,667,o),
(402,674,o),
(402,680,cs),
(402,681,o),
(401,683,o),
(401,684,c),
(396,697,o),
(366,711,o),
(344,711,cs),
(336,711,o),
(329,710,o),
(325,705,cs),
(318,697,o),
(317,665,o),
(312,653,cs),
(279,571,o),
(206,418,o),
(138,283,c),
(119,283,ls),
(103,283,o),
(92,284,o),
(80,285,cs),
(78,285,ls),
(70,285,o),
(67,279,o),
(67,270,cs),
(67,250,o),
(83,218,o),
(99,218,cs)
);
},
{
closed = 1;
nodes = (
(210,285,l),
(265,401,o),
(322,524,o),
(356,601,c),
(384,527,o),
(433,410,o),
(482,296,c)
);
},
{
closed = 1;
nodes = (
(298,834,o),
(249,863,o),
(216,891,cs),
(212,895,o),
(207,896,o),
(203,896,cs),
(193,896,o),
(185,889,o),
(185,880,cs),
(185,867,o),
(256,790,o),
(304,745,cs),
(311,739,o),
(326,736,o),
(342,736,cs),
(359,736,o),
(378,740,o),
(386,748,cs),
(418,779,o),
(504,863,o),
(504,880,cs),
(504,889,o),
(496,896,o),
(486,896,cs),
(482,896,o),
(477,895,o),
(473,891,cs),
(440,863,o),
(392,834,o),
(345,804,c)
);
}
);
width = 690;
}
);
note = cid09394;
unicode = 461;
}
{
glyphname = acaron;
kernLeft = a;
kernRight = a;
layers = (
{
hints = (
{
horizontal = 1;
place = (-18,60);
type = Stem;
},
{
horizontal = 1;
place = (428,58);
type = Stem;
},
{
place = (57,68);
type = Stem;
},
{
place = (416,61);
type = Stem;
},
{
place = (414,76);
type = Stem;
}
);
layerId = "481A290F-76EE-4968-957F-52614F4635C1";
shapes = (
{
closed = 1;
nodes = (
(235,667,o),
(186,696,o),
(153,724,cs),
(149,728,o),
(144,729,o),
(140,729,cs),
(130,729,o),
(122,722,o),
(122,713,cs),
(122,700,o),
(193,623,o),
(241,578,cs),
(248,572,o),
(263,569,o),
(279,569,cs),
(296,569,o),
(315,573,o),
(323,581,cs),
(355,612,o),
(441,696,o),
(441,713,cs),
(441,722,o),
(433,729,o),
(423,729,cs),
(419,729,o),
(414,728,o),
(410,724,cs),
(377,696,o),
(329,667,o),
(282,637,c)
);
},
{
closed = 1;
nodes = (
(490,459,ls),
(490,475,o),
(458,485,o),
(435,485,cs),
(423,485,o),
(414,482,o),
(414,475,cs),
(414,420,l),
(391,466,o),
(351,486,o),
(304,486,cs),
(181,486,o),
(57,345,o),
(57,175,cs),
(57,49,o),
(121,-18,o),
(218,-18,cs),
(293,-18,o),
(366,24,o),
(416,118,c),
(421,63,o),
(439,-13,o),
(470,-13,cs),
(492,-13,o),
(514,14,o),
(514,29,cs),
(514,31,o),
(513,33,o),
(512,35,cs),
(477,89,o),
(477,164,o),
(477,193,cs),
(477,242,o),
(481,399,o),
(490,457,cs)
);
},
{
closed = 1;
nodes = (
(412,347,o),
(412,310,o),
(411,291,cs),
(404,143,o),
(312,42,o),
(217,42,cs),
(164,42,o),
(125,79,o),
(125,180,cs),
(125,322,o),
(222,428,o),
(304,428,cs),
(334,428,o),
(366,413,o),
(389,375,cs),
(391,372,o),
(393,371,o),
(396,371,cs),
(401,371,o),
(408,375,o),
(413,380,c)
);
}
);
width = 572;
}
);
note = cid09406;
unicode = 462;
}
{
glyphname = icaron;
kernLeft = i;
kernRight = i;
layers = (
{
hints = (
{
horizontal = 1;
place = (-10,739);
type = Stem;
},
{
place = (97,69);
type = Stem;
}
);
layerId = "481A290F-76EE-4968-957F-52614F4635C1";
shapes = (
{
closed = 1;
nodes = (
(88,667,o),
(39,696,o),
(6,724,cs),
(2,728,o),
(-3,729,o),
(-7,729,cs),
(-17,729,o),
(-25,722,o),
(-25,713,cs),
(-25,700,o),
(46,623,o),
(94,578,cs),
(101,572,o),
(116,569,o),
(132,569,cs),
(149,569,o),
(168,573,o),
(176,581,cs),
(208,612,o),
(294,696,o),
(294,713,cs),
(294,722,o),
(286,729,o),
(276,729,cs),
(272,729,o),
(267,728,o),
(263,724,cs),
(230,696,o),
(182,667,o),
(135,637,c)
);
},
{
closed = 1;
nodes = (
(97,105,ls),
(97,91,o),
(95,33,o),
(95,17,cs),
(95,1,o),
(128,-10,o),
(150,-10,cs),
(161,-10,o),
(169,-7,o),
(169,-1,cs),
(169,22,o),
(166,93,o),
(166,105,cs),
(166,368,ls),
(166,392,o),
(168,441,o),
(168,457,cs),
(168,473,o),
(135,484,o),
(113,484,cs),
(102,484,o),
(94,481,o),
(94,475,cs),
(94,452,o),
(97,387,o),
(97,368,cs)
);
}
);
width = 263;
}
);
note = cid09410;
unicode = 464;
}
{
glyphname = Ocaron;
kernLeft = O;
kernRight = O;
layers = (
{
hints = (
{
horizontal = 1;
place = (-18,64);
type = Stem;
},
{
horizontal = 1;
place = (653,60);
type = Stem;
},
{
place = (47,69);
type = Stem;
},
{
place = (619,70);
type = Stem;
}
);
layerId = "481A290F-76EE-4968-957F-52614F4635C1";
shapes = (
{
closed = 1;
nodes = (
(325,834,o),
(276,863,o),
(243,891,cs),
(239,895,o),
(234,896,o),
(230,896,cs),
(220,896,o),
(212,889,o),
(212,880,cs),
(212,867,o),
(283,790,o),
(331,745,cs),
(338,739,o),
(353,736,o),
(369,736,cs),
(386,736,o),
(405,740,o),
(413,748,cs),
(445,779,o),
(531,863,o),
(531,880,cs),
(531,889,o),
(523,896,o),
(513,896,cs),
(509,896,o),
(504,895,o),
(500,891,cs),
(467,863,o),
(419,834,o),
(372,804,c)
);
},
{
closed = 1;
nodes = (
(211,652,o),
(202,658,o),
(191,658,cs),
(151,658,o),
(47,516,o),
(47,337,cs),
(47,133,o),
(145,-18,o),
(360,-18,cs),
(586,-18,o),
(689,157,o),
(689,363,cs),
(689,565,o),
(579,713,o),
(399,713,cs),
(320,713,o),
(264,687,o),
(217,646,c)
);
},
{
closed = 1;
nodes = (
(188,46,o),
(116,179,o),
(116,339,cs),
(116,545,o),
(277,653,o),
(393,653,cs),
(543,653,o),
(619,508,o),
(619,371,cs),
(619,202,o),
(548,46,o),
(352,46,cs)
);
}
);
width = 745;
}
);
note = cid09401;
unicode = 465;
}
{
glyphname = ocaron;
kernLeft = o;
kernRight = o;
layers = (
{
hints = (
{
horizontal = 1;
place = (-18,61);
type = Stem;
},
{
horizontal = 1;
place = (426,60);
type = Stem;
},
{
place = (56,67);
type = Stem;
},
{
place = (439,67);
type = Stem;
}
);
layerId = "481A290F-76EE-4968-957F-52614F4635C1";
shapes = (
{
closed = 1;
nodes = (
(264,667,o),
(215,696,o),
(182,724,cs),
(178,728,o),
(173,729,o),
(169,729,cs),
(159,729,o),
(151,722,o),
(151,713,cs),
(151,700,o),
(222,623,o),
(270,578,cs),
(277,572,o),
(292,569,o),
(308,569,cs),
(325,569,o),
(344,573,o),
(352,581,cs),
(384,612,o),
(470,696,o),
(470,713,cs),
(470,722,o),
(462,729,o),
(452,729,cs),
(448,729,o),
(443,728,o),
(439,724,cs),
(406,696,o),
(358,667,o),
(311,637,c)
);
},
{
closed = 1;
nodes = (
(190,450,o),
(184,454,o),
(177,454,cs),
(147,454,o),
(56,324,o),
(56,207,cs),
(56,68,o),
(133,-18,o),
(267,-18,cs),
(422,-18,o),
(506,117,o),
(506,245,cs),
(506,396,o),
(426,486,o),
(312,486,cs),
(256,486,o),
(220,465,o),
(194,445,c)
);
},
{
closed = 1;
nodes = (
(175,43,o),
(123,98,o),
(123,208,cs),
(123,312,o),
(200,426,o),
(306,426,cs),
(397,426,o),
(439,355,o),
(439,245,cs),
(439,130,o),
(364,43,o),
(267,43,cs)
);
}
);
width = 562;
}
);
note = cid09413;
unicode = 466;
}
{
glyphname = Ucaron;
kernLeft = U;
kernRight = U;
layers = (
{
hints = (
{
horizontal = 1;
place = (-18,63);
type = Stem;
},
{
place = (107,72);
type = Stem;
},
{
place = (534,72);
type = Stem;
}
);
layerId = "481A290F-76EE-4968-957F-52614F4635C1";
shapes = (
{
closed = 1;
nodes = (
(308,834,o),
(259,863,o),
(226,891,cs),
(222,895,o),
(217,896,o),
(213,896,cs),
(203,896,o),
(195,889,o),
(195,880,cs),
(195,867,o),
(266,790,o),
(314,745,cs),
(321,739,o),
(336,736,o),
(352,736,cs),
(369,736,o),
(388,740,o),
(396,748,cs),
(428,779,o),
(514,863,o),
(514,880,cs),
(514,889,o),
(506,896,o),
(496,896,cs),
(492,896,o),
(487,895,o),
(483,891,cs),
(450,863,o),
(402,834,o),
(355,804,c)
);
},
{
closed = 1;
nodes = (
(534,242,ls),
(534,128,o),
(455,45,o),
(343,45,cs),
(237,45,o),
(179,89,o),
(179,210,cs),
(179,584,ls),
(179,619,o),
(181,664,o),
(181,680,cs),
(181,697,o),
(151,707,o),
(129,707,cs),
(115,707,o),
(104,703,o),
(104,695,cs),
(104,672,o),
(107,627,o),
(107,586,cs),
(107,198,ls),
(107,58,o),
(182,-18,o),
(343,-18,cs),
(501,-18,o),
(606,81,o),
(606,230,cs),
(606,594,ls),
(606,629,o),
(608,666,o),
(608,682,cs),
(608,699,o),
(578,709,o),
(556,709,cs),
(542,709,o),
(531,705,o),
(531,697,cs),
(531,681,o),
(534,622,o),
(534,595,cs)
);
}
);
width = 710;
}
);
note = cid09403;
unicode = 467;
}
{
glyphname = ucaron;
kernLeft = u;
kernRight = u;
layers = (
{
hints = (
{
horizontal = 1;
place = (-18,60);
type = Stem;
},
{
place = (92,68);
type = Stem;
},
{
place = (426,62);
type = Stem;
}
);
layerId = "481A290F-76EE-4968-957F-52614F4635C1";
shapes = (
{
closed = 1;
nodes = (
(248,667,o),
(199,696,o),
(166,724,cs),
(162,728,o),
(157,729,o),
(153,729,cs),
(143,729,o),
(135,722,o),
(135,713,cs),
(135,700,o),
(206,623,o),
(254,578,cs),
(261,572,o),
(276,569,o),
(292,569,cs),
(309,569,o),
(328,573,o),
(336,581,cs),
(368,612,o),
(454,696,o),
(454,713,cs),
(454,722,o),
(446,729,o),
(436,729,cs),
(432,729,o),
(427,728,o),
(423,724,cs),
(390,696,o),
(342,667,o),
(295,637,c)
);
},
{
closed = 1;
nodes = (
(500,459,ls),
(500,475,o),
(469,485,o),
(447,485,cs),
(435,485,o),
(426,482,o),
(426,475,cs),
(426,395,ls),
(426,359,o),
(426,322,o),
(425,301,cs),
(417,148,o),
(324,42,o),
(242,42,cs),
(188,42,o),
(160,97,o),
(160,175,cs),
(160,368,ls),
(160,391,o),
(162,440,o),
(162,456,cs),
(162,473,o),
(130,484,o),
(109,484,cs),
(97,484,o),
(89,481,o),
(89,474,cs),
(89,451,o),
(92,380,o),
(92,368,cs),
(92,171,ls),
(92,74,o),
(126,-18,o),
(242,-18,cs),
(324,-18,o),
(396,41,o),
(432,114,c),
(435,73,o),
(449,-13,o),
(483,-13,cs),
(505,-13,o),
(527,14,o),
(527,29,cs),
(527,31,o),
(527,33,o),
(526,35,cs),
(488,96,o),
(488,215,o),
(488,237,cs),
(488,351,o),
(496,433,o),
(500,457,cs)
);
}
);
width = 590;
}
);
note = cid09415;
unicode = 468;
}
{
glyphname = aeacute;
layers = (
{
hints = (
{
horizontal = 1;
place = (-18,62);
type = Stem;
},
{
horizontal = 1;
place = (198,54);
type = Stem;
},
{
horizontal = 1;
place = (426,60);
type = Stem;
},
{
place = (64,70);
type = Stem;
},
{
place = (424,71);
type = Stem;
},
{
place = (775,66);
type = Stem;
}
);
layerId = "481A290F-76EE-4968-957F-52614F4635C1";
shapes = (
{
closed = 1;
nodes = (
(570,651,o),
(572,654,o),
(572,659,cs),
(572,678,o),
(532,713,o),
(513,713,cs),
(511,713,o),
(509,713,o),
(507,712,cs),
(385,630,o),
(357,602,o),
(357,591,cs),
(357,582,o),
(364,574,o),
(374,574,cs),
(378,574,o),
(381,575,o),
(385,577,cs),
(430,604,o),
(499,625,o),
(565,649,cs)
);
},
{
closed = 1;
nodes = (
(502,459,ls),
(502,475,o),
(470,485,o),
(447,485,cs),
(435,485,o),
(426,482,o),
(426,475,cs),
(426,467,o),
(425,445,o),
(424,419,c),
(401,465,o),
(358,486,o),
(311,486,cs),
(192,486,o),
(64,345,o),
(64,175,cs),
(64,49,o),
(128,-18,o),
(225,-18,cs),
(297,-18,o),
(375,22,o),
(423,115,c),
(449,32,o),
(520,-18,o),
(600,-18,cs),
(767,-18,o),
(844,105,o),
(844,128,cs),
(844,135,o),
(840,140,o),
(834,140,cs),
(829,140,o),
(820,136,o),
(811,125,cs),
(757,68,o),
(685,44,o),
(600,44,cs),
(548,44,o),
(483,90,o),
(483,199,c),
(496,199,o),
(509,198,o),
(521,198,cs),
(614,198,o),
(689,208,o),
(745,225,cs),
(826,251,o),
(841,281,o),
(841,340,cs),
(841,412,o),
(799,486,o),
(675,486,cs),
(600,486,o),
(541,448,o),
(495,391,c),
(497,419,o),
(500,442,o),
(502,457,cs)
);
},
{
closed = 1;
nodes = (
(503,323,o),
(576,426,o),
(674,426,cs),
(733,426,o),
(775,397,o),
(775,341,cs),
(775,310,o),
(765,294,o),
(708,278,cs),
(661,265,o),
(589,252,o),
(488,252,c)
);
},
{
closed = 1;
nodes = (
(423,347,o),
(423,310,o),
(422,291,cs),
(415,137,o),
(324,43,o),
(225,43,cs),
(175,43,o),
(134,79,o),
(134,180,cs),
(134,322,o),
(236,427,o),
(312,427,cs),
(342,427,o),
(373,417,o),
(397,379,cs),
(399,375,o),
(403,374,o),
(408,374,cs),
(413,374,o),
(420,376,o),
(424,380,c)
);
}
);
width = 900;
}
);
note = cid09421;
unicode = 509;
}
{
glyphname = jdotless;
layers = (
{
hints = (
{
horizontal = 1;
place = (-162,62);
type = Stem;
},
{
place = (139,68);
type = Stem;
}
);
layerId = "481A290F-76EE-4968-957F-52614F4635C1";
shapes = (
{
closed = 1;
nodes = (
(139,-31,ls),
(139,-72,o),
(126,-100,o),
(104,-100,cs),
(87,-100,o),
(69,-98,o),
(50,-75,cs),
(45,-69,o),
(39,-66,o),
(34,-66,cs),
(17,-66,o),
(1,-93,o),
(1,-112,cs),
(1,-137,o),
(43,-162,o),
(104,-162,cs),
(188,-162,o),
(207,-87,o),
(207,-30,cs),
(207,364,ls),
(207,388,o),
(209,441,o),
(209,457,cs),
(209,474,o),
(177,485,o),
(156,485,cs),
(144,485,o),
(136,482,o),
(136,475,cs),
(136,452,o),
(139,383,o),
(139,364,cs)
);
}
);
width = 301;
}
);
note = cid09435;
unicode = 567;
}
{
glyphname = Ubar;
kernLeft = U;
kernRight = U;
layers = (
{
layerId = "481A290F-76EE-4968-957F-52614F4635C1";
shapes = (
{
closed = 1;
nodes = (
(533,242,ls),
(533,128,o),
(454,45,o),
(342,45,cs),
(236,45,o),
(178,89,o),
(178,210,cs),
(178,584,ls),
(178,619,o),
(180,664,o),
(180,680,cs),
(180,697,o),
(150,707,o),
(128,707,cs),
(114,707,o),
(103,703,o),
(103,695,cs),
(103,672,o),
(106,627,o),
(106,586,cs),
(106,198,ls),
(106,58,o),
(181,-18,o),
(342,-18,cs),
(500,-18,o),
(605,81,o),
(605,230,cs),
(605,594,ls),
(605,629,o),
(607,666,o),
(607,682,cs),
(607,699,o),
(577,709,o),
(555,709,cs),
(541,709,o),
(530,705,o),
(530,697,cs),
(530,681,o),
(533,622,o),
(533,595,cs)
);
},
{
closed = 1;
nodes = (
(663,442,ls),
(635,440,o),
(614,440,o),
(592,440,cs),
(118,440,ls),
(86,440,o),
(58,441,o),
(38,442,cs),
(26,442,o),
(22,431,o),
(22,418,cs),
(22,400,o),
(30,379,o),
(42,379,cs),
(43,379,ls),
(59,379,o),
(93,382,o),
(117,382,cs),
(591,382,ls),
(617,382,o),
(638,380,o),
(669,380,cs),
(680,380,o),
(684,391,o),
(684,404,cs),
(684,422,o),
(675,442,o),
(664,442,cs)
);
}
);
width = 710;
}
);
unicode = 580;
}
{
glyphname = schwahook;
layers = (
{
hints = (
{
horizontal = 1;
place = (-14,52);
type = Stem;
},
{
horizontal = 1;
place = (214,56);
type = Stem;
},
{
horizontal = 1;
place = (426,60);
type = Stem;
},
{
place = (58,68);
type = Stem;
},
{
place = (413,68);
type = Stem;
},
{
place = (503,66);
type = Stem;
},
{
horizontal = 1;
place = (-18,61);
type = Stem;
}
);
layerId = "481A290F-76EE-4968-957F-52614F4635C1";
shapes = (
{
closed = 1;
nodes = (
(523,214,l),
(516,188,o),
(503,125,o),
(503,87,cs),
(503,17,o),
(540,-14,o),
(579,-14,cs),
(638,-14,o),
(666,46,o),
(666,56,cs),
(666,65,o),
(660,72,o),
(653,72,cs),
(647,72,o),
(640,68,o),
(632,59,cs),
(623,47,o),
(609,38,o),
(597,38,cs),
(582,38,o),
(569,53,o),
(569,95,cs),
(569,114,o),
(578,172,o),
(589,216,cs),
(591,225,o),
(593,232,o),
(593,239,cs),
(593,266,o),
(566,270,o),
(561,270,cs),
(481,270,l),
(481,380,o),
(439,486,o),
(284,486,cs),
(154,486,o),
(82,410,o),
(82,389,cs),
(82,366,o),
(107,338,o),
(125,338,cs),
(129,338,o),
(133,340,o),
(136,345,cs),
(156,379,o),
(198,426,o),
(288,426,cs),
(359,426,o),
(411,391,o),
(413,269,c),
(321,268,o),
(216,254,o),
(154,238,cs),
(81,219,o),
(58,184,o),
(58,128,cs),
(58,56,o),
(108,-18,o),
(238,-18,cs),
(392,-18,o),
(463,84,o),
(478,214,c)
);
},
{
closed = 1;
nodes = (
(394,104,o),
(333,43,o),
(239,43,cs),
(165,43,o),
(126,75,o),
(126,127,cs),
(126,168,o),
(144,195,o),
(410,214,c)
);
}
);
width = 682;
}
);
note = cid09429;
unicode = 602;
}
{
color = 4;
glyphname = Ismall;
layers = (
{
color = 1;
layerId = "481A290F-76EE-4968-957F-52614F4635C1";
shapes = (
{
closed = 1;
nodes = (
(155,127,ls),
(155,92,o),
(153,54,o),
(153,38,cs),
(153,21,o),
(177,10,o),
(200,10,cs),
(213,10,o),
(222,13,o),
(222,20,cs),
(222,43,o),
(219,85,o),
(219,126,cs),
(219,336,ls),
(219,377,o),
(221,415,o),
(221,431,cs),
(221,448,o),
(192,459,o),
(174,459,cs),
(161,459,o),
(152,456,o),
(152,449,cs),
(152,426,o),
(155,384,o),
(155,337,cs)
);
},
{
closed = 1;
nodes = (
(258,485,o),
(227,482,o),
(187,480,cs),
(159,479,o),
(107,478,o),
(87,478,cs),
(75,478,o),
(72,467,o),
(72,454,cs),
(73,436,o),
(95,420,o),
(107,421,cs),
(134,423,o),
(174,423,o),
(201,425,cs),
(227,427,o),
(258,427,o),
(289,428,cs),
(300,428,o),
(304,439,o),
(304,452,cs),
(303,470,o),
(286,485,o),
(275,485,cs)
);
},
{
closed = 1;
nodes = (
(260,58,o),
(227,55,o),
(187,53,cs),
(159,52,o),
(105,51,o),
(85,51,cs),
(73,51,o),
(70,40,o),
(70,27,cs),
(71,9,o),
(93,-7,o),
(105,-6,cs),
(132,-4,o),
(174,-4,o),
(201,-2,cs),
(227,0,o),
(260,0,o),
(291,1,cs),
(302,1,o),
(306,12,o),
(305,25,cs),
(305,43,o),
(288,58,o),
(277,58,cs)
);
}
);
width = 375;
}
);
unicode = 618;
}
{
glyphname = obarred;
kernLeft = o;
kernRight = o;
layers = (
{
hints = (
{
horizontal = 1;
place = (-18,64);
type = Stem;
},
{
horizontal = 1;
place = (324,63);
type = Stem;
},
{
horizontal = 1;
place = (649,64);
type = Stem;
},
{
place = (52,73);
type = Stem;
},
{
place = (437,73);
type = Stem;
}
);
layerId = "481A290F-76EE-4968-957F-52614F4635C1";
shapes = (
{
closed = 1;
nodes = (
(169,654,o),
(162,655,o),
(156,655,cs),
(147,655,o),
(138,653,o),
(133,646,cs),
(81,572,o),
(52,452,o),
(52,337,cs),
(52,134,o),
(108,-18,o),
(280,-18,cs),
(438,-18,o),
(510,139,o),
(510,354,cs),
(510,571,o),
(445,713,o),
(294,713,cs),
(244,713,o),
(195,681,o),
(173,651,c)
);
},
{
closed = 1;
nodes = (
(437,324,l),
(433,164,o),
(381,46,o),
(278,46,cs),
(162,46,o),
(127,158,o),
(125,324,c)
);
},
{
closed = 1;
nodes = (
(126,387,l),
(136,556,o),
(226,649,o),
(290,649,cs),
(393,649,o),
(433,536,o),
(437,387,c)
);
}
);
width = 561;
}
);
note = cid09437;
unicode = 629;
}
{
color = 4;
glyphname = rturned;
layers = (
{
color = 1;
layerId = "481A290F-76EE-4968-957F-52614F4635C1";
shapes = (
{
closed = 1;
nodes = (
(338,370,ls),
(338,384,o),
(340,442,o),
(340,458,cs),
(340,475,o),
(308,486,o),
(287,486,cs),
(275,486,o),
(267,483,o),
(267,476,cs),
(267,453,o),
(272,411,o),
(272,370,cs),
(272,256,o),
(272,206,o),
(258,161,cs),
(235,89,o),
(184,55,o),
(128,55,cs),
(108,55,o),
(73,67,o),
(60,92,cs),
(56,99,o),
(51,102,o),
(46,102,cs),
(29,102,o),
(10,71,o),
(10,50,cs),
(10,27,o),
(66,-10,o),
(125,-10,cs),
(194,-10,o),
(245,27,o),
(271,71,c),
(271,49,o),
(268,34,o),
(268,20,cs),
(268,3,o),
(300,-8,o),
(321,-8,cs),
(333,-8,o),
(341,-5,o),
(341,2,cs),
(341,25,o),
(338,90,o),
(338,109,cs)
);
}
);
width = 430;
}
);
unicode = 633;
}
{
glyphname = ubar;
kernLeft = u;
kernRight = u;
layers = (
{
layerId = "481A290F-76EE-4968-957F-52614F4635C1";
shapes = (
{
closed = 1;
nodes = (
(500,459,ls),
(500,475,o),
(469,485,o),
(447,485,cs),
(435,485,o),
(426,482,o),
(426,475,cs),
(426,395,ls),
(426,359,o),
(426,322,o),
(425,301,cs),
(417,148,o),
(324,42,o),
(242,42,cs),
(188,42,o),
(160,97,o),
(160,175,cs),
(160,368,ls),
(160,391,o),
(162,440,o),
(162,456,cs),
(162,473,o),
(130,484,o),
(109,484,cs),
(97,484,o),
(89,481,o),
(89,474,cs),
(89,451,o),
(92,380,o),
(92,368,cs),
(92,171,ls),
(92,74,o),
(126,-18,o),
(242,-18,cs),
(324,-18,o),
(396,41,o),
(432,114,c),
(435,73,o),
(449,-13,o),
(483,-13,cs),
(505,-13,o),
(527,14,o),
(527,29,cs),
(527,31,o),
(527,33,o),
(526,35,cs),
(488,96,o),
(488,215,o),
(488,237,cs),
(488,351,o),
(500,433,o),
(500,457,cs)
);
},
{
closed = 1;
nodes = (
(543,302,ls),
(515,300,o),
(494,300,o),
(472,300,cs),
(118,300,ls),
(86,300,o),
(58,301,o),
(38,302,cs),
(26,302,o),
(22,291,o),
(22,278,cs),
(22,260,o),
(30,239,o),
(42,239,cs),
(43,239,ls),
(59,239,o),
(93,242,o),
(117,242,cs),
(471,242,ls),
(497,242,o),
(518,240,o),
(549,240,cs),
(560,240,o),
(564,251,o),
(564,264,cs),
(564,282,o),
(555,302,o),
(544,302,cs)
);
}
);
width = 590;
}
);
unicode = 649;
}
{
color = 4;
glyphname = "upsilon-latin";
layers = (
{
color = 1;
layerId = "481A290F-76EE-4968-957F-52614F4635C1";
shapes = (
{
closed = 1;
nodes = (
(88,90,o),
(137,-17,o),
(280,-17,cs),
(430,-17,o),
(479,90,o),
(479,184,cs),
(479,275,o),
(434,338,o),
(416,373,cs),
(408,388,o),
(410,401,o),
(410,409,cs),
(410,422,o),
(415,425,o),
(423,425,cs),
(442,425,o),
(466,407,o),
(484,372,c),
(487,368,o),
(492,365,o),
(499,365,cs),
(517,365,o),
(541,381,o),
(541,400,cs),
(541,406,o),
(539,412,o),
(534,417,cs),
(495,465,o),
(467,485,o),
(417,485,cs),
(372,485,o),
(341,461,o),
(341,420,cs),
(341,396,o),
(343,380,o),
(354,358,cs),
(371,321,o),
(411,265,o),
(411,185,cs),
(411,118,o),
(374,47,o),
(280,47,cs),
(193,47,o),
(156,118,o),
(156,185,cs),
(156,265,o),
(195,319,o),
(211,353,cs),
(224,380,o),
(226,396,o),
(226,417,cs),
(226,461,o),
(195,485,o),
(150,485,cs),
(100,485,o),
(72,465,o),
(33,417,cs),
(28,412,o),
(26,406,o),
(26,400,cs),
(26,381,o),
(50,365,o),
(68,365,cs),
(75,365,o),
(80,368,o),
(83,372,c),
(101,407,o),
(125,425,o),
(144,425,cs),
(152,425,o),
(157,422,o),
(157,409,cs),
(157,401,o),
(159,389,o),
(151,373,cs),
(133,337,o),
(88,275,o),
(88,184,cs)
);
}
);
width = 567;
}
);
unicode = 650;
}
{
glyphname = vturned;
layers = (
{
hints = (
{
horizontal = 1;
place = (-6,504);
type = Stem;
},
{
place = (27,436);
type = Stem;
}
);
layerId = "481A290F-76EE-4968-957F-52614F4635C1";
shapes = (
{
closed = 1;
nodes = (
(367,75,ls),
(375,54,o),
(381,28,o),
(385,13,cs),
(388,3,o),
(404,-1,o),
(421,-1,cs),
(441,-1,o),
(463,5,o),
(463,17,cs),
(463,19,o),
(463,20,o),
(462,22,cs),
(450,47,o),
(439,69,o),
(431,91,cs),
(303,434,ls),
(292,460,o),
(292,468,o),
(281,479,cs),
(273,488,o),
(258,498,o),
(244,498,cs),
(233,498,o),
(224,492,o),
(219,475,cs),
(213,455,o),
(205,434,o),
(197,415,cs),
(61,94,ls),
(54,77,o),
(39,47,o),
(29,29,cs),
(28,27,o),
(27,25,o),
(27,23,cs),
(27,7,o),
(59,-6,o),
(81,-6,cs),
(91,-6,o),
(99,-3,o),
(101,4,cs),
(108,29,o),
(115,53,o),
(124,75,cs),
(254,390,l)
);
}
);
width = 490;
}
);
note = cid09438;
unicode = 652;
}
{
glyphname = ezh;
layers = (
{
hints = (
{
horizontal = 1;
place = (-162,63);
type = Stem;
},
{
horizontal = 1;
place = (183,56);
type = Stem;
},
{
horizontal = 1;
place = (410,64);
type = Stem;
},
{
place = (412,74);
type = Stem;
},
{
horizontal = 1;
place = (397,66);
type = Stem;
}
);
layerId = "481A290F-76EE-4968-957F-52614F4635C1";
shapes = (
{
closed = 1;
nodes = (
(335,417,l),
(270,355,o),
(145,241,o),
(93,214,cs),
(83,209,o),
(79,200,o),
(79,191,cs),
(79,169,o),
(100,143,o),
(113,143,cs),
(115,143,o),
(117,144,o),
(118,145,cs),
(145,166,o),
(202,183,o),
(258,183,cs),
(335,183,o),
(412,151,o),
(412,51,cs),
(412,-52,o),
(341,-99,o),
(255,-99,cs),
(203,-99,o),
(130,-62,o),
(90,-23,cs),
(84,-17,o),
(78,-14,o),
(73,-14,cs),
(57,-14,o),
(47,-39,o),
(47,-61,cs),
(47,-72,o),
(50,-82,o),
(57,-87,cs),
(121,-131,o),
(186,-162,o),
(260,-162,cs),
(394,-162,o),
(486,-75,o),
(486,51,cs),
(486,181,o),
(376,239,o),
(273,239,cs),
(253,239,o),
(241,237,o),
(223,233,c),
(273,276,o),
(387,371,o),
(415,396,cs),
(425,404,o),
(443,414,o),
(443,425,cs),
(443,443,o),
(419,478,o),
(398,481,cs),
(394,481,ls),
(382,481,o),
(367,475,o),
(358,475,cs),
(181,464,ls),
(170,463,o),
(157,463,o),
(144,463,cs),
(122,463,o),
(100,464,o),
(80,465,cs),
(73,465,o),
(71,460,o),
(71,453,cs),
(71,434,o),
(91,397,o),
(111,397,cs),
(113,397,ls),
(135,399,o),
(156,402,o),
(182,404,cs)
);
}
);
width = 540;
}
);
note = cid09441;
unicode = 658;
}
{
glyphname = quoteleft;
layers = (
{
hints = (
{
horizontal = 1;
place = (616,197);
type = Stem;
},
{
place = (121,58);
type = Stem;
}
);
layerId = "481A290F-76EE-4968-957F-52614F4635C1";
shapes = (
{
closed = 1;
nodes = (
(199,697,o),
(182,700,o),
(179,701,c),
(185,725,o),
(211,755,o),
(236,772,cs),
(240,775,o),
(242,780,o),
(242,784,cs),
(242,791,o),
(237,798,o),
(228,798,cs),
(225,798,o),
(223,797,o),
(220,796,cs),
(165,772,o),
(121,716,o),
(121,670,cs),
(121,667,o),
(122,664,o),
(122,661,cs),
(126,629,o),
(146,601,o),
(173,601,cs),
(201,601,o),
(226,618,o),
(226,647,cs),
(226,668,o),
(212,685,o),
(201,694,c)
);
}
);
width = 350;
}
);
note = cid00098;
unicode = (699,8216);
}
{
glyphname = quoteright;
layers = (
{
hints = (
{
horizontal = 1;
place = (617,197);
type = Stem;
},
{
place = (173,58);
type = Stem;
}
);
layerId = "481A290F-76EE-4968-957F-52614F4635C1";
shapes = (
{
closed = 1;
nodes = (
(167,675,o),
(141,645,o),
(116,628,cs),
(112,625,o),
(110,620,o),
(110,616,cs),
(110,609,o),
(115,602,o),
(124,602,cs),
(127,602,o),
(129,603,o),
(132,604,cs),
(187,628,o),
(231,684,o),
(231,730,cs),
(231,733,o),
(230,736,o),
(230,739,cs),
(226,771,o),
(206,799,o),
(179,799,cs),
(151,799,o),
(126,782,o),
(126,753,cs),
(126,732,o),
(140,715,o),
(151,706,c),
(153,703,o),
(170,700,o),
(173,699,c)
);
}
);
width = 350;
}
);
note = cid00096;
unicode = (700,8217);
}
{
color = 4;
glyphname = verticallinemod;
layers = (
{
color = 1;
layerId = "481A290F-76EE-4968-957F-52614F4635C1";
shapes = (
{
closed = 1;
nodes = (
(79,544,ls),
(80,533,o),
(92,528,o),
(100,528,cs),
(109,528,o),
(120,533,o),
(121,544,cs),
(137,795,l),
(137,796,ls),
(137,810,o),
(119,817,o),
(100,817,cs),
(82,817,o),
(62,810,o),
(63,795,cs)
);
}
);
width = 200;
}
);
unicode = 712;
}
{
glyphname = secondtonechinese;
layers = (
{
layerId = "481A290F-76EE-4968-957F-52614F4635C1";
shapes = (
{
closed = 1;
nodes = (
(151,591,o),
(84,565,cs),
(71,560,ls),
(66,558,o),
(64,554,o),
(65,549,cs),
(71,533,o),
(100,485,o),
(123,494,cs),
(165,508,o),
(463,788,o),
(449,823,cs),
(447,828,o),
(443,829,o),
(436,827,cs),
(430,825,o),
(421,817,o),
(410,806,cs),
(357,756,o)
);
}
);
width = 600;
}
);
unicode = 714;
}
{
glyphname = fourthtonechinese;
layers = (
{
layerId = "481A290F-76EE-4968-957F-52614F4635C1";
shapes = (
{
closed = 1;
nodes = (
(410,508,cs),
(421,497,o),
(430,489,o),
(436,487,cs),
(443,485,o),
(447,486,o),
(449,491,cs),
(459,517,o),
(169,802,o),
(127,816,cs),
(104,825,o),
(77,788,o),
(71,772,cs),
(70,767,o),
(72,764,o),
(77,761,cs),
(90,753,ls),
(172,703,o),
(360,555,o)
);
}
);
width = 600;
}
);
unicode = 715;
}
{
color = 4;
glyphname = verticallinelowmod;
layers = (
{
color = 1;
layerId = "481A290F-76EE-4968-957F-52614F4635C1";
shapes = (
{
closed = 1;
nodes = (
(62,-266,o),
(82,-273,o),
(100,-273,cs),
(119,-273,o),
(137,-266,o),
(137,-252,cs),
(137,-251,l),
(121,0,ls),
(120,11,o),
(109,16,o),
(100,16,cs),
(92,16,o),
(80,11,o),
(79,0,cs),
(63,-251,ls)
);
}
);
width = 200;
}
);
unicode = 716;
}
{
glyphname = colontriangularmod;
layers = (
{
hints = (
{
horizontal = 1;
place = (-3,512);
type = Stem;
},
{
place = (105,140);
type = Stem;
}
);
layerId = "481A290F-76EE-4968-957F-52614F4635C1";
shapes = (
{
closed = 1;
nodes = (
(245,-18,l),
(176,111,l),
(105,-18,l)
);
},
{
closed = 1;
nodes = (
(176,366,l),
(245,494,l),
(105,494,l)
);
}
);
width = 350;
}
);
note = cid09443;
unicode = 720;
}
{
glyphname = dotaccent;
layers = (
{
hints = (
{
horizontal = 1;
place = (592,109);
type = Stem;
},
{
place = (249,101);
type = Stem;
}
);
layerId = "481A290F-76EE-4968-957F-52614F4635C1";
shapes = (
{
closed = 1;
nodes = (
(332,577,o),
(350,596,o),
(350,624,cs),
(350,654,o),
(321,686,o),
(295,686,cs),
(266,686,o),
(249,667,o),
(249,638,cs),
(249,611,o),
(275,577,o),
(305,577,cs)
);
}
);
width = 600;
}
);
unicode = 729;
}
{
glyphname = ring;
layers = (
{
hints = (
{
horizontal = 1;
place = (552,48);
type = Stem;
},
{
horizontal = 1;
place = (692,48);
type = Stem;
},
{
place = (157,48);
type = Stem;
},
{
place = (297,48);
type = Stem;
}
);
layerId = "481A290F-76EE-4968-957F-52614F4635C1";
shapes = (
{
closed = 1;
nodes = (
(345,682,o),
(302,725,o),
(251,725,cs),
(200,725,o),
(157,682,o),
(157,631,cs),
(157,580,o),
(200,537,o),
(251,537,cs),
(302,537,o),
(345,580,o),
(345,631,cs)
);
},
{
closed = 1;
nodes = (
(297,605,o),
(277,585,o),
(251,585,cs),
(225,585,o),
(205,605,o),
(205,631,cs),
(205,657,o),
(225,677,o),
(251,677,cs),
(277,677,o),
(297,657,o),
(297,631,cs)
);
}
);
width = 500;
}
);
note = cid00133;
unicode = (730,778);
}
{
glyphname = tilde;
layers = (
{
hints = (
{
horizontal = 1;
place = (589,57);
type = Stem;
},
{
place = (98,309);
type = Stem;
},
{
horizontal = 1;
place = (640,57);
type = Stem;
}
);
layerId = "481A290F-76EE-4968-957F-52614F4635C1";
shapes = (
{
closed = 1;
nodes = (
(407,664,o),
(407,666,o),
(407,668,cs),
(407,679,o),
(399,685,o),
(392,685,cs),
(386,685,o),
(380,681,o),
(376,673,cs),
(361,642,o),
(341,631,o),
(313,631,cs),
(278,631,o),
(254,682,o),
(194,682,cs),
(133,682,o),
(98,615,o),
(98,588,cs),
(98,577,o),
(106,571,o),
(113,571,cs),
(119,571,o),
(125,575,o),
(129,583,cs),
(144,614,o),
(164,625,o),
(192,625,cs),
(226,625,o),
(251,574,o),
(311,574,cs),
(362,574,o),
(396,619,o),
(406,661,cs)
);
}
);
width = 500;
}
);
note = cid00095;
unicode = (732,771);
}
{
color = 4;
glyphname = rhotichookmod;
layers = (
{
color = 1;
layerId = "481A290F-76EE-4968-957F-52614F4635C1";
shapes = (
{
closed = 1;
nodes = (
(-97,298,l),
(-59,322,o),
(-13,337,o),
(9,338,c),
(2,312,o),
(-11,249,o),
(-11,211,cs),
(-11,141,o),
(26,110,o),
(65,110,cs),
(124,110,o),
(152,170,o),
(152,180,cs),
(152,189,o),
(146,196,o),
(139,196,cs),
(133,196,o),
(126,192,o),
(118,183,cs),
(109,171,o),
(95,162,o),
(83,162,cs),
(68,162,o),
(55,177,o),
(55,219,cs),
(55,238,o),
(64,296,o),
(75,340,cs),
(77,349,o),
(79,356,o),
(79,363,cs),
(79,390,o),
(52,394,o),
(38,394,cs),
(-4,393,o),
(-64,374,o),
(-120,349,c)
);
}
);
width = 168;
}
);
unicode = 734;
}
{
glyphname = senventhtoneminnan;
layers = (
{
layerId = "481A290F-76EE-4968-957F-52614F4635C1";
shapes = (
{
closed = 1;
nodes = (
(119,576,ls),
(119,556,o),
(117,536,o),
(114,517,c),
(113,514,o),
(113,511,o),
(113,509,cs),
(113,497,o),
(119,488,o),
(138,480,cs),
(148,476,o),
(155,474,o),
(160,474,cs),
(171,474,o),
(175,481,o),
(175,496,cs),
(175,647,l),
(381,662,ls),
(394,663,o),
(405,667,o),
(405,675,cs),
(405,691,o),
(374,719,o),
(356,719,cs),
(352,719,o),
(348,718,o),
(345,717,cs),
(333,713,o),
(321,711,o),
(307,710,cs),
(176,700,l),
(176,826,ls),
(176,851,o),
(131,858,o),
(122,858,cs),
(113,858,o),
(107,855,o),
(107,850,cs),
(107,848,o),
(108,845,o),
(110,842,cs),
(116,830,o),
(120,814,o),
(120,802,cs)
);
}
);
width = 600;
}
);
unicode = 747;
}
{
category = Mark;
glyphname = acutecomb;
layers = (
{
anchors = (
{
name = _top;
pos = (-247,471);
}
);
hints = (
{
horizontal = 1;
place = (74,-361);
type = Stem;
},
{
place = (-347,-285);
type = Stem;
}
);
layerId = "481A290F-76EE-4968-957F-52614F4635C1";
shapes = (
{
closed = 1;
nodes = (
(-134,636,o),
(-132,639,o),
(-132,644,cs),
(-132,663,o),
(-172,698,o),
(-191,698,cs),
(-193,698,o),
(-195,698,o),
(-197,697,cs),
(-319,615,o),
(-347,587,o),
(-347,576,cs),
(-347,567,o),
(-340,559,o),
(-330,559,cs),
(-326,559,o),
(-323,560,o),
(-319,562,cs),
(-274,589,o),
(-205,610,o),
(-139,634,cs)
);
}
);
width = 0;
}
);
note = cid00127;
subCategory = Nonspacing;
unicode = 769;
}
{
glyphname = circumflexcomb;
layers = (
{
anchors = (
{
name = _top;
pos = (-207,471);
}
);
layerId = "481A290F-76EE-4968-957F-52614F4635C1";
shapes = (
{
closed = 1;
nodes = (
(-162,612,o),
(-114,583,o),
(-81,555,cs),
(-77,551,o),
(-72,550,o),
(-68,550,cs),
(-58,550,o),
(-50,557,o),
(-50,566,cs),
(-50,583,o),
(-136,667,o),
(-168,698,cs),
(-176,706,o),
(-195,710,o),
(-212,710,cs),
(-228,710,o),
(-243,707,o),
(-250,701,cs),
(-298,656,o),
(-369,579,o),
(-369,566,cs),
(-369,557,o),
(-361,550,o),
(-351,550,cs),
(-347,550,o),
(-342,551,o),
(-338,555,cs),
(-305,583,o),
(-256,612,o),
(-209,642,c)
);
}
);
width = 0;
}
);
unicode = 770;
}
{
glyphname = brevecomb;
layers = (
{
anchors = (
{
name = _top;
pos = (-247,471);
}
);
hints = (
{
horizontal = 1;
place = (78,-440);
type = Stem;
},
{
place = (-403,-191);
type = Stem;
}
);
layerId = "481A290F-76EE-4968-957F-52614F4635C1";
shapes = (
{
closed = 1;
nodes = (
(-94,674,o),
(-115,693,o),
(-133,693,cs),
(-141,693,o),
(-148,689,o),
(-152,681,cs),
(-173,642,o),
(-204,623,o),
(-248,623,cs),
(-291,623,o),
(-323,644,o),
(-344,681,cs),
(-348,689,o),
(-355,692,o),
(-362,692,cs),
(-381,692,o),
(-403,673,o),
(-403,656,cs),
(-403,648,o),
(-354,563,o),
(-248,563,cs),
(-151,563,o),
(-94,641,o),
(-94,656,cs)
);
}
);
width = 0;
}
);
note = cid00130;
unicode = 774;
}
{
category = Mark;
glyphname = dotaccentcomb;
layers = (
{
hints = (
{
horizontal = 1;
place = (592,109);
type = Stem;
},
{
place = (199,101);
type = Stem;
}
);
layerId = "481A290F-76EE-4968-957F-52614F4635C1";
shapes = (
{
closed = 1;
nodes = (
(282,577,o),
(300,596,o),
(300,624,cs),
(300,654,o),
(271,686,o),
(245,686,cs),
(216,686,o),
(199,667,o),
(199,638,cs),
(199,611,o),
(225,577,o),
(255,577,cs)
);
}
);
width = 500;
}
);
note = cid00131;
subCategory = Nonspacing;
unicode = 775;
}
{
glyphname = dieresiscomb;
layers = (
{
anchors = (
{
name = _top;
pos = (249,471);
},
{
name = top;
pos = (249,623);
}
);
hints = (
{
horizontal = 1;
place = (592,109);
type = Stem;
},
{
place = (109,101);
type = Stem;
},
{
place = (292,101);
type = Stem;
}
);
layerId = "481A290F-76EE-4968-957F-52614F4635C1";
shapes = (
{
closed = 1;
nodes = (
(375,577,o),
(393,596,o),
(393,624,cs),
(393,654,o),
(364,686,o),
(338,686,cs),
(309,686,o),
(292,667,o),
(292,638,cs),
(292,611,o),
(318,577,o),
(348,577,cs)
);
},
{
closed = 1;
nodes = (
(192,577,o),
(210,596,o),
(210,624,cs),
(210,654,o),
(181,686,o),
(155,686,cs),
(126,686,o),
(109,667,o),
(109,638,cs),
(109,611,o),
(135,577,o),
(165,577,cs)
);
}
);
width = 500;
}
);
note = cid00132;
unicode = 776;
}
{
category = Mark;
glyphname = caroncomb;
layers = (
{
anchors = (
{
name = _top;
pos = (-248,471);
}
);
hints = (
{
horizontal = 1;
place = (69,-340);
type = Stem;
},
{
place = (-410,-181);
type = Stem;
}
);
layerId = "481A290F-76EE-4968-957F-52614F4635C1";
shapes = (
{
closed = 1;
nodes = (
(-297,652,o),
(-346,681,o),
(-379,709,cs),
(-383,713,o),
(-388,714,o),
(-392,714,cs),
(-402,714,o),
(-410,707,o),
(-410,698,cs),
(-410,685,o),
(-339,608,o),
(-291,563,cs),
(-284,557,o),
(-269,554,o),
(-253,554,cs),
(-236,554,o),
(-217,558,o),
(-209,566,cs),
(-177,597,o),
(-91,681,o),
(-91,698,cs),
(-91,707,o),
(-99,714,o),
(-109,714,cs),
(-113,714,o),
(-118,713,o),
(-122,709,cs),
(-155,681,o),
(-203,652,o),
(-250,622,c)
);
}
);
width = 0;
}
);
note = cid00137;
subCategory = Nonspacing;
unicode = 780;
}
{
glyphname = dotbelowcomb;
layers = (
{
anchors = (
{
name = _bottom;
pos = (-97,0);
}
);
layerId = "481A290F-76EE-4968-957F-52614F4635C1";
shapes = (
{
closed = 1;
nodes = (
(-70,-181,o),
(-52,-162,o),
(-52,-134,cs),
(-52,-104,o),
(-81,-72,o),
(-107,-72,cs),
(-136,-72,o),
(-153,-91,o),
(-153,-120,cs),
(-153,-147,o),
(-127,-181,o),
(-97,-181,cs)
);
}
);
width = 200;
}
);
unicode = 803;
}
{
glyphname = strokelongcomb;
layers = (
{
hints = (
{
horizontal = 1;
place = (225,58);
type = Stem;
},
{
place = (-14,1028);
type = Stem;
}
);
layerId = "481A290F-76EE-4968-957F-52614F4635C1";
shapes = (
{
closed = 1;
nodes = (
(995,210,ls),
(1008,210,o),
(1014,225,o),
(1014,239,cs),
(1014,254,o),
(1008,268,o),
(995,268,cs),
(5,268,ls),
(-8,268,o),
(-14,254,o),
(-14,239,cs),
(-14,225,o),
(-8,210,o),
(5,210,cs)
);
}
);
width = 1000;
}
);
note = cid00138;
unicode = 822;
}
{
glyphname = dotaboverightcomb;
layers = (
{
anchors = (
{
name = _topright;
pos = (-49,434);
}
);
layerId = "481A290F-76EE-4968-957F-52614F4635C1";
shapes = (
{
closed = 1;
nodes = (
(0,570,o),
(-25,603,o),
(-49,603,cs),
(-83,603,o),
(-99,581,o),
(-99,555,cs),
(-99,527,o),
(-75,495,o),
(-49,495,cs),
(-18,495,o),
(0,516,o),
(0,541,cs)
);
}
);
width = 50;
}
);
unicode = 856;
}
{
color = 4;
glyphname = "numeral-greek";
layers = (
{
color = 1;
layerId = "481A290F-76EE-4968-957F-52614F4635C1";
shapes = (
{
closed = 1;
nodes = (
(24,545,l),
(23,544,o),
(23,542,o),
(23,541,cs),
(23,534,o),
(33,527,o),
(42,527,cs),
(48,527,o),
(53,529,o),
(56,534,cs),
(197,757,ls),
(198,759,o),
(199,762,o),
(199,764,cs),
(199,782,o),
(167,797,o),
(142,797,cs),
(131,797,o),
(121,794,o),
(118,785,cs)
);
}
);
width = 200;
}
);
unicode = 884;
}
{
glyphname = Beta;
layers = (
{
hints = (
{
horizontal = 1;
place = (-10,49);
type = Stem;
},
{
horizontal = 1;
place = (358,50);
type = Stem;
},
{
horizontal = 1;
place = (650,61);
type = Stem;
},
{
place = (280,70);
type = Stem;
},
{
place = (702,71);
type = Stem;
},
{
place = (646,71);
type = Stem;
}
);
layerId = "481A290F-76EE-4968-957F-52614F4635C1";
shapes = (
{
closed = 1;
nodes = (
(280,36,l),
(274,35,o),
(258,34,o),
(249,34,cs),
(235,34,o),
(227,25,o),
(227,17,cs),
(227,9,o),
(233,2,o),
(247,-1,cs),
(283,-7,o),
(342,-10,o),
(372,-10,cs),
(518,-10,o),
(773,-2,o),
(773,215,cs),
(773,315,o),
(689,388,o),
(593,398,c),
(649,420,o),
(717,474,o),
(717,557,cs),
(717,643,o),
(653,711,o),
(494,711,cs),
(415,711,o),
(286,695,o),
(247,679,cs),
(242,677,o),
(240,673,o),
(240,668,cs),
(240,653,o),
(262,630,o),
(280,625,c)
);
},
{
closed = 1;
nodes = (
(350,408,l),
(350,633,l),
(390,644,o),
(436,650,o),
(482,650,cs),
(594,650,o),
(646,618,o),
(646,551,cs),
(646,479,o),
(561,430,o),
(488,417,cs),
(458,412,o),
(402,408,o),
(363,408,cs)
);
},
{
closed = 1;
nodes = (
(520,358,ls),
(598,356,o),
(702,320,o),
(702,212,cs),
(702,146,o),
(666,39,o),
(350,39,c),
(350,351,l),
(394,355,o),
(456,358,o),
(501,358,cs)
);
}
);
vertOrigin = 15;
width = 1000;
}
);
note = cid01012;
unicode = 914;
}
{
glyphname = Gamma;
layers = (
{
hints = (
{
horizontal = 1;
place = (635,60);
type = Stem;
},
{
place = (316,70);
type = Stem;
}
);
layerId = "481A290F-76EE-4968-957F-52614F4635C1";
shapes = (
{
closed = 1;
nodes = (
(316,108,ls),
(316,84,o),
(314,35,o),
(314,19,cs),
(314,2,o),
(346,-9,o),
(368,-9,cs),
(380,-9,o),
(389,-6,o),
(389,1,cs),
(389,24,o),
(386,82,o),
(386,107,cs),
(386,626,l),
(651,644,ls),
(670,645,o),
(692,645,o),
(712,645,cs),
(754,645,ls),
(763,645,o),
(767,652,o),
(767,662,cs),
(767,682,o),
(751,712,o),
(733,712,cs),
(721,712,o),
(680,706,o),
(650,704,cs),
(379,686,l),
(377,687,o),
(344,699,o),
(326,699,cs),
(321,699,o),
(312,698,o),
(312,685,cs),
(312,680,o),
(313,673,o),
(314,661,cs),
(316,645,o),
(316,625,o),
(316,604,cs)
);
}
);
vertOrigin = 15;
width = 1000;
}
);
note = cid01013;
unicode = 915;
}
{
glyphname = Delta;
layers = (
{
hints = (
{
horizontal = 1;
place = (-6,66);
type = Stem;
},
{
place = (184,632);
type = Stem;
}
);
layerId = "481A290F-76EE-4968-957F-52614F4635C1";
shapes = (
{
closed = 1;
nodes = (
(214,82,ls),
(207,66,o),
(190,58,o),
(185,43,cs),
(184,40,o),
(184,38,o),
(184,35,cs),
(184,13,o),
(209,-13,o),
(221,-13,cs),
(236,-13,o),
(241,-7,o),
(255,-6,cs),
(316,-3,o),
(429,3,o),
(500,3,cs),
(574,3,o),
(680,-2,o),
(745,-6,cs),
(759,-7,o),
(764,-13,o),
(779,-13,cs),
(791,-13,o),
(816,13,o),
(816,35,cs),
(816,38,o),
(816,40,o),
(815,43,cs),
(810,58,o),
(793,66,o),
(786,82,cs),
(545,653,ls),
(543,657,o),
(543,660,o),
(543,664,cs),
(543,673,ls),
(543,677,o),
(543,680,o),
(541,684,cs),
(536,697,o),
(509,712,o),
(489,712,cs),
(483,712,o),
(478,710,o),
(474,707,cs),
(465,699,o),
(463,672,o),
(455,653,cs)
);
},
{
closed = 1;
nodes = (
(723,60,l),
(640,67,o),
(589,68,o),
(500,68,cs),
(409,68,o),
(364,66,o),
(277,60,c),
(500,605,l)
);
}
);
vertOrigin = 15;
width = 1000;
}
);
note = cid01014;
unicode = 916;
}
{
glyphname = Epsilon;
layers = (
{
hints = (
{
horizontal = 1;
place = (-3,67);
type = Stem;
},
{
horizontal = 1;
place = (350,59);
type = Stem;
},
{
horizontal = 1;
place = (636,59);
type = Stem;
},
{
place = (294,68);
type = Stem;
}
);
layerId = "481A290F-76EE-4968-957F-52614F4635C1";
shapes = (
{
closed = 1;
nodes = (
(765,-2,ls),
(773,-2,o),
(776,5,o),
(776,14,cs),
(776,35,o),
(761,67,o),
(744,67,cs),
(743,67,ls),
(723,66,o),
(689,64,o),
(660,64,cs),
(362,59,l),
(362,344,l),
(574,356,ls),
(593,357,o),
(615,357,o),
(635,357,cs),
(677,357,ls),
(686,357,o),
(690,364,o),
(690,374,cs),
(690,394,o),
(674,424,o),
(656,424,cs),
(644,424,o),
(603,418,o),
(573,416,cs),
(362,403,l),
(362,627,l),
(629,645,ls),
(648,646,o),
(670,646,o),
(690,646,cs),
(732,646,ls),
(741,646,o),
(745,653,o),
(745,663,cs),
(745,682,o),
(729,712,o),
(711,712,cs),
(699,712,o),
(658,706,o),
(628,704,cs),
(357,686,l),
(355,687,o),
(322,699,o),
(304,699,cs),
(299,699,o),
(290,698,o),
(290,685,cs),
(290,680,o),
(291,673,o),
(292,661,cs),
(294,645,o),
(294,625,o),
(294,604,cs),
(294,402,l),
(288,402,o),
(282,403,o),
(277,404,cs),
(275,404,ls),
(269,404,o),
(267,400,o),
(267,393,cs),
(267,378,o),
(279,352,o),
(294,344,c),
(294,84,ls),
(294,68,o),
(287,46,o),
(287,37,cs),
(287,21,o),
(310,-10,o),
(329,-10,cs),
(349,-10,o),
(362,-3,o),
(383,-3,cs),
(661,1,l),
(677,1,ls),
(712,1,o),
(753,-1,o),
(764,-2,cs)
);
}
);
vertOrigin = 15;
width = 1000;
}
);
note = cid01015;
unicode = 917;
}
{
glyphname = Theta;
layers = (
{
hints = (
{
horizontal = 1;
place = (-18,64);
type = Stem;
},
{
horizontal = 1;
place = (323,59);
type = Stem;
},
{
horizontal = 1;
place = (653,60);
type = Stem;
},
{
place = (175,69);
type = Stem;
},
{
place = (747,70);
type = Stem;
}
);
layerId = "481A290F-76EE-4968-957F-52614F4635C1";
shapes = (
{
closed = 1;
nodes = (
(339,652,o),
(330,658,o),
(319,658,cs),
(279,658,o),
(175,516,o),
(175,337,cs),
(175,133,o),
(273,-18,o),
(488,-18,cs),
(714,-18,o),
(817,157,o),
(817,363,cs),
(817,565,o),
(707,713,o),
(527,713,cs),
(448,713,o),
(392,687,o),
(345,646,c)
);
},
{
closed = 1;
nodes = (
(316,46,o),
(244,179,o),
(244,339,cs),
(244,545,o),
(405,653,o),
(521,653,cs),
(671,653,o),
(747,508,o),
(747,371,cs),
(747,202,o),
(676,46,o),
(480,46,cs)
);
},
{
closed = 1;
nodes = (
(694,388,ls),
(673,387,o),
(635,383,o),
(611,383,cs),
(403,379,ls),
(388,379,o),
(373,378,o),
(358,378,cs),
(337,378,o),
(317,379,o),
(299,380,cs),
(298,380,ls),
(289,380,o),
(286,371,o),
(286,359,cs),
(286,340,o),
(296,315,o),
(311,315,cs),
(312,315,ls),
(338,317,o),
(375,320,o),
(404,321,cs),
(612,326,ls),
(639,327,o),
(680,327,o),
(704,327,cs),
(713,327,o),
(717,336,o),
(717,348,cs),
(717,366,o),
(707,388,o),
(695,388,cs)
);
}
);
vertOrigin = 20;
width = 1000;
}
);
note = cid01018;
unicode = 920;
}
{
glyphname = Mu;
layers = (
{
hints = (
{
horizontal = 1;
place = (-11,723);
type = Stem;
},
{
place = (193,69);
type = Stem;
},
{
place = (733,69);
type = Stem;
}
);
layerId = "481A290F-76EE-4968-957F-52614F4635C1";
shapes = (
{
closed = 1;
nodes = (
(733,106,ls),
(733,71,o),
(730,33,o),
(730,17,cs),
(730,0,o),
(762,-11,o),
(784,-11,cs),
(796,-11,o),
(805,-8,o),
(805,-1,cs),
(805,22,o),
(802,64,o),
(802,105,cs),
(802,628,ls),
(802,647,o),
(807,662,o),
(807,677,cs),
(807,692,o),
(751,712,o),
(730,712,cs),
(707,712,o),
(700,689,o),
(693,673,cs),
(630,526,o),
(556,353,o),
(491,197,c),
(434,315,o),
(352,509,o),
(289,667,cs),
(284,679,o),
(282,696,o),
(274,701,cs),
(269,704,o),
(262,705,o),
(255,705,cs),
(228,705,o),
(192,689,o),
(189,673,c),
(188,671,o),
(188,668,o),
(188,665,cs),
(188,653,o),
(193,640,o),
(193,624,cs),
(193,106,ls),
(193,71,o),
(190,33,o),
(190,17,cs),
(190,0,o),
(222,-11,o),
(244,-11,cs),
(256,-11,o),
(265,-8,o),
(265,-1,cs),
(265,22,o),
(262,64,o),
(262,105,cs),
(262,562,l),
(314,429,o),
(385,262,o),
(431,168,cs),
(435,160,o),
(445,133,o),
(452,112,cs),
(455,102,o),
(467,98,o),
(480,98,cs),
(505,98,o),
(535,111,o),
(535,124,cs),
(535,139,o),
(630,370,o),
(733,594,c)
);
}
);
vertOrigin = 15;
width = 1000;
}
);
note = cid01022;
unicode = 924;
}
{
glyphname = Upsilon;
layers = (
{
hints = (
{
horizontal = 1;
place = (640,70);
type = Stem;
},
{
place = (467,72);
type = Stem;
}
);
layerId = "481A290F-76EE-4968-957F-52614F4635C1";
shapes = (
{
closed = 1;
nodes = (
(467,111,ls),
(467,87,o),
(465,38,o),
(465,22,cs),
(465,3,o),
(495,-9,o),
(518,-9,cs),
(531,-9,o),
(542,-5,o),
(542,4,cs),
(542,27,o),
(539,85,o),
(539,110,cs),
(539,300,ls),
(539,418,o),
(563,509,o),
(633,587,cs),
(666,622,o),
(716,640,o),
(772,640,cs),
(780,640,o),
(788,640,o),
(796,639,cs),
(797,639,ls),
(808,639,o),
(814,651,o),
(814,665,cs),
(814,685,o),
(802,710,o),
(779,710,cs),
(730,710,o),
(561,701,o),
(503,486,c),
(476,589,o),
(400,710,o),
(227,710,cs),
(204,710,o),
(193,685,o),
(193,665,cs),
(193,651,o),
(198,639,o),
(209,639,cs),
(210,639,ls),
(218,640,o),
(226,640,o),
(234,640,cs),
(290,640,o),
(340,622,o),
(373,587,cs),
(443,509,o),
(467,418,o),
(467,300,cs)
);
}
);
vertOrigin = 15;
width = 1000;
}
);
note = cid01030;
unicode = 933;
}
{
glyphname = Psi;
layers = (
{
hints = (
{
horizontal = 1;
place = (191,65);
type = Stem;
},
{
place = (227,70);
type = Stem;
},
{
place = (465,72);
type = Stem;
},
{
place = (707,70);
type = Stem;
}
);
layerId = "481A290F-76EE-4968-957F-52614F4635C1";
shapes = (
{
closed = 1;
nodes = (
(465,107,ls),
(465,72,o),
(463,34,o),
(463,18,cs),
(463,1,o),
(496,-10,o),
(519,-10,cs),
(531,-10,o),
(540,-7,o),
(540,0,cs),
(540,23,o),
(537,65,o),
(537,106,cs),
(537,193,l),
(687,209,o),
(777,308,o),
(777,443,cs),
(777,584,ls),
(777,619,o),
(780,656,o),
(780,672,cs),
(780,688,o),
(750,698,o),
(727,698,cs),
(714,698,o),
(703,695,o),
(703,687,cs),
(703,671,o),
(707,612,o),
(707,585,cs),
(707,455,ls),
(707,351,o),
(648,276,o),
(537,259,c),
(537,601,ls),
(537,636,o),
(539,674,o),
(539,690,cs),
(539,707,o),
(506,718,o),
(483,718,cs),
(471,718,o),
(462,715,o),
(462,708,cs),
(462,685,o),
(465,643,o),
(465,602,cs),
(465,256,l),
(348,265,o),
(297,308,o),
(297,423,cs),
(297,574,ls),
(297,609,o),
(299,654,o),
(299,670,cs),
(299,687,o),
(270,697,o),
(248,697,cs),
(235,697,o),
(224,693,o),
(224,685,cs),
(224,662,o),
(227,617,o),
(227,576,cs),
(227,411,ls),
(227,280,o),
(299,198,o),
(465,191,c)
);
}
);
vertOrigin = 15;
width = 1000;
}
);
note = cid01033;
unicode = 936;
}
{
glyphname = alpha;
layers = (
{
hints = (
{
horizontal = 1;
place = (-18,63);
type = Stem;
},
{
horizontal = 1;
place = (423,63);
type = Stem;
},
{
place = (258,68);
type = Stem;
},
{
horizontal = 1;
place = (-10,56);
type = Stem;
},
{
place = (585,54);
type = Stem;
}
);
layerId = "481A290F-76EE-4968-957F-52614F4635C1";
shapes = (
{
closed = 1;
nodes = (
(620,13,o),
(649,-10,o),
(694,-10,cs),
(751,-10,o),
(798,41,o),
(798,62,cs),
(798,69,o),
(795,73,o),
(788,73,cs),
(781,73,o),
(772,69,o),
(759,59,cs),
(748,50,o),
(731,46,o),
(717,46,cs),
(714,46,o),
(711,47,o),
(708,47,cs),
(688,50,o),
(661,61,o),
(649,170,c),
(684,247,o),
(720,349,o),
(741,428,c),
(741,429,o),
(742,431,o),
(742,432,cs),
(742,452,o),
(711,476,o),
(691,476,cs),
(681,476,o),
(674,471,o),
(672,458,cs),
(665,413,o),
(653,364,o),
(639,319,c),
(627,442,o),
(590,486,o),
(499,486,cs),
(354,486,o),
(258,305,o),
(258,184,cs),
(258,36,o),
(325,-18,o),
(421,-18,cs),
(488,-18,o),
(553,17,o),
(603,87,c)
);
},
{
closed = 1;
nodes = (
(541,85,o),
(484,45,o),
(421,45,cs),
(364,45,o),
(326,83,o),
(326,182,cs),
(326,283,o),
(403,423,o),
(499,423,cs),
(562,423,o),
(578,367,o),
(585,237,cs),
(586,218,o),
(587,200,o),
(589,183,c)
);
}
);
vertOrigin = 131;
width = 1000;
}
);
note = cid01035;
unicode = 945;
}
{
glyphname = beta;
layers = (
{
hints = (
{
horizontal = 1;
place = (-16,64);
type = Stem;
},
{
horizontal = 1;
place = (349,55);
type = Stem;
},
{
horizontal = 1;
place = (648,64);
type = Stem;
},
{
place = (245,79);
type = Stem;
},
{
place = (655,71);
type = Stem;
},
{
place = (634,72);
type = Stem;
}
);
layerId = "481A290F-76EE-4968-957F-52614F4635C1";
shapes = (
{
closed = 1;
nodes = (
(330,-88,l),
(351,64,l),
(375,17,o),
(437,-16,o),
(495,-16,cs),
(628,-16,o),
(726,65,o),
(726,204,cs),
(726,295,o),
(670,378,o),
(567,387,c),
(650,409,o),
(706,481,o),
(706,560,cs),
(706,653,o),
(649,712,o),
(564,712,cs),
(465,712,o),
(362,657,o),
(335,459,cs),
(262,-78,ls),
(257,-114,o),
(249,-151,o),
(245,-165,c),
(245,-169,ls),
(245,-187,o),
(279,-202,o),
(301,-202,cs),
(310,-202,o),
(317,-199,o),
(318,-193,cs)
);
},
{
closed = 1;
nodes = (
(405,452,ls),
(425,595,o),
(488,648,o),
(562,648,cs),
(608,648,o),
(634,618,o),
(634,560,cs),
(634,488,o),
(584,439,o),
(501,411,cs),
(486,406,o),
(451,404,o),
(429,404,cs),
(419,404,o),
(415,396,o),
(415,386,cs),
(415,367,o),
(431,338,o),
(452,338,cs),
(454,338,o),
(457,338,o),
(460,339,cs),
(473,344,o),
(488,349,o),
(506,349,cs),
(601,349,o),
(655,297,o),
(655,203,cs),
(655,108,o),
(591,48,o),
(497,48,cs),
(450,48,o),
(417,60,o),
(384,86,cs),
(373,94,o),
(366,101,o),
(360,101,cs),
(359,101,o),
(358,100,o),
(357,100,c)
);
}
);
vertOrigin = 100;
width = 1000;
}
);
note = cid01036;
unicode = 946;
}
{
glyphname = epsilon;
layers = (
{
hints = (
{
horizontal = 1;
place = (-18,63);
type = Stem;
},
{
horizontal = 1;
place = (241,71);
type = Stem;
},
{
horizontal = 1;
place = (425,61);
type = Stem;
},
{
place = (295,69);
type = Stem;
},
{
place = (332,69);
type = Stem;
}
);
layerId = "481A290F-76EE-4968-957F-52614F4635C1";
shapes = (
{
closed = 1;
nodes = (
(548,312,l),
(526,305,o),
(492,300,o),
(467,300,cs),
(402,300,o),
(401,330,o),
(401,347,cs),
(401,382,o),
(437,425,o),
(514,425,cs),
(565,425,o),
(606,415,o),
(632,389,cs),
(638,382,o),
(643,376,o),
(650,376,cs),
(655,376,o),
(661,379,o),
(669,387,cs),
(681,397,o),
(685,410,o),
(685,419,cs),
(685,444,o),
(626,486,o),
(516,486,cs),
(398,486,o),
(332,411,o),
(332,347,cs),
(332,301,o),
(358,267,o),
(410,258,c),
(334,229,o),
(295,182,o),
(295,119,cs),
(295,38,o),
(359,-18,o),
(494,-18,cs),
(659,-18,o),
(716,89,o),
(716,107,cs),
(716,116,o),
(712,121,o),
(705,121,cs),
(699,121,o),
(691,117,o),
(681,107,cs),
(630,58,o),
(572,45,o),
(496,45,cs),
(412,45,o),
(364,76,o),
(364,119,cs),
(364,161,o),
(389,199,o),
(455,223,cs),
(478,231,o),
(530,237,o),
(572,241,cs),
(581,242,o),
(585,250,o),
(585,259,cs),
(585,281,o),
(568,312,o),
(551,312,cs)
);
}
);
vertOrigin = 132;
width = 1000;
}
);
note = cid01039;
unicode = 949;
}
{
glyphname = zeta;
layers = (
{
hints = (
{
horizontal = 1;
place = (-10,64);
type = Stem;
},
{
horizontal = 1;
place = (615,56);
type = Stem;
},
{
place = (297,73);
type = Stem;
},
{
place = (416,56);
type = Stem;
}
);
layerId = "481A290F-76EE-4968-957F-52614F4635C1";
shapes = (
{
closed = 1;
nodes = (
(558,-27,o),
(533,-76,o),
(521,-112,cs),
(520,-114,o),
(520,-116,o),
(520,-118,cs),
(520,-140,o),
(552,-164,o),
(571,-164,cs),
(579,-164,o),
(584,-160,o),
(586,-152,cs),
(600,-89,o),
(625,-41,o),
(652,-4,c),
(660,12,o),
(678,22,o),
(678,41,cs),
(678,61,o),
(642,98,o),
(628,98,cs),
(616,98,o),
(598,86,o),
(591,83,cs),
(540,63,o),
(501,54,o),
(470,54,cs),
(390,54,o),
(370,113,o),
(370,179,cs),
(370,303,o),
(476,521,o),
(631,611,cs),
(653,624,o),
(686,629,o),
(712,634,cs),
(719,635,o),
(721,643,o),
(721,653,cs),
(721,675,o),
(708,709,o),
(689,709,cs),
(687,709,o),
(685,709,o),
(683,708,cs),
(672,703,o),
(600,671,o),
(523,671,cs),
(488,671,o),
(472,681,o),
(472,699,cs),
(472,716,o),
(487,741,o),
(511,771,cs),
(516,777,o),
(518,783,o),
(518,789,cs),
(518,796,o),
(513,802,o),
(505,802,cs),
(485,802,o),
(416,733,o),
(416,676,cs),
(416,639,o),
(446,615,o),
(502,615,cs),
(512,615,o),
(524,616,o),
(537,618,c),
(432,546,o),
(297,345,o),
(297,175,cs),
(297,69,o),
(351,-10,o),
(465,-10,cs),
(500,-10,o),
(541,-3,o),
(588,14,c)
);
}
);
width = 1000;
}
);
note = cid01040;
unicode = 950;
}
{
glyphname = eta;
layers = (
{
hints = (
{
horizontal = 1;
place = (421,65);
type = Stem;
},
{
place = (354,65);
type = Stem;
},
{
place = (632,69);
type = Stem;
},
{
horizontal = 1;
place = (443,40);
type = Stem;
}
);
layerId = "481A290F-76EE-4968-957F-52614F4635C1";
shapes = (
{
closed = 1;
nodes = (
(647,-73,l),
(697,270,ls),
(700,289,o),
(701,308,o),
(701,327,cs),
(701,411,o),
(670,486,o),
(573,486,cs),
(516,486,o),
(464,458,o),
(419,405,c),
(417,458,o),
(381,483,o),
(327,483,cs),
(282,483,o),
(269,474,o),
(269,461,cs),
(269,452,o),
(276,443,o),
(289,443,cs),
(299,443,ls),
(340,443,o),
(354,415,o),
(354,374,cs),
(354,361,o),
(352,346,o),
(350,330,cs),
(316,112,ls),
(313,93,o),
(305,50,o),
(300,26,c),
(300,23,ls),
(300,6,o),
(335,-10,o),
(356,-10,cs),
(364,-10,o),
(370,-7,o),
(371,-1,cs),
(374,21,o),
(381,85,o),
(384,104,cs),
(411,279,ls),
(426,373,o),
(522,421,o),
(569,421,cs),
(615,421,o),
(632,389,o),
(632,334,cs),
(632,316,o),
(630,296,o),
(627,274,cs),
(579,-65,ls),
(574,-98,o),
(567,-130,o),
(562,-152,c),
(562,-155,ls),
(562,-173,o),
(597,-187,o),
(618,-187,cs),
(627,-187,o),
(633,-185,o),
(634,-179,cs)
);
}
);
vertOrigin = 190;
width = 1000;
}
);
note = cid01041;
unicode = 951;
}
{
glyphname = theta;
layers = (
{
hints = (
{
horizontal = 1;
place = (-18,64);
type = Stem;
},
{
horizontal = 1;
place = (323,63);
type = Stem;
},
{
horizontal = 1;
place = (649,64);
type = Stem;
},
{
place = (271,73);
type = Stem;
},
{
place = (656,73);
type = Stem;
}
);
layerId = "481A290F-76EE-4968-957F-52614F4635C1";
shapes = (
{
closed = 1;
nodes = (
(388,654,o),
(381,655,o),
(375,655,cs),
(366,655,o),
(357,653,o),
(352,646,cs),
(300,572,o),
(271,452,o),
(271,337,cs),
(271,134,o),
(327,-18,o),
(499,-18,cs),
(657,-18,o),
(729,139,o),
(729,354,cs),
(729,571,o),
(664,713,o),
(513,713,cs),
(463,713,o),
(414,681,o),
(392,651,c)
);
},
{
closed = 1;
nodes = (
(656,328,l),
(652,150,o),
(600,46,o),
(497,46,cs),
(381,46,o),
(346,152,o),
(344,318,c)
);
},
{
closed = 1;
nodes = (
(345,381,l),
(356,570,o),
(445,649,o),
(509,649,cs),
(612,649,o),
(652,540,o),
(656,391,c)
);
}
);
vertOrigin = 20;
width = 1000;
}
);
note = cid01042;
unicode = 952;
}
{
glyphname = iota;
layers = (
{
hints = (
{
horizontal = 1;
place = (-11,63);
type = Stem;
},
{
place = (417,71);
type = Stem;
},
{
place = (467,72);
type = Stem;
}
);
layerId = "481A290F-76EE-4968-957F-52614F4635C1";
shapes = (
{
closed = 1;
nodes = (
(421,143,ls),
(418,125,o),
(417,108,o),
(417,93,cs),
(417,23,o),
(447,-11,o),
(509,-11,cs),
(574,-11,o),
(645,44,o),
(645,78,cs),
(645,84,o),
(642,89,o),
(635,89,cs),
(629,89,o),
(620,85,o),
(608,76,cs),
(587,60,o),
(554,52,o),
(530,52,cs),
(513,52,o),
(488,52,o),
(488,93,cs),
(488,104,o),
(489,117,o),
(492,135,cs),
(522,353,l),
(539,441,l),
(539,444,ls),
(539,461,o),
(502,479,o),
(481,479,cs),
(473,479,o),
(468,476,o),
(467,470,cs),
(464,439,o),
(458,394,o),
(453,364,cs)
);
}
);
vertOrigin = 133;
width = 1000;
}
);
note = cid01043;
unicode = 953;
}
{
glyphname = lambda;
layers = (
{
hints = (
{
horizontal = 1;
place = (-8,60);
type = Stem;
},
{
horizontal = 1;
place = (649,65);
type = Stem;
},
{
place = (267,530);
type = Stem;
}
);
layerId = "481A290F-76EE-4968-957F-52614F4635C1";
shapes = (
{
closed = 1;
nodes = (
(706,52,ls),
(672,55,o),
(663,70,o),
(650,122,cs),
(532,611,ls),
(514,685,o),
(494,714,o),
(377,714,cs),
(360,714,o),
(350,692,o),
(350,674,cs),
(350,661,o),
(355,649,o),
(369,649,cs),
(380,649,ls),
(440,649,o),
(456,647,o),
(471,586,cs),
(498,473,l),
(448,385,o),
(379,255,o),
(316,133,cs),
(299,99,o),
(283,71,o),
(269,47,cs),
(268,45,o),
(267,42,o),
(267,39,cs),
(267,20,o),
(296,-6,o),
(317,-6,cs),
(325,-6,o),
(331,-2,o),
(335,7,cs),
(344,30,o),
(355,63,o),
(372,97,cs),
(431,216,o),
(480,314,o),
(519,386,c),
(585,105,ls),
(605,21,o),
(642,-8,o),
(691,-8,cs),
(744,-8,o),
(797,42,o),
(797,66,cs),
(797,72,o),
(794,76,o),
(787,76,cs),
(780,76,o),
(770,72,o),
(757,63,cs),
(746,55,o),
(727,52,o),
(712,52,cs)
);
}
);
vertOrigin = 15;
width = 1000;
}
);
note = cid01045;
unicode = 955;
}
{
glyphname = nu;
layers = (
{
hints = (
{
horizontal = 1;
place = (414,71);
type = Stem;
},
{
place = (383,67);
type = Stem;
}
);
layerId = "481A290F-76EE-4968-957F-52614F4635C1";
shapes = (
{
closed = 1;
nodes = (
(238,412,ls),
(253,413,o),
(266,414,o),
(278,414,cs),
(317,414,o),
(342,404,o),
(357,363,cs),
(372,319,o),
(383,241,o),
(383,160,cs),
(383,129,o),
(381,99,o),
(378,69,cs),
(377,57,o),
(376,46,o),
(376,37,cs),
(376,15,o),
(382,0,o),
(410,-9,cs),
(423,-13,o),
(432,-15,o),
(439,-15,cs),
(457,-15,o),
(463,-1,o),
(490,29,cs),
(680,232,o),
(722,456,o),
(722,476,cs),
(722,492,o),
(716,500,o),
(709,500,cs),
(699,500,o),
(686,487,o),
(675,459,cs),
(597,256,o),
(521,162,o),
(448,85,c),
(450,109,o),
(450,134,o),
(450,159,cs),
(450,464,o),
(368,485,o),
(253,485,cs),
(233,485,o),
(223,460,o),
(223,439,cs),
(223,425,o),
(228,412,o),
(237,412,cs)
);
}
);
vertOrigin = 130;
width = 1000;
}
);
note = cid01047;
unicode = 957;
}
{
glyphname = xi;
layers = (
{
hints = (
{
horizontal = 1;
place = (-12,65);
type = Stem;
},
{
horizontal = 1;
place = (620,53);
type = Stem;
},
{
place = (251,72);
type = Stem;
},
{
place = (383,59);
type = Stem;
},
{
place = (340,72);
type = Stem;
}
);
layerId = "481A290F-76EE-4968-957F-52614F4635C1";
shapes = (
{
closed = 1;
nodes = (
(599,414,l),
(559,404,o),
(525,398,o),
(491,398,cs),
(455,398,o),
(412,399,o),
(412,448,cs),
(412,491,o),
(501,604,o),
(680,637,cs),
(687,638,o),
(689,646,o),
(689,656,cs),
(689,679,o),
(676,712,o),
(658,712,cs),
(656,712,o),
(653,711,o),
(651,710,cs),
(580,677,o),
(515,673,o),
(494,673,cs),
(459,673,o),
(442,683,o),
(442,702,cs),
(442,718,o),
(455,742,o),
(479,771,cs),
(484,777,o),
(487,784,o),
(487,789,cs),
(487,796,o),
(482,801,o),
(475,801,cs),
(456,801,o),
(383,732,o),
(383,678,cs),
(383,643,o),
(414,620,o),
(470,620,cs),
(480,620,o),
(490,621,o),
(501,622,c),
(407,580,o),
(340,511,o),
(340,450,cs),
(340,398,o),
(367,366,o),
(423,352,c),
(353,320,o),
(251,234,o),
(251,135,cs),
(251,52,o),
(305,-12,o),
(444,-12,cs),
(486,-12,o),
(535,-4,o),
(590,15,c),
(557,-29,o),
(535,-76,o),
(523,-112,cs),
(522,-114,o),
(522,-116,o),
(522,-119,cs),
(522,-140,o),
(551,-164,o),
(569,-164,cs),
(576,-164,o),
(581,-160,o),
(583,-152,cs),
(597,-89,o),
(622,-41,o),
(649,-4,cs),
(659,10,o),
(672,22,o),
(672,41,cs),
(672,61,o),
(636,98,o),
(622,98,cs),
(608,98,o),
(592,88,o),
(585,85,cs),
(532,63,o),
(486,53,o),
(448,53,cs),
(338,53,o),
(323,85,o),
(323,134,cs),
(323,233,o),
(445,331,o),
(623,344,cs),
(633,345,o),
(636,352,o),
(636,362,cs),
(636,383,o),
(619,414,o),
(602,414,cs)
);
}
);
vertOrigin = 10;
width = 1000;
}
);
note = cid01048;
unicode = 958;
}
{
glyphname = sigma;
layers = (
{
hints = (
{
horizontal = 1;
place = (-18,63);
type = Stem;
},
{
horizontal = 1;
place = (420,62);
type = Stem;
},
{
place = (263,68);
type = Stem;
},
{
place = (635,68);
type = Stem;
}
);
layerId = "481A290F-76EE-4968-957F-52614F4635C1";
shapes = (
{
closed = 1;
nodes = (
(745,485,ls),
(711,483,o),
(675,482,o),
(640,482,cs),
(558,482,ls),
(380,482,o),
(263,330,o),
(263,193,cs),
(263,74,o),
(339,-18,o),
(458,-18,cs),
(618,-18,o),
(703,97,o),
(703,244,cs),
(703,322,o),
(663,387,o),
(613,420,c),
(644,420,ls),
(690,420,o),
(726,419,o),
(770,418,cs),
(778,418,o),
(781,424,o),
(781,432,cs),
(781,452,o),
(764,485,o),
(746,485,cs)
);
},
{
closed = 1;
nodes = (
(568,417,ls),
(568,412,o),
(570,405,o),
(578,397,cs),
(620,355,o),
(635,303,o),
(635,238,cs),
(635,130,o),
(575,45,o),
(457,45,cs),
(380,45,o),
(331,102,o),
(331,193,cs),
(331,302,o),
(421,420,o),
(554,420,cs),
(568,420,l)
);
}
);
vertOrigin = 134;
width = 1000;
}
);
note = cid01052;
unicode = 963;
}
{
glyphname = tau;
layers = (
{
hints = (
{
horizontal = 1;
place = (-11,64);
type = Stem;
},
{
horizontal = 1;
place = (409,56);
type = Stem;
},
{
place = (424,71);
type = Stem;
},
{
horizontal = 1;
place = (417,49);
type = Stem;
}
);
layerId = "481A290F-76EE-4968-957F-52614F4635C1";
shapes = (
{
closed = 1;
nodes = (
(529,53,ls),
(505,55,o),
(495,61,o),
(495,91,cs),
(495,102,o),
(496,117,o),
(499,136,cs),
(538,415,l),
(601,419,ls),
(612,420,o),
(626,420,o),
(639,420,cs),
(666,420,o),
(693,419,o),
(704,419,cs),
(713,419,o),
(716,427,o),
(716,437,cs),
(716,457,o),
(703,487,o),
(686,487,cs),
(684,487,ls),
(668,485,o),
(630,479,o),
(601,477,cs),
(405,466,ls),
(398,466,o),
(389,465,o),
(379,465,cs),
(350,465,o),
(314,467,o),
(302,467,cs),
(293,467,o),
(289,459,o),
(289,449,cs),
(289,428,o),
(304,398,o),
(321,398,cs),
(322,398,ls),
(336,399,o),
(381,407,o),
(405,408,cs),
(467,410,l),
(428,142,ls),
(425,121,o),
(424,103,o),
(424,87,cs),
(424,16,o),
(453,-11,o),
(521,-11,cs),
(587,-11,o),
(657,44,o),
(657,77,cs),
(657,84,o),
(654,89,o),
(647,89,cs),
(641,89,o),
(632,85,o),
(620,76,cs),
(598,59,o),
(565,53,o),
(540,53,cs)
);
}
);
vertOrigin = 130;
width = 1000;
}
);
note = cid01053;
unicode = 964;
}
{
glyphname = phi;
layers = (
{
hints = (
{
horizontal = 1;
place = (-188,902);
type = Stem;
},
{
place = (261,69);
type = Stem;
},
{
place = (422,64);
type = Stem;
},
{
place = (522,68);
type = Stem;
},
{
place = (668,69);
type = Stem;
},
{
place = (399,71);
type = Stem;
}
);
layerId = "481A290F-76EE-4968-957F-52614F4635C1";
shapes = (
{
closed = 1;
nodes = (
(490,-19,l),
(644,-13,o),
(737,118,o),
(737,245,cs),
(737,383,o),
(661,471,o),
(560,484,c),
(575,585,ls),
(579,612,o),
(585,648,o),
(590,673,c),
(590,677,ls),
(590,699,o),
(559,714,o),
(538,714,cs),
(529,714,o),
(523,711,o),
(522,704,cs),
(519,673,o),
(515,633,o),
(512,610,cs),
(495,485,l),
(452,480,o),
(421,462,o),
(399,445,c),
(395,450,o),
(389,454,o),
(382,454,cs),
(352,454,o),
(261,324,o),
(261,207,cs),
(261,88,o),
(320,7,o),
(424,-13,c),
(420,-41,ls),
(416,-69,o),
(407,-115,o),
(400,-148,c),
(400,-150,o),
(399,-151,o),
(399,-153,cs),
(399,-174,o),
(428,-188,o),
(448,-188,cs),
(460,-188,o),
(469,-184,o),
(470,-174,cs),
(474,-142,o),
(478,-97,o),
(482,-69,cs)
);
},
{
closed = 1;
nodes = (
(432,48,l),
(373,63,o),
(330,117,o),
(330,208,cs),
(330,302,o),
(397,403,o),
(486,421,c)
);
},
{
closed = 1;
nodes = (
(552,422,l),
(626,409,o),
(668,344,o),
(668,245,cs),
(668,134,o),
(573,49,o),
(498,43,c)
);
}
);
vertOrigin = 107;
width = 1000;
}
);
note = cid01055;
unicode = 966;
}
{
glyphname = chi;
layers = (
{
hints = (
{
horizontal = 1;
place = (-161,60);
type = Stem;
},
{
horizontal = 1;
place = (424,64);
type = Stem;
},
{
place = (271,483);
type = Stem;
}
);
layerId = "481A290F-76EE-4968-957F-52614F4635C1";
shapes = (
{
closed = 1;
nodes = (
(649,-161,ls),
(716,-161,o),
(754,-99,o),
(754,-85,cs),
(754,-79,o),
(751,-75,o),
(744,-75,cs),
(740,-75,o),
(733,-77,o),
(724,-83,c),
(721,-84,o),
(718,-87,o),
(714,-89,c),
(700,-100,o),
(681,-101,o),
(661,-101,cs),
(624,-100,o),
(606,-81,o),
(588,-29,cs),
(521,171,l),
(638,367,ls),
(651,390,o),
(671,420,o),
(683,437,cs),
(685,440,o),
(686,443,o),
(686,446,cs),
(686,466,o),
(654,491,o),
(634,491,cs),
(628,491,o),
(623,489,o),
(621,483,cs),
(610,454,o),
(593,417,o),
(580,393,cs),
(494,249,l),
(448,386,ls),
(423,456,o),
(416,488,o),
(298,488,cs),
(281,488,o),
(271,467,o),
(271,449,cs),
(271,436,o),
(276,424,o),
(290,424,cs),
(355,424,o),
(365,423,o),
(385,368,cs),
(450,175,l),
(332,-22,ls),
(316,-50,o),
(298,-79,o),
(280,-105,c),
(278,-107,o),
(277,-110,o),
(277,-114,cs),
(277,-132,o),
(303,-161,o),
(322,-161,cs),
(329,-161,o),
(336,-157,o),
(340,-148,cs),
(353,-119,o),
(371,-80,o),
(384,-58,cs),
(476,96,l),
(528,-59,ls),
(554,-134,o),
(595,-161,o),
(646,-161,cs)
);
}
);
vertOrigin = 204;
width = 1000;
}
);
note = cid01056;
unicode = 967;
}
{
glyphname = psi;
layers = (
{
hints = (
{
horizontal = 1;
place = (-17,66);
type = Stem;
},
{
horizontal = 1;
place = (423,63);
type = Stem;
},
{
place = (287,69);
type = Stem;
},
{
place = (446,67);
type = Stem;
},
{
place = (550,69);
type = Stem;
},
{
place = (695,56);
type = Stem;
},
{
place = (345,65);
type = Stem;
},
{
place = (423,73);
type = Stem;
}
);
layerId = "481A290F-76EE-4968-957F-52614F4635C1";
shapes = (
{
closed = 1;
nodes = (
(517,-17,l),
(698,-3,o),
(751,124,o),
(751,310,cs),
(751,411,o),
(722,491,o),
(695,491,cs),
(686,491,o),
(679,484,o),
(679,473,cs),
(679,468,o),
(680,464,o),
(682,458,cs),
(694,427,o),
(695,367,o),
(695,325,cs),
(695,168,o),
(644,68,o),
(526,52,c),
(604,585,l),
(619,672,l),
(619,676,ls),
(619,699,o),
(587,714,o),
(567,714,cs),
(557,714,o),
(551,711,o),
(550,704,cs),
(547,673,o),
(543,632,o),
(540,610,cs),
(457,49,l),
(400,55,o),
(356,78,o),
(356,147,cs),
(356,208,o),
(386,291,o),
(405,366,cs),
(409,381,o),
(410,394,o),
(410,406,cs),
(410,460,o),
(377,486,o),
(338,486,cs),
(264,486,o),
(211,418,o),
(211,400,cs),
(211,380,o),
(236,364,o),
(254,364,cs),
(261,364,o),
(267,367,o),
(270,372,cs),
(288,406,o),
(311,423,o),
(332,423,cs),
(340,423,o),
(345,419,o),
(345,406,cs),
(345,398,o),
(344,388,o),
(340,373,cs),
(324,309,o),
(287,218,o),
(287,146,cs),
(287,58,o),
(346,-7,o),
(448,-17,c),
(444,-41,ls),
(440,-70,o),
(431,-115,o),
(424,-148,c),
(424,-150,o),
(423,-151,o),
(423,-153,cs),
(423,-173,o),
(453,-187,o),
(474,-187,cs),
(486,-187,o),
(495,-183,o),
(496,-174,cs),
(500,-142,o),
(505,-96,o),
(509,-68,cs)
);
}
);
vertOrigin = 94;
width = 1000;
}
);
note = cid01057;
unicode = 968;
}
{
glyphname = omega;
layers = (
{
hints = (
{
horizontal = 1;
place = (-18,60);
type = Stem;
},
{
place = (204,65);
type = Stem;
},
{
place = (472,54);
type = Stem;
},
{
place = (723,65);
type = Stem;
}
);
layerId = "481A290F-76EE-4968-957F-52614F4635C1";
shapes = (
{
closed = 1;
nodes = (
(546,294,ls),
(546,306,o),
(527,314,o),
(508,314,cs),
(490,314,o),
(472,307,o),
(472,294,cs),
(469,251,o),
(443,42,o),
(338,42,cs),
(292,42,o),
(269,88,o),
(269,173,cs),
(269,271,o),
(332,389,o),
(418,423,cs),
(423,425,o),
(426,431,o),
(426,438,cs),
(426,457,o),
(407,487,o),
(390,487,cs),
(385,487,o),
(204,378,o),
(204,173,cs),
(204,67,o),
(248,-18,o),
(333,-18,cs),
(388,-18,o),
(438,8,o),
(479,92,c),
(490,14,o),
(537,-18,o),
(595,-18,cs),
(730,-18,o),
(788,124,o),
(788,250,cs),
(788,379,o),
(686,480,o),
(652,480,cs),
(642,480,o),
(636,474,o),
(636,465,cs),
(636,459,o),
(640,451,o),
(648,445,cs),
(689,411,o),
(723,326,o),
(723,251,cs),
(723,113,o),
(659,42,o),
(596,42,cs),
(543,42,o),
(526,90,o),
(526,157,cs),
(526,195,o),
(527,225,o),
(546,291,c)
);
}
);
vertOrigin = 134;
width = 1000;
}
);
note = cid01058;
unicode = 969;
}
